<svg width="158" height="121" viewBox="0 0 158 121" fill="none" xmlns="http://www.w3.org/2000/svg">
<rect x="0.5" y="0.5" width="29" height="15" fill="#202020" stroke="#878787"/>
<rect x="29.5" y="0.5" width="35" height="15" fill="#202020" stroke="#878787"/>
<rect x="64.5" y="0.5" width="91" height="15" fill="#202020" stroke="#878787"/>
<rect x="0.5" y="15.5" width="29" height="15" fill="#21252B" stroke="#878787"/>
<rect x="29.5" y="15.5" width="35" height="15" fill="#21252B" stroke="#878787"/>
<rect x="64.5" y="15.5" width="91" height="15" fill="#21252B" stroke="#878787"/>
<rect x="0.5" y="45.5" width="29" height="15" fill="#21252B" stroke="#878787"/>
<rect x="29.5" y="45.5" width="35" height="15" fill="#21252B" stroke="#878787"/>
<rect x="64.5" y="45.5" width="91" height="15" fill="#21252B" stroke="#878787"/>
<rect x="0.5" y="60.5" width="29" height="15" fill="#21252B" stroke="#878787"/>
<rect x="29.5" y="60.5" width="35" height="15" fill="#21252B" stroke="#878787"/>
<rect x="64.5" y="60.5" width="91" height="15" fill="#21252B" stroke="#878787"/>
<rect x="0.5" y="75.5" width="29" height="15" fill="#21252B" stroke="#878787"/>
<rect x="29.5" y="75.5" width="35" height="15" fill="#21252B" stroke="#878787"/>
<rect x="64.5" y="75.5" width="91" height="15" fill="#21252B" stroke="#878787"/>
<rect x="0.5" y="105.5" width="29" height="15" fill="#21252B" stroke="#878787"/>
<rect x="29.5" y="105.5" width="35" height="15" fill="#21252B" stroke="#878787"/>
<rect x="64.5" y="105.5" width="91" height="15" fill="#21252B" stroke="#878787"/>
<rect x="0.5" y="90.5" width="29" height="15" fill="#21252B" stroke="#878787"/>
<rect x="29.5" y="90.5" width="35" height="15" fill="#21252B" stroke="#878787"/>
<rect x="64.5" y="90.5" width="91" height="15" fill="#21252B" stroke="#878787"/>
<rect x="0.5" y="30.5" width="29" height="15" fill="#21252B" stroke="#878787"/>
<rect x="29.5" y="30.5" width="35" height="15" fill="#21252B" stroke="#878787"/>
<rect x="64.5" y="30.5" width="91" height="15" fill="#21252B" stroke="#878787"/>
<path d="M13.372 3.566H14.119V11.702H13.372V3.566ZM10.987 4.439H11.725C11.725 6.797 10.663 8.858 7.945 10.19L7.549 9.587C9.898 8.453 10.987 6.725 10.987 4.565V4.439ZM7.918 4.439H11.311V5.051H7.918V4.439ZM16.0893 4.754H22.6953V5.366H16.0893V4.754ZM15.7293 10.136H23.1003V10.757H15.7293V10.136ZM19.0323 8.849H19.7703V10.379H19.0323V8.849ZM19.3923 5.915C21.0393 5.915 22.0563 6.482 22.0563 7.463C22.0563 8.444 21.0393 9.011 19.3923 9.011C17.7543 9.011 16.7373 8.444 16.7373 7.463C16.7373 6.482 17.7543 5.915 19.3923 5.915ZM19.3923 6.5C18.2133 6.5 17.4843 6.86 17.4843 7.463C17.4843 8.066 18.2133 8.417 19.3923 8.417C20.5803 8.417 21.3003 8.066 21.3003 7.463C21.3003 6.86 20.5803 6.5 19.3923 6.5ZM19.0323 3.701H19.7703V5.132H19.0323V3.701Z" fill="white"/>
<path d="M15.0568 26.304V19.7415H16.1705V26.304H15.0568ZM12.3324 23.5795V22.4659H18.8949V23.5795H12.3324Z" fill="white"/>
<path d="M17.4489 38.0881V39.1818H12.9943V38.0881H17.4489Z" fill="white"/>
<path d="M15.0227 55.5455L15.1023 53.358L13.2528 54.5312L12.7756 53.696L14.7244 52.6818L12.7756 51.6676L13.2528 50.8324L15.1023 52.0057L15.0227 49.8182H15.9773L15.8977 52.0057L17.7472 50.8324L18.2244 51.6676L16.2756 52.6818L18.2244 53.696L17.7472 54.5312L15.8977 53.358L15.9773 55.5455H15.0227Z" fill="white"/>
<path d="M16.3381 63.3864L13.9943 72.0938H13.2273L15.571 63.3864H16.3381Z" fill="white"/>
<path d="M15.4602 85.6364V85.2528C15.4602 84.9877 15.5147 84.745 15.6236 84.5249C15.7348 84.3023 15.8958 84.1248 16.1065 83.9922C16.3196 83.8572 16.5777 83.7898 16.8807 83.7898C17.1884 83.7898 17.4465 83.8572 17.6548 83.9922C17.8632 84.1248 18.0206 84.3023 18.1271 84.5249C18.2337 84.745 18.2869 84.9877 18.2869 85.2528V85.6364C18.2869 85.9015 18.2325 86.1454 18.1236 86.3679C18.017 86.5881 17.8584 86.7656 17.6477 86.9006C17.4394 87.0331 17.1837 87.0994 16.8807 87.0994C16.5729 87.0994 16.3137 87.0331 16.103 86.9006C15.8923 86.7656 15.7325 86.5881 15.6236 86.3679C15.5147 86.1454 15.4602 85.9015 15.4602 85.6364ZM16.1847 85.2528V85.6364C16.1847 85.8565 16.2367 86.0542 16.3409 86.2294C16.4451 86.4022 16.625 86.4886 16.8807 86.4886C17.1293 86.4886 17.3045 86.4022 17.4062 86.2294C17.5104 86.0542 17.5625 85.8565 17.5625 85.6364V85.2528C17.5625 85.0327 17.5128 84.8362 17.4134 84.6634C17.3139 84.4882 17.1364 84.4006 16.8807 84.4006C16.6321 84.4006 16.4534 84.4882 16.3445 84.6634C16.2379 84.8362 16.1847 85.0327 16.1847 85.2528ZM11.8381 81.4744V81.0909C11.8381 80.8258 11.8925 80.5831 12.0014 80.3629C12.1127 80.1404 12.2737 79.9628 12.4844 79.8303C12.6974 79.6953 12.9555 79.6278 13.2585 79.6278C13.5663 79.6278 13.8243 79.6953 14.0327 79.8303C14.241 79.9628 14.3984 80.1404 14.505 80.3629C14.6115 80.5831 14.6648 80.8258 14.6648 81.0909V81.4744C14.6648 81.7396 14.6103 81.9834 14.5014 82.206C14.3949 82.4261 14.2363 82.6037 14.0256 82.7386C13.8172 82.8712 13.5616 82.9375 13.2585 82.9375C12.9508 82.9375 12.6915 82.8712 12.4808 82.7386C12.2701 82.6037 12.1103 82.4261 12.0014 82.206C11.8925 81.9834 11.8381 81.7396 11.8381 81.4744ZM12.5625 81.0909V81.4744C12.5625 81.6946 12.6146 81.8923 12.7188 82.0675C12.8229 82.2403 13.0028 82.3267 13.2585 82.3267C13.5071 82.3267 13.6823 82.2403 13.7841 82.0675C13.8883 81.8923 13.9403 81.6946 13.9403 81.4744V81.0909C13.9403 80.8707 13.8906 80.6742 13.7912 80.5014C13.6918 80.3262 13.5142 80.2386 13.2585 80.2386C13.0099 80.2386 12.8312 80.3262 12.7223 80.5014C12.6158 80.6742 12.5625 80.8707 12.5625 81.0909ZM12.108 87L17.108 79.7273H17.9176L12.9176 87H12.108Z" fill="white"/>
<path d="M41.087 5.151C42.356 5.151 43.265 5.934 43.265 7.068C43.265 8.211 42.356 8.994 41.087 8.994C39.818 8.994 38.9 8.211 38.9 7.068C38.9 5.934 39.818 5.151 41.087 5.151ZM41.087 5.799C40.241 5.799 39.629 6.312 39.629 7.068C39.629 7.824 40.241 8.346 41.087 8.346C41.924 8.346 42.536 7.824 42.536 7.068C42.536 6.312 41.924 5.799 41.087 5.799ZM44.327 4.557H45.074V12.711H44.327V4.557ZM38.594 10.929L38.486 10.308C39.971 10.308 42.023 10.299 43.796 10.02L43.859 10.569C42.032 10.92 40.043 10.929 38.594 10.929ZM47.1883 5.358H50.9323V10.659H47.1883V5.358ZM50.2033 5.961H47.9173V10.056H50.2033V5.961ZM52.6333 4.557H53.3803V12.711H52.6333V4.557Z" fill="white"/>
<path d="M35.855 24.074H36.476C37.988 24.074 38.96 24.038 40.094 23.822L40.175 24.434C39.005 24.65 38.024 24.704 36.476 24.704H35.855V24.074ZM35.855 19.34H39.554V19.952H36.593V24.308H35.855V19.34ZM41.408 18.566H42.155V26.72H41.408V18.566ZM39.077 21.509H41.714V22.13H39.077V21.509ZM49.2373 18.566H49.9843V26.702H49.2373V18.566ZM49.8043 21.905H51.3163V22.535H49.8043V21.905ZM43.6843 19.862H48.4813V20.474H43.6843V19.862ZM46.1143 21.149C47.2663 21.149 48.0943 21.923 48.0943 23.021C48.0943 24.119 47.2663 24.893 46.1143 24.893C44.9713 24.893 44.1343 24.119 44.1343 23.021C44.1343 21.923 44.9713 21.149 46.1143 21.149ZM46.1143 21.77C45.3763 21.77 44.8453 22.283 44.8453 23.021C44.8453 23.75 45.3763 24.272 46.1143 24.272C46.8523 24.272 47.3833 23.75 47.3833 23.021C47.3833 22.283 46.8523 21.77 46.1143 21.77ZM45.7273 18.665H46.4743V20.141H45.7273V18.665ZM57.9306 18.566H58.6776V26.702H57.9306V18.566ZM55.5456 19.439H56.2836C56.2836 21.797 55.2216 23.858 52.5036 25.19L52.1076 24.587C54.4566 23.453 55.5456 21.725 55.5456 19.565V19.439ZM52.4766 19.439H55.8696V20.051H52.4766V19.439Z" fill="white"/>
<path d="M68.6903 27.8409V21.0909H69.419V21.8707H69.5085C69.5639 21.7855 69.6406 21.6768 69.7386 21.5447C69.8388 21.4105 69.9815 21.2912 70.1669 21.1868C70.3544 21.0803 70.608 21.027 70.9276 21.027C71.3409 21.027 71.7053 21.1303 72.0206 21.337C72.3359 21.5437 72.582 21.8366 72.7589 22.2159C72.9357 22.5952 73.0241 23.0426 73.0241 23.5582C73.0241 24.0781 72.9357 24.5288 72.7589 24.9102C72.582 25.2894 72.337 25.5835 72.0238 25.7923C71.7106 25.9989 71.3494 26.1023 70.9403 26.1023C70.625 26.1023 70.3725 26.0501 70.1829 25.9457C69.9933 25.8391 69.8473 25.7187 69.745 25.5845C69.6428 25.4482 69.5639 25.3352 69.5085 25.2457H69.4446V27.8409H68.6903ZM69.4318 23.5455C69.4318 23.9162 69.4862 24.2433 69.5948 24.5266C69.7035 24.8079 69.8622 25.0284 70.071 25.1882C70.2798 25.3459 70.5355 25.4247 70.8381 25.4247C71.1534 25.4247 71.4165 25.3416 71.6275 25.1754C71.8406 25.0071 72.0004 24.7812 72.1069 24.4979C72.2156 24.2124 72.2699 23.8949 72.2699 23.5455C72.2699 23.2003 72.2166 22.8892 72.1101 22.6122C72.0057 22.3331 71.8469 22.1126 71.6339 21.9506C71.4229 21.7866 71.1577 21.7045 70.8381 21.7045C70.5313 21.7045 70.2734 21.7823 70.0646 21.9379C69.8558 22.0913 69.6982 22.3065 69.5916 22.5835C69.4851 22.8583 69.4318 23.179 69.4318 23.5455ZM74.1747 26V21.0909H74.9034V21.8324H74.9545C75.044 21.5895 75.206 21.3924 75.4403 21.2411C75.6747 21.0898 75.9389 21.0142 76.233 21.0142C76.2884 21.0142 76.3576 21.0153 76.4407 21.0174C76.5238 21.0195 76.5866 21.0227 76.6293 21.027V21.794C76.6037 21.7876 76.5451 21.7781 76.4535 21.7653C76.364 21.7504 76.2692 21.7429 76.169 21.7429C75.9304 21.7429 75.7173 21.793 75.5298 21.8931C75.3445 21.9911 75.1974 22.1275 75.0888 22.3022C74.9822 22.4748 74.929 22.6719 74.929 22.8935V26H74.1747ZM77.5233 26V21.0909H78.2776V26H77.5233ZM77.9069 20.2727C77.7599 20.2727 77.6331 20.2227 77.5265 20.1225C77.4221 20.0224 77.3699 19.902 77.3699 19.7614C77.3699 19.6207 77.4221 19.5004 77.5265 19.4002C77.6331 19.3001 77.7599 19.25 77.9069 19.25C78.0539 19.25 78.1796 19.3001 78.284 19.4002C78.3905 19.5004 78.4438 19.6207 78.4438 19.7614C78.4438 19.902 78.3905 20.0224 78.284 20.1225C78.1796 20.2227 78.0539 20.2727 77.9069 20.2727ZM80.4134 23.0469V26H79.6591V21.0909H80.3878V21.858H80.4517C80.5668 21.6087 80.7415 21.4084 80.9759 21.2571C81.2102 21.1037 81.5128 21.027 81.8835 21.027C82.2159 21.027 82.5067 21.0952 82.756 21.2315C83.0053 21.3658 83.1992 21.5703 83.3377 21.8452C83.4762 22.1179 83.5455 22.4631 83.5455 22.8807V26H82.7912V22.9318C82.7912 22.5462 82.6911 22.2457 82.4908 22.0305C82.2905 21.8132 82.0156 21.7045 81.6662 21.7045C81.4254 21.7045 81.2102 21.7567 81.0206 21.8612C80.8331 21.9656 80.685 22.1179 80.5763 22.3182C80.4677 22.5185 80.4134 22.7614 80.4134 23.0469ZM87.0587 21.0909V21.7301H84.5146V21.0909H87.0587ZM85.2561 19.9148H86.0104V24.5938C86.0104 24.8068 86.0413 24.9666 86.1031 25.0732C86.167 25.1776 86.248 25.2479 86.346 25.2841C86.4461 25.3182 86.5516 25.3352 86.6624 25.3352C86.7455 25.3352 86.8137 25.331 86.8669 25.3224C86.9202 25.3118 86.9628 25.3033 86.9948 25.2969L87.1482 25.9744C87.097 25.9936 87.0257 26.0128 86.934 26.032C86.8424 26.0533 86.7263 26.0639 86.5857 26.0639C86.3726 26.0639 86.1638 26.0181 85.9593 25.9265C85.7568 25.8349 85.5885 25.6953 85.4543 25.5078C85.3222 25.3203 85.2561 25.0838 85.2561 24.7983V19.9148ZM88.4617 23.2386C88.4617 22.4332 88.5661 21.6928 88.7749 21.0174C88.9859 20.3398 89.2863 19.7166 89.6762 19.1477H90.341C90.1876 19.3587 90.0438 19.6186 89.9095 19.9276C89.7774 20.2344 89.6613 20.5721 89.5612 20.9407C89.461 21.3072 89.3822 21.6864 89.3247 22.0785C89.2693 22.4705 89.2416 22.8572 89.2416 23.2386C89.2416 23.7457 89.2906 24.2603 89.3886 24.7823C89.4866 25.3043 89.6187 25.7891 89.7849 26.2365C89.9511 26.6839 90.1365 27.0483 90.341 27.3295H89.6762C89.2863 26.7607 88.9859 26.1385 88.7749 25.4631C88.5661 24.7855 88.4617 24.044 88.4617 23.2386ZM93.4867 26.0895C93.1117 26.0895 92.774 26.0149 92.4735 25.8658C92.1731 25.7166 91.9324 25.5121 91.7512 25.2521C91.5701 24.9922 91.4711 24.696 91.454 24.3636H92.2211C92.2509 24.6598 92.3851 24.9048 92.6238 25.0987C92.8645 25.2905 93.1522 25.3864 93.4867 25.3864C93.7551 25.3864 93.9938 25.3235 94.2026 25.1978C94.4135 25.0721 94.5787 24.8995 94.698 24.68C94.8194 24.4585 94.8801 24.2081 94.8801 23.929C94.8801 23.6435 94.8173 23.3888 94.6916 23.1651C94.568 22.9393 94.3975 22.7614 94.1802 22.6314C93.9629 22.5014 93.7147 22.4354 93.4355 22.4332C93.2353 22.4311 93.0297 22.462 92.8187 22.5259C92.6078 22.5877 92.4341 22.6676 92.2978 22.7656L91.5563 22.6761L91.9526 19.4545H95.3532V20.1577H92.6174L92.3873 22.0881H92.4256C92.5598 21.9815 92.7282 21.8931 92.9306 21.8228C93.133 21.7525 93.3439 21.7173 93.5634 21.7173C93.964 21.7173 94.3208 21.8132 94.6341 22.005C94.9494 22.1946 95.1966 22.4545 95.3755 22.7848C95.5566 23.1151 95.6472 23.4922 95.6472 23.9162C95.6472 24.3338 95.5534 24.7067 95.3659 25.0348C95.1806 25.3608 94.9249 25.6186 94.5989 25.8082C94.2729 25.9957 93.9022 26.0895 93.4867 26.0895ZM98.8472 24.8494V20.6307H99.5631V24.8494H98.8472ZM97.0958 23.098V22.3821H101.315V23.098H97.0958ZM102.542 26V25.4247L104.702 23.0597C104.956 22.7827 105.165 22.5419 105.329 22.3374C105.493 22.1307 105.614 21.9368 105.693 21.7557C105.774 21.5724 105.815 21.3807 105.815 21.1804C105.815 20.9503 105.759 20.7511 105.648 20.5827C105.54 20.4144 105.391 20.2844 105.201 20.1928C105.011 20.1012 104.798 20.0554 104.562 20.0554C104.31 20.0554 104.091 20.1076 103.903 20.212C103.718 20.3143 103.574 20.4581 103.472 20.6435C103.372 20.8288 103.322 21.0462 103.322 21.2955H102.567C102.567 20.9119 102.656 20.5753 102.833 20.2855C103.009 19.9957 103.25 19.7699 103.555 19.608C103.862 19.446 104.206 19.3651 104.587 19.3651C104.971 19.3651 105.311 19.446 105.607 19.608C105.903 19.7699 106.135 19.9883 106.304 20.2631C106.472 20.538 106.556 20.8438 106.556 21.1804C106.556 21.4212 106.512 21.6566 106.425 21.8867C106.34 22.1147 106.191 22.3693 105.978 22.6506C105.767 22.9297 105.474 23.2706 105.099 23.6733L103.628 25.2457V25.2969H106.671V26H102.542ZM109.615 23.2386C109.615 24.044 109.509 24.7855 109.298 25.4631C109.089 26.1385 108.79 26.7607 108.4 27.3295H107.735C107.889 27.1186 108.032 26.8587 108.164 26.5497C108.298 26.2429 108.415 25.9062 108.515 25.5398C108.615 25.1712 108.693 24.7908 108.748 24.3988C108.806 24.0046 108.835 23.6179 108.835 23.2386C108.835 22.7315 108.786 22.217 108.688 21.695C108.59 21.1729 108.458 20.6882 108.291 20.2408C108.125 19.7933 107.94 19.429 107.735 19.1477H108.4C108.79 19.7166 109.089 20.3398 109.298 21.0174C109.509 21.6928 109.615 22.4332 109.615 23.2386Z" fill="white"/>
<path d="M117.013 24.2102L113.811 25.8409V25.2045L116.267 24.0213L116.248 24.0611V23.9616L116.267 24.0014L113.811 22.8182V22.1818L117.013 23.8125V24.2102ZM121.627 24.2102L118.426 25.8409V25.2045L120.882 24.0213L120.862 24.0611V23.9616L120.882 24.0014L118.426 22.8182V22.1818L121.627 23.8125V24.2102ZM129.273 20.218H129.854V23.445H129.273V20.218ZM127.271 20.526H127.901C127.901 22.122 126.802 23.144 124.954 23.592L124.751 23.116C126.389 22.738 127.271 21.905 127.271 20.813V20.526ZM125.08 20.526H127.537V21.002H125.08V20.526ZM127.677 21.128H129.371V21.59H127.677V21.128ZM127.621 22.339H129.336V22.794H127.621V22.339ZM125.78 23.739H129.854V25.293H126.375V26.301H125.801V24.845H129.28V24.208H125.78V23.739ZM125.801 26.021H130.064V26.483H125.801V26.021ZM131.372 20.911H134.235V21.38H131.372V20.911ZM132.359 22.717H132.933V24.859H132.359V22.717ZM133.997 20.911H134.564V21.247C134.564 21.765 134.564 22.591 134.382 23.767L133.808 23.711C133.997 22.57 133.997 21.758 133.997 21.247V20.911ZM135.362 20.218H135.936V26.546H135.362V20.218ZM135.782 22.864H136.951V23.354H135.782V22.864ZM131.092 25.167L131.022 24.677C132.17 24.677 133.696 24.656 134.977 24.495L135.005 24.922C133.696 25.132 132.212 25.16 131.092 25.167ZM138.146 25.3487C138.023 25.3487 137.918 25.3048 137.83 25.217C137.743 25.1291 137.699 25.0239 137.699 24.9013C137.699 24.7786 137.743 24.6734 137.83 24.5856C137.918 24.4978 138.023 24.4538 138.146 24.4538C138.269 24.4538 138.374 24.4978 138.462 24.5856C138.55 24.6734 138.594 24.7786 138.594 24.9013C138.594 24.9825 138.573 25.0571 138.531 25.125C138.492 25.1929 138.438 25.2476 138.37 25.2891C138.304 25.3288 138.229 25.3487 138.146 25.3487ZM138.146 22.7734C138.023 22.7734 137.918 22.7295 137.83 22.6417C137.743 22.5539 137.699 22.4486 137.699 22.326C137.699 22.2034 137.743 22.0981 137.83 22.0103C137.918 21.9225 138.023 21.8786 138.146 21.8786C138.269 21.8786 138.374 21.9225 138.462 22.0103C138.55 22.0981 138.594 22.2034 138.594 22.326C138.594 22.4072 138.573 22.4818 138.531 22.5497C138.492 22.6177 138.438 22.6723 138.37 22.7138C138.304 22.7536 138.229 22.7734 138.146 22.7734ZM141.764 26L144.041 21.4957V21.456H141.416V20.9091H144.678V21.4858L142.411 26H141.764Z" fill="#878787"/>
<path d="M68.6903 42.8409V36.0909H69.419V36.8707H69.5085C69.5639 36.7855 69.6406 36.6768 69.7386 36.5447C69.8388 36.4105 69.9815 36.2912 70.1669 36.1868C70.3544 36.0803 70.608 36.027 70.9276 36.027C71.3409 36.027 71.7053 36.1303 72.0206 36.337C72.3359 36.5437 72.582 36.8366 72.7589 37.2159C72.9357 37.5952 73.0241 38.0426 73.0241 38.5582C73.0241 39.0781 72.9357 39.5288 72.7589 39.9102C72.582 40.2894 72.337 40.5835 72.0238 40.7923C71.7106 40.9989 71.3494 41.1023 70.9403 41.1023C70.625 41.1023 70.3725 41.0501 70.1829 40.9457C69.9933 40.8391 69.8473 40.7187 69.745 40.5845C69.6428 40.4482 69.5639 40.3352 69.5085 40.2457H69.4446V42.8409H68.6903ZM69.4318 38.5455C69.4318 38.9162 69.4862 39.2433 69.5948 39.5266C69.7035 39.8079 69.8622 40.0284 70.071 40.1882C70.2798 40.3459 70.5355 40.4247 70.8381 40.4247C71.1534 40.4247 71.4165 40.3416 71.6275 40.1754C71.8406 40.0071 72.0004 39.7812 72.1069 39.4979C72.2156 39.2124 72.2699 38.8949 72.2699 38.5455C72.2699 38.2003 72.2166 37.8892 72.1101 37.6122C72.0057 37.3331 71.8469 37.1126 71.6339 36.9506C71.4229 36.7866 71.1577 36.7045 70.8381 36.7045C70.5313 36.7045 70.2734 36.7823 70.0646 36.9379C69.8558 37.0913 69.6982 37.3065 69.5916 37.5835C69.4851 37.8583 69.4318 38.179 69.4318 38.5455ZM74.1747 41V36.0909H74.9034V36.8324H74.9545C75.044 36.5895 75.206 36.3924 75.4403 36.2411C75.6747 36.0898 75.9389 36.0142 76.233 36.0142C76.2884 36.0142 76.3576 36.0153 76.4407 36.0174C76.5238 36.0195 76.5866 36.0227 76.6293 36.027V36.794C76.6037 36.7876 76.5451 36.7781 76.4535 36.7653C76.364 36.7504 76.2692 36.7429 76.169 36.7429C75.9304 36.7429 75.7173 36.793 75.5298 36.8931C75.3445 36.9911 75.1974 37.1275 75.0888 37.3022C74.9822 37.4748 74.929 37.6719 74.929 37.8935V41H74.1747ZM77.5233 41V36.0909H78.2776V41H77.5233ZM77.9069 35.2727C77.7599 35.2727 77.6331 35.2227 77.5265 35.1225C77.4221 35.0224 77.3699 34.902 77.3699 34.7614C77.3699 34.6207 77.4221 34.5004 77.5265 34.4002C77.6331 34.3001 77.7599 34.25 77.9069 34.25C78.0539 34.25 78.1796 34.3001 78.284 34.4002C78.3905 34.5004 78.4438 34.6207 78.4438 34.7614C78.4438 34.902 78.3905 35.0224 78.284 35.1225C78.1796 35.2227 78.0539 35.2727 77.9069 35.2727ZM80.4134 38.0469V41H79.6591V36.0909H80.3878V36.858H80.4517C80.5668 36.6087 80.7415 36.4084 80.9759 36.2571C81.2102 36.1037 81.5128 36.027 81.8835 36.027C82.2159 36.027 82.5067 36.0952 82.756 36.2315C83.0053 36.3658 83.1992 36.5703 83.3377 36.8452C83.4762 37.1179 83.5455 37.4631 83.5455 37.8807V41H82.7912V37.9318C82.7912 37.5462 82.6911 37.2457 82.4908 37.0305C82.2905 36.8132 82.0156 36.7045 81.6662 36.7045C81.4254 36.7045 81.2102 36.7567 81.0206 36.8612C80.8331 36.9656 80.685 37.1179 80.5763 37.3182C80.4677 37.5185 80.4134 37.7614 80.4134 38.0469ZM87.0587 36.0909V36.7301H84.5146V36.0909H87.0587ZM85.2561 34.9148H86.0104V39.5938C86.0104 39.8068 86.0413 39.9666 86.1031 40.0732C86.167 40.1776 86.248 40.2479 86.346 40.2841C86.4461 40.3182 86.5516 40.3352 86.6624 40.3352C86.7455 40.3352 86.8137 40.331 86.8669 40.3224C86.9202 40.3118 86.9628 40.3033 86.9948 40.2969L87.1482 40.9744C87.097 40.9936 87.0257 41.0128 86.934 41.032C86.8424 41.0533 86.7263 41.0639 86.5857 41.0639C86.3726 41.0639 86.1638 41.0181 85.9593 40.9265C85.7568 40.8349 85.5885 40.6953 85.4543 40.5078C85.3222 40.3203 85.2561 40.0838 85.2561 39.7983V34.9148ZM88.4617 38.2386C88.4617 37.4332 88.5661 36.6928 88.7749 36.0174C88.9859 35.3398 89.2863 34.7166 89.6762 34.1477H90.341C90.1876 34.3587 90.0438 34.6186 89.9095 34.9276C89.7774 35.2344 89.6613 35.5721 89.5612 35.9407C89.461 36.3072 89.3822 36.6864 89.3247 37.0785C89.2693 37.4705 89.2416 37.8572 89.2416 38.2386C89.2416 38.7457 89.2906 39.2603 89.3886 39.7823C89.4866 40.3043 89.6187 40.7891 89.7849 41.2365C89.9511 41.6839 90.1365 42.0483 90.341 42.3295H89.6762C89.2863 41.7607 88.9859 41.1385 88.7749 40.4631C88.5661 39.7855 88.4617 39.044 88.4617 38.2386ZM93.4867 41.0895C93.1117 41.0895 92.774 41.0149 92.4735 40.8658C92.1731 40.7166 91.9324 40.5121 91.7512 40.2521C91.5701 39.9922 91.4711 39.696 91.454 39.3636H92.2211C92.2509 39.6598 92.3851 39.9048 92.6238 40.0987C92.8645 40.2905 93.1522 40.3864 93.4867 40.3864C93.7551 40.3864 93.9938 40.3235 94.2026 40.1978C94.4135 40.0721 94.5787 39.8995 94.698 39.68C94.8194 39.4585 94.8801 39.2081 94.8801 38.929C94.8801 38.6435 94.8173 38.3888 94.6916 38.1651C94.568 37.9393 94.3975 37.7614 94.1802 37.6314C93.9629 37.5014 93.7147 37.4354 93.4355 37.4332C93.2353 37.4311 93.0297 37.462 92.8187 37.5259C92.6078 37.5877 92.4341 37.6676 92.2978 37.7656L91.5563 37.6761L91.9526 34.4545H95.3532V35.1577H92.6174L92.3873 37.0881H92.4256C92.5598 36.9815 92.7282 36.8931 92.9306 36.8228C93.133 36.7525 93.3439 36.7173 93.5634 36.7173C93.964 36.7173 94.3208 36.8132 94.6341 37.005C94.9494 37.1946 95.1966 37.4545 95.3755 37.7848C95.5566 38.1151 95.6472 38.4922 95.6472 38.9162C95.6472 39.3338 95.5534 39.7067 95.3659 40.0348C95.1806 40.3608 94.9249 40.6186 94.5989 40.8082C94.2729 40.9957 93.9022 41.0895 93.4867 41.0895ZM99.7421 37.3757V38.0788H96.8785V37.3757H99.7421ZM100.749 41V40.4247L102.909 38.0597C103.163 37.7827 103.372 37.5419 103.536 37.3374C103.7 37.1307 103.821 36.9368 103.9 36.7557C103.981 36.5724 104.022 36.3807 104.022 36.1804C104.022 35.9503 103.966 35.7511 103.855 35.5827C103.747 35.4144 103.598 35.2844 103.408 35.1928C103.218 35.1012 103.005 35.0554 102.769 35.0554C102.517 35.0554 102.298 35.1076 102.11 35.212C101.925 35.3143 101.781 35.4581 101.679 35.6435C101.579 35.8288 101.529 36.0462 101.529 36.2955H100.774C100.774 35.9119 100.863 35.5753 101.04 35.2855C101.217 34.9957 101.457 34.7699 101.762 34.608C102.069 34.446 102.413 34.3651 102.794 34.3651C103.178 34.3651 103.518 34.446 103.814 34.608C104.11 34.7699 104.342 34.9883 104.511 35.2631C104.679 35.538 104.763 35.8438 104.763 36.1804C104.763 36.4212 104.719 36.6566 104.632 36.8867C104.547 37.1147 104.398 37.3693 104.185 37.6506C103.974 37.9297 103.681 38.2706 103.306 38.6733L101.835 40.2457V40.2969H104.878V41H100.749ZM107.822 38.2386C107.822 39.044 107.716 39.7855 107.505 40.4631C107.296 41.1385 106.997 41.7607 106.607 42.3295H105.942C106.096 42.1186 106.239 41.8587 106.371 41.5497C106.505 41.2429 106.622 40.9062 106.722 40.5398C106.822 40.1712 106.9 39.7908 106.956 39.3988C107.013 39.0046 107.042 38.6179 107.042 38.2386C107.042 37.7315 106.993 37.217 106.895 36.695C106.797 36.1729 106.665 35.6882 106.498 35.2408C106.332 34.7933 106.147 34.429 105.942 34.1477H106.607C106.997 34.7166 107.296 35.3398 107.505 36.0174C107.716 36.6928 107.822 37.4332 107.822 38.2386Z" fill="white"/>
<path d="M115.22 39.2102L112.018 40.8409V40.2045L114.474 39.0213L114.455 39.0611V38.9616L114.474 39.0014L112.018 37.8182V37.1818L115.22 38.8125V39.2102ZM119.834 39.2102L116.633 40.8409V40.2045L119.089 39.0213L119.069 39.0611V38.9616L119.089 39.0014L116.633 37.8182V37.1818L119.834 38.8125V39.2102ZM127.48 35.218H128.061V38.445H127.48V35.218ZM125.478 35.526H126.108C126.108 37.122 125.009 38.144 123.161 38.592L122.958 38.116C124.596 37.738 125.478 36.905 125.478 35.813V35.526ZM123.287 35.526H125.744V36.002H123.287V35.526ZM125.884 36.128H127.578V36.59H125.884V36.128ZM125.828 37.339H127.543V37.794H125.828V37.339ZM123.987 38.739H128.061V40.293H124.582V41.301H124.008V39.845H127.487V39.208H123.987V38.739ZM124.008 41.021H128.271V41.483H124.008V41.021ZM129.579 35.911H132.442V36.38H129.579V35.911ZM130.566 37.717H131.14V39.859H130.566V37.717ZM132.204 35.911H132.771V36.247C132.771 36.765 132.771 37.591 132.589 38.767L132.015 38.711C132.204 37.57 132.204 36.758 132.204 36.247V35.911ZM133.569 35.218H134.143V41.546H133.569V35.218ZM133.989 37.864H135.158V38.354H133.989V37.864ZM129.299 40.167L129.229 39.677C130.377 39.677 131.903 39.656 133.184 39.495L133.212 39.922C131.903 40.132 130.419 40.16 129.299 40.167ZM136.353 40.3487C136.231 40.3487 136.125 40.3048 136.037 40.217C135.95 40.1291 135.906 40.0239 135.906 39.9013C135.906 39.7786 135.95 39.6734 136.037 39.5856C136.125 39.4978 136.231 39.4538 136.353 39.4538C136.476 39.4538 136.581 39.4978 136.669 39.5856C136.757 39.6734 136.801 39.7786 136.801 39.9013C136.801 39.9825 136.78 40.0571 136.738 40.125C136.699 40.1929 136.645 40.2476 136.577 40.2891C136.511 40.3288 136.436 40.3487 136.353 40.3487ZM136.353 37.7734C136.231 37.7734 136.125 37.7295 136.037 37.6417C135.95 37.5539 135.906 37.4486 135.906 37.326C135.906 37.2034 135.95 37.0981 136.037 37.0103C136.125 36.9225 136.231 36.8786 136.353 36.8786C136.476 36.8786 136.581 36.9225 136.669 37.0103C136.757 37.0981 136.801 37.2034 136.801 37.326C136.801 37.4072 136.78 37.4818 136.738 37.5497C136.699 37.6177 136.645 37.6723 136.577 37.7138C136.511 37.7536 136.436 37.7734 136.353 37.7734ZM141.532 41.0696C141.204 41.0696 140.912 41.0133 140.655 40.9006C140.4 40.7879 140.197 40.6313 140.046 40.4308C139.897 40.2286 139.815 39.9941 139.802 39.7273H140.429C140.442 39.8913 140.498 40.033 140.598 40.1523C140.697 40.27 140.827 40.3612 140.988 40.4258C141.149 40.4904 141.327 40.5227 141.522 40.5227C141.741 40.5227 141.935 40.4846 142.104 40.4084C142.273 40.3321 142.406 40.2261 142.502 40.0902C142.598 39.9543 142.646 39.7969 142.646 39.6179C142.646 39.4306 142.6 39.2657 142.507 39.1232C142.414 38.979 142.278 38.8664 142.099 38.7852C141.92 38.704 141.701 38.6634 141.443 38.6634H141.035V38.1165H141.443C141.645 38.1165 141.822 38.08 141.975 38.0071C142.129 37.9342 142.249 37.8314 142.335 37.6989C142.423 37.5663 142.467 37.4105 142.467 37.2315C142.467 37.0592 142.429 36.9092 142.353 36.7816C142.276 36.654 142.169 36.5546 142.029 36.4833C141.892 36.4121 141.73 36.3764 141.542 36.3764C141.367 36.3764 141.201 36.4087 141.045 36.4734C140.891 36.5363 140.765 36.6283 140.667 36.7493C140.569 36.8686 140.516 37.0128 140.508 37.1818H139.912C139.922 36.915 140.002 36.6813 140.153 36.4808C140.304 36.2786 140.501 36.1212 140.744 36.0085C140.99 35.8958 141.259 35.8395 141.552 35.8395C141.867 35.8395 142.137 35.9033 142.363 36.0309C142.588 36.1568 142.761 36.3234 142.882 36.5305C143.003 36.7377 143.064 36.9614 143.064 37.2017C143.064 37.4884 142.988 37.7328 142.837 37.935C142.688 38.1372 142.485 38.2772 142.228 38.3551V38.3949C142.55 38.4479 142.801 38.5846 142.982 38.805C143.162 39.0238 143.252 39.2947 143.252 39.6179C143.252 39.8946 143.177 40.1432 143.026 40.3636C142.877 40.5824 142.673 40.7547 142.415 40.8807C142.156 41.0066 141.862 41.0696 141.532 41.0696Z" fill="#878787"/>
<path d="M68.6903 57.8409V51.0909H69.419V51.8707H69.5085C69.5639 51.7855 69.6406 51.6768 69.7386 51.5447C69.8388 51.4105 69.9815 51.2912 70.1669 51.1868C70.3544 51.0803 70.608 51.027 70.9276 51.027C71.3409 51.027 71.7053 51.1303 72.0206 51.337C72.3359 51.5437 72.582 51.8366 72.7589 52.2159C72.9357 52.5952 73.0241 53.0426 73.0241 53.5582C73.0241 54.0781 72.9357 54.5288 72.7589 54.9102C72.582 55.2894 72.337 55.5835 72.0238 55.7923C71.7106 55.9989 71.3494 56.1023 70.9403 56.1023C70.625 56.1023 70.3725 56.0501 70.1829 55.9457C69.9933 55.8391 69.8473 55.7187 69.745 55.5845C69.6428 55.4482 69.5639 55.3352 69.5085 55.2457H69.4446V57.8409H68.6903ZM69.4318 53.5455C69.4318 53.9162 69.4862 54.2433 69.5948 54.5266C69.7035 54.8079 69.8622 55.0284 70.071 55.1882C70.2798 55.3459 70.5355 55.4247 70.8381 55.4247C71.1534 55.4247 71.4165 55.3416 71.6275 55.1754C71.8406 55.0071 72.0004 54.7812 72.1069 54.4979C72.2156 54.2124 72.2699 53.8949 72.2699 53.5455C72.2699 53.2003 72.2166 52.8892 72.1101 52.6122C72.0057 52.3331 71.8469 52.1126 71.6339 51.9506C71.4229 51.7866 71.1577 51.7045 70.8381 51.7045C70.5313 51.7045 70.2734 51.7823 70.0646 51.9379C69.8558 52.0913 69.6982 52.3065 69.5916 52.5835C69.4851 52.8583 69.4318 53.179 69.4318 53.5455ZM74.1747 56V51.0909H74.9034V51.8324H74.9545C75.044 51.5895 75.206 51.3924 75.4403 51.2411C75.6747 51.0898 75.9389 51.0142 76.233 51.0142C76.2884 51.0142 76.3576 51.0153 76.4407 51.0174C76.5238 51.0195 76.5866 51.0227 76.6293 51.027V51.794C76.6037 51.7876 76.5451 51.7781 76.4535 51.7653C76.364 51.7504 76.2692 51.7429 76.169 51.7429C75.9304 51.7429 75.7173 51.793 75.5298 51.8931C75.3445 51.9911 75.1974 52.1275 75.0888 52.3022C74.9822 52.4748 74.929 52.6719 74.929 52.8935V56H74.1747ZM77.5233 56V51.0909H78.2776V56H77.5233ZM77.9069 50.2727C77.7599 50.2727 77.6331 50.2227 77.5265 50.1225C77.4221 50.0224 77.3699 49.902 77.3699 49.7614C77.3699 49.6207 77.4221 49.5004 77.5265 49.4002C77.6331 49.3001 77.7599 49.25 77.9069 49.25C78.0539 49.25 78.1796 49.3001 78.284 49.4002C78.3905 49.5004 78.4438 49.6207 78.4438 49.7614C78.4438 49.902 78.3905 50.0224 78.284 50.1225C78.1796 50.2227 78.0539 50.2727 77.9069 50.2727ZM80.4134 53.0469V56H79.6591V51.0909H80.3878V51.858H80.4517C80.5668 51.6087 80.7415 51.4084 80.9759 51.2571C81.2102 51.1037 81.5128 51.027 81.8835 51.027C82.2159 51.027 82.5067 51.0952 82.756 51.2315C83.0053 51.3658 83.1992 51.5703 83.3377 51.8452C83.4762 52.1179 83.5455 52.4631 83.5455 52.8807V56H82.7912V52.9318C82.7912 52.5462 82.6911 52.2457 82.4908 52.0305C82.2905 51.8132 82.0156 51.7045 81.6662 51.7045C81.4254 51.7045 81.2102 51.7567 81.0206 51.8612C80.8331 51.9656 80.685 52.1179 80.5763 52.3182C80.4677 52.5185 80.4134 52.7614 80.4134 53.0469ZM87.0587 51.0909V51.7301H84.5146V51.0909H87.0587ZM85.2561 49.9148H86.0104V54.5938C86.0104 54.8068 86.0413 54.9666 86.1031 55.0732C86.167 55.1776 86.248 55.2479 86.346 55.2841C86.4461 55.3182 86.5516 55.3352 86.6624 55.3352C86.7455 55.3352 86.8137 55.331 86.8669 55.3224C86.9202 55.3118 86.9628 55.3033 86.9948 55.2969L87.1482 55.9744C87.097 55.9936 87.0257 56.0128 86.934 56.032C86.8424 56.0533 86.7263 56.0639 86.5857 56.0639C86.3726 56.0639 86.1638 56.0181 85.9593 55.9265C85.7568 55.8349 85.5885 55.6953 85.4543 55.5078C85.3222 55.3203 85.2561 55.0838 85.2561 54.7983V49.9148ZM88.4617 53.2386C88.4617 52.4332 88.5661 51.6928 88.7749 51.0174C88.9859 50.3398 89.2863 49.7166 89.6762 49.1477H90.341C90.1876 49.3587 90.0438 49.6186 89.9095 49.9276C89.7774 50.2344 89.6613 50.5721 89.5612 50.9407C89.461 51.3072 89.3822 51.6864 89.3247 52.0785C89.2693 52.4705 89.2416 52.8572 89.2416 53.2386C89.2416 53.7457 89.2906 54.2603 89.3886 54.7823C89.4866 55.3043 89.6187 55.7891 89.7849 56.2365C89.9511 56.6839 90.1365 57.0483 90.341 57.3295H89.6762C89.2863 56.7607 88.9859 56.1385 88.7749 55.4631C88.5661 54.7855 88.4617 54.044 88.4617 53.2386ZM93.4867 56.0895C93.1117 56.0895 92.774 56.0149 92.4735 55.8658C92.1731 55.7166 91.9324 55.5121 91.7512 55.2521C91.5701 54.9922 91.4711 54.696 91.454 54.3636H92.2211C92.2509 54.6598 92.3851 54.9048 92.6238 55.0987C92.8645 55.2905 93.1522 55.3864 93.4867 55.3864C93.7551 55.3864 93.9938 55.3235 94.2026 55.1978C94.4135 55.0721 94.5787 54.8995 94.698 54.68C94.8194 54.4585 94.8801 54.2081 94.8801 53.929C94.8801 53.6435 94.8173 53.3888 94.6916 53.1651C94.568 52.9393 94.3975 52.7614 94.1802 52.6314C93.9629 52.5014 93.7147 52.4354 93.4355 52.4332C93.2353 52.4311 93.0297 52.462 92.8187 52.5259C92.6078 52.5877 92.4341 52.6676 92.2978 52.7656L91.5563 52.6761L91.9526 49.4545H95.3532V50.1577H92.6174L92.3873 52.0881H92.4256C92.5598 51.9815 92.7282 51.8931 92.9306 51.8228C93.133 51.7525 93.3439 51.7173 93.5634 51.7173C93.964 51.7173 94.3208 51.8132 94.6341 52.005C94.9494 52.1946 95.1966 52.4545 95.3755 52.7848C95.5566 53.1151 95.6472 53.4922 95.6472 53.9162C95.6472 54.3338 95.5534 54.7067 95.3659 55.0348C95.1806 55.3608 94.9249 55.6186 94.5989 55.8082C94.2729 55.9957 93.9022 56.0895 93.4867 56.0895ZM98.1824 54.5682L98.2336 53.1619L97.0447 53.9162L96.7378 53.3793L97.9907 52.7273L96.7378 52.0753L97.0447 51.5384L98.2336 52.2926L98.1824 50.8864H98.7961L98.7449 52.2926L99.9339 51.5384L100.241 52.0753L98.9878 52.7273L100.241 53.3793L99.9339 53.9162L98.7449 53.1619L98.7961 54.5682H98.1824ZM101.417 56V55.4247L103.577 53.0597C103.831 52.7827 104.04 52.5419 104.204 52.3374C104.368 52.1307 104.489 51.9368 104.568 51.7557C104.649 51.5724 104.69 51.3807 104.69 51.1804C104.69 50.9503 104.634 50.7511 104.523 50.5827C104.415 50.4144 104.266 50.2844 104.076 50.1928C103.886 50.1012 103.673 50.0554 103.437 50.0554C103.185 50.0554 102.966 50.1076 102.778 50.212C102.593 50.3143 102.449 50.4581 102.347 50.6435C102.247 50.8288 102.197 51.0462 102.197 51.2955H101.442C101.442 50.9119 101.531 50.5753 101.708 50.2855C101.884 49.9957 102.125 49.7699 102.43 49.608C102.737 49.446 103.081 49.3651 103.462 49.3651C103.846 49.3651 104.186 49.446 104.482 49.608C104.778 49.7699 105.01 49.9883 105.179 50.2631C105.347 50.538 105.431 50.8438 105.431 51.1804C105.431 51.4212 105.387 51.6566 105.3 51.8867C105.215 52.1147 105.066 52.3693 104.853 52.6506C104.642 52.9297 104.349 53.2706 103.974 53.6733L102.503 55.2457V55.2969H105.546V56H101.417ZM108.49 53.2386C108.49 54.044 108.384 54.7855 108.173 55.4631C107.964 56.1385 107.665 56.7607 107.275 57.3295H106.61C106.764 57.1186 106.907 56.8587 107.039 56.5497C107.173 56.2429 107.29 55.9062 107.39 55.5398C107.49 55.1712 107.568 54.7908 107.623 54.3988C107.681 54.0046 107.71 53.6179 107.71 53.2386C107.71 52.7315 107.661 52.217 107.563 51.695C107.465 51.1729 107.333 50.6882 107.166 50.2408C107 49.7933 106.815 49.429 106.61 49.1477H107.275C107.665 49.7166 107.964 50.3398 108.173 51.0174C108.384 51.6928 108.49 52.4332 108.49 53.2386Z" fill="white"/>
<path d="M115.888 54.2102L112.686 55.8409V55.2045L115.142 54.0213L115.123 54.0611V53.9616L115.142 54.0014L112.686 52.8182V52.1818L115.888 53.8125V54.2102ZM120.502 54.2102L117.301 55.8409V55.2045L119.757 54.0213L119.737 54.0611V53.9616L119.757 54.0014L117.301 52.8182V52.1818L120.502 53.8125V54.2102ZM128.148 50.218H128.729V53.445H128.148V50.218ZM126.146 50.526H126.776C126.776 52.122 125.677 53.144 123.829 53.592L123.626 53.116C125.264 52.738 126.146 51.905 126.146 50.813V50.526ZM123.955 50.526H126.412V51.002H123.955V50.526ZM126.552 51.128H128.246V51.59H126.552V51.128ZM126.496 52.339H128.211V52.794H126.496V52.339ZM124.655 53.739H128.729V55.293H125.25V56.301H124.676V54.845H128.155V54.208H124.655V53.739ZM124.676 56.021H128.939V56.483H124.676V56.021ZM130.247 50.911H133.11V51.38H130.247V50.911ZM131.234 52.717H131.808V54.859H131.234V52.717ZM132.872 50.911H133.439V51.247C133.439 51.765 133.439 52.591 133.257 53.767L132.683 53.711C132.872 52.57 132.872 51.758 132.872 51.247V50.911ZM134.237 50.218H134.811V56.546H134.237V50.218ZM134.657 52.864H135.826V53.354H134.657V52.864ZM129.967 55.167L129.897 54.677C131.045 54.677 132.571 54.656 133.852 54.495L133.88 54.922C132.571 55.132 131.087 55.16 129.967 55.167ZM137.021 55.3487C136.898 55.3487 136.793 55.3048 136.705 55.217C136.618 55.1291 136.574 55.0239 136.574 54.9013C136.574 54.7786 136.618 54.6734 136.705 54.5856C136.793 54.4978 136.898 54.4538 137.021 54.4538C137.144 54.4538 137.249 54.4978 137.337 54.5856C137.425 54.6734 137.469 54.7786 137.469 54.9013C137.469 54.9825 137.448 55.0571 137.406 55.125C137.367 55.1929 137.313 55.2476 137.245 55.2891C137.179 55.3288 137.104 55.3487 137.021 55.3487ZM137.021 52.7734C136.898 52.7734 136.793 52.7295 136.705 52.6417C136.618 52.5539 136.574 52.4486 136.574 52.326C136.574 52.2034 136.618 52.0981 136.705 52.0103C136.793 51.9225 136.898 51.8786 137.021 51.8786C137.144 51.8786 137.249 51.9225 137.337 52.0103C137.425 52.0981 137.469 52.2034 137.469 52.326C137.469 52.4072 137.448 52.4818 137.406 52.5497C137.367 52.6177 137.313 52.6723 137.245 52.7138C137.179 52.7536 137.104 52.7734 137.021 52.7734ZM142.27 50.9091V56H141.653V51.5554H141.624L140.381 52.3807V51.7543L141.653 50.9091H142.27ZM145.395 56.0696C145.02 56.0696 144.701 55.9677 144.438 55.7638C144.174 55.5584 143.973 55.2609 143.833 54.8714C143.694 54.4804 143.625 54.008 143.625 53.4545C143.625 52.9044 143.694 52.4345 143.833 52.0451C143.974 51.654 144.176 51.3557 144.44 51.1502C144.705 50.9431 145.023 50.8395 145.395 50.8395C145.766 50.8395 146.083 50.9431 146.347 51.1502C146.612 51.3557 146.814 51.654 146.953 52.0451C147.094 52.4345 147.164 52.9044 147.164 53.4545C147.164 54.008 147.095 54.4804 146.956 54.8714C146.816 55.2609 146.615 55.5584 146.352 55.7638C146.088 55.9677 145.769 56.0696 145.395 56.0696ZM145.395 55.5227C145.766 55.5227 146.054 55.3437 146.26 54.9858C146.465 54.6278 146.568 54.1174 146.568 53.4545C146.568 53.0137 146.521 52.6384 146.426 52.3285C146.333 52.0186 146.199 51.7824 146.023 51.62C145.849 51.4576 145.64 51.3764 145.395 51.3764C145.027 51.3764 144.739 51.5579 144.532 51.9208C144.325 52.2821 144.221 52.7933 144.221 53.4545C144.221 53.8954 144.268 54.2699 144.36 54.5781C144.453 54.8864 144.587 55.1209 144.761 55.2816C144.936 55.4424 145.148 55.5227 145.395 55.5227Z" fill="#878787"/>
<path d="M68.6903 72.8409V66.0909H69.419V66.8707H69.5085C69.5639 66.7855 69.6406 66.6768 69.7386 66.5447C69.8388 66.4105 69.9815 66.2912 70.1669 66.1868C70.3544 66.0803 70.608 66.027 70.9276 66.027C71.3409 66.027 71.7053 66.1303 72.0206 66.337C72.3359 66.5437 72.582 66.8366 72.7589 67.2159C72.9357 67.5952 73.0241 68.0426 73.0241 68.5582C73.0241 69.0781 72.9357 69.5288 72.7589 69.9102C72.582 70.2894 72.337 70.5835 72.0238 70.7923C71.7106 70.9989 71.3494 71.1023 70.9403 71.1023C70.625 71.1023 70.3725 71.0501 70.1829 70.9457C69.9933 70.8391 69.8473 70.7187 69.745 70.5845C69.6428 70.4482 69.5639 70.3352 69.5085 70.2457H69.4446V72.8409H68.6903ZM69.4318 68.5455C69.4318 68.9162 69.4862 69.2433 69.5948 69.5266C69.7035 69.8079 69.8622 70.0284 70.071 70.1882C70.2798 70.3459 70.5355 70.4247 70.8381 70.4247C71.1534 70.4247 71.4165 70.3416 71.6275 70.1754C71.8406 70.0071 72.0004 69.7812 72.1069 69.4979C72.2156 69.2124 72.2699 68.8949 72.2699 68.5455C72.2699 68.2003 72.2166 67.8892 72.1101 67.6122C72.0057 67.3331 71.8469 67.1126 71.6339 66.9506C71.4229 66.7866 71.1577 66.7045 70.8381 66.7045C70.5313 66.7045 70.2734 66.7823 70.0646 66.9379C69.8558 67.0913 69.6982 67.3065 69.5916 67.5835C69.4851 67.8583 69.4318 68.179 69.4318 68.5455ZM74.1747 71V66.0909H74.9034V66.8324H74.9545C75.044 66.5895 75.206 66.3924 75.4403 66.2411C75.6747 66.0898 75.9389 66.0142 76.233 66.0142C76.2884 66.0142 76.3576 66.0153 76.4407 66.0174C76.5238 66.0195 76.5866 66.0227 76.6293 66.027V66.794C76.6037 66.7876 76.5451 66.7781 76.4535 66.7653C76.364 66.7504 76.2692 66.7429 76.169 66.7429C75.9304 66.7429 75.7173 66.793 75.5298 66.8931C75.3445 66.9911 75.1974 67.1275 75.0888 67.3022C74.9822 67.4748 74.929 67.6719 74.929 67.8935V71H74.1747ZM77.5233 71V66.0909H78.2776V71H77.5233ZM77.9069 65.2727C77.7599 65.2727 77.6331 65.2227 77.5265 65.1225C77.4221 65.0224 77.3699 64.902 77.3699 64.7614C77.3699 64.6207 77.4221 64.5004 77.5265 64.4002C77.6331 64.3001 77.7599 64.25 77.9069 64.25C78.0539 64.25 78.1796 64.3001 78.284 64.4002C78.3905 64.5004 78.4438 64.6207 78.4438 64.7614C78.4438 64.902 78.3905 65.0224 78.284 65.1225C78.1796 65.2227 78.0539 65.2727 77.9069 65.2727ZM80.4134 68.0469V71H79.6591V66.0909H80.3878V66.858H80.4517C80.5668 66.6087 80.7415 66.4084 80.9759 66.2571C81.2102 66.1037 81.5128 66.027 81.8835 66.027C82.2159 66.027 82.5067 66.0952 82.756 66.2315C83.0053 66.3658 83.1992 66.5703 83.3377 66.8452C83.4762 67.1179 83.5455 67.4631 83.5455 67.8807V71H82.7912V67.9318C82.7912 67.5462 82.6911 67.2457 82.4908 67.0305C82.2905 66.8132 82.0156 66.7045 81.6662 66.7045C81.4254 66.7045 81.2102 66.7567 81.0206 66.8612C80.8331 66.9656 80.685 67.1179 80.5763 67.3182C80.4677 67.5185 80.4134 67.7614 80.4134 68.0469ZM87.0587 66.0909V66.7301H84.5146V66.0909H87.0587ZM85.2561 64.9148H86.0104V69.5938C86.0104 69.8068 86.0413 69.9666 86.1031 70.0732C86.167 70.1776 86.248 70.2479 86.346 70.2841C86.4461 70.3182 86.5516 70.3352 86.6624 70.3352C86.7455 70.3352 86.8137 70.331 86.8669 70.3224C86.9202 70.3118 86.9628 70.3033 86.9948 70.2969L87.1482 70.9744C87.097 70.9936 87.0257 71.0128 86.934 71.032C86.8424 71.0533 86.7263 71.0639 86.5857 71.0639C86.3726 71.0639 86.1638 71.0181 85.9593 70.9265C85.7568 70.8349 85.5885 70.6953 85.4543 70.5078C85.3222 70.3203 85.2561 70.0838 85.2561 69.7983V64.9148ZM88.4617 68.2386C88.4617 67.4332 88.5661 66.6928 88.7749 66.0174C88.9859 65.3398 89.2863 64.7166 89.6762 64.1477H90.341C90.1876 64.3587 90.0438 64.6186 89.9095 64.9276C89.7774 65.2344 89.6613 65.5721 89.5612 65.9407C89.461 66.3072 89.3822 66.6864 89.3247 67.0785C89.2693 67.4705 89.2416 67.8572 89.2416 68.2386C89.2416 68.7457 89.2906 69.2603 89.3886 69.7823C89.4866 70.3043 89.6187 70.7891 89.7849 71.2365C89.9511 71.6839 90.1365 72.0483 90.341 72.3295H89.6762C89.2863 71.7607 88.9859 71.1385 88.7749 70.4631C88.5661 69.7855 88.4617 69.044 88.4617 68.2386ZM93.4867 71.0895C93.1117 71.0895 92.774 71.0149 92.4735 70.8658C92.1731 70.7166 91.9324 70.5121 91.7512 70.2521C91.5701 69.9922 91.4711 69.696 91.454 69.3636H92.2211C92.2509 69.6598 92.3851 69.9048 92.6238 70.0987C92.8645 70.2905 93.1522 70.3864 93.4867 70.3864C93.7551 70.3864 93.9938 70.3235 94.2026 70.1978C94.4135 70.0721 94.5787 69.8995 94.698 69.68C94.8194 69.4585 94.8801 69.2081 94.8801 68.929C94.8801 68.6435 94.8173 68.3888 94.6916 68.1651C94.568 67.9393 94.3975 67.7614 94.1802 67.6314C93.9629 67.5014 93.7147 67.4354 93.4355 67.4332C93.2353 67.4311 93.0297 67.462 92.8187 67.5259C92.6078 67.5877 92.4341 67.6676 92.2978 67.7656L91.5563 67.6761L91.9526 64.4545H95.3532V65.1577H92.6174L92.3873 67.0881H92.4256C92.5598 66.9815 92.7282 66.8931 92.9306 66.8228C93.133 66.7525 93.3439 66.7173 93.5634 66.7173C93.964 66.7173 94.3208 66.8132 94.6341 67.005C94.9494 67.1946 95.1966 67.4545 95.3755 67.7848C95.5566 68.1151 95.6472 68.4922 95.6472 68.9162C95.6472 69.3338 95.5534 69.7067 95.3659 70.0348C95.1806 70.3608 94.9249 70.6186 94.5989 70.8082C94.2729 70.9957 93.9022 71.0895 93.4867 71.0895ZM99.2435 64.1477L97.1341 71.9844H96.4438L98.5532 64.1477H99.2435ZM100.125 71V70.4247L102.285 68.0597C102.539 67.7827 102.748 67.5419 102.912 67.3374C103.076 67.1307 103.197 66.9368 103.276 66.7557C103.357 66.5724 103.398 66.3807 103.398 66.1804C103.398 65.9503 103.342 65.7511 103.231 65.5827C103.123 65.4144 102.974 65.2844 102.784 65.1928C102.594 65.1012 102.381 65.0554 102.145 65.0554C101.893 65.0554 101.674 65.1076 101.486 65.212C101.301 65.3143 101.157 65.4581 101.055 65.6435C100.955 65.8288 100.905 66.0462 100.905 66.2955H100.15C100.15 65.9119 100.239 65.5753 100.416 65.2855C100.593 64.9957 100.833 64.7699 101.138 64.608C101.445 64.446 101.789 64.3651 102.17 64.3651C102.554 64.3651 102.894 64.446 103.19 64.608C103.486 64.7699 103.718 64.9883 103.887 65.2631C104.055 65.538 104.139 65.8438 104.139 66.1804C104.139 66.4212 104.095 66.6566 104.008 66.8867C103.923 67.1147 103.774 67.3693 103.561 67.6506C103.35 67.9297 103.057 68.2706 102.682 68.6733L101.211 70.2457V70.2969H104.254V71H100.125ZM107.198 68.2386C107.198 69.044 107.092 69.7855 106.881 70.4631C106.672 71.1385 106.373 71.7607 105.983 72.3295H105.318C105.472 72.1186 105.615 71.8587 105.747 71.5497C105.881 71.2429 105.998 70.9062 106.098 70.5398C106.198 70.1712 106.276 69.7908 106.331 69.3988C106.389 69.0046 106.418 68.6179 106.418 68.2386C106.418 67.7315 106.369 67.217 106.271 66.695C106.173 66.1729 106.041 65.6882 105.874 65.2408C105.708 64.7933 105.523 64.429 105.318 64.1477H105.983C106.373 64.7166 106.672 65.3398 106.881 66.0174C107.092 66.6928 107.198 67.4332 107.198 68.2386Z" fill="white"/>
<path d="M114.596 69.2102L111.394 70.8409V70.2045L113.85 69.0213L113.831 69.0611V68.9616L113.85 69.0014L111.394 67.8182V67.1818L114.596 68.8125V69.2102ZM119.21 69.2102L116.009 70.8409V70.2045L118.465 69.0213L118.445 69.0611V68.9616L118.465 69.0014L116.009 67.8182V67.1818L119.21 68.8125V69.2102ZM126.856 65.218H127.437V68.445H126.856V65.218ZM124.854 65.526H125.484C125.484 67.122 124.385 68.144 122.537 68.592L122.334 68.116C123.972 67.738 124.854 66.905 124.854 65.813V65.526ZM122.663 65.526H125.12V66.002H122.663V65.526ZM125.26 66.128H126.954V66.59H125.26V66.128ZM125.204 67.339H126.919V67.794H125.204V67.339ZM123.363 68.739H127.437V70.293H123.958V71.301H123.384V69.845H126.863V69.208H123.363V68.739ZM123.384 71.021H127.647V71.483H123.384V71.021ZM128.955 65.911H131.818V66.38H128.955V65.911ZM129.942 67.717H130.516V69.859H129.942V67.717ZM131.58 65.911H132.147V66.247C132.147 66.765 132.147 67.591 131.965 68.767L131.391 68.711C131.58 67.57 131.58 66.758 131.58 66.247V65.911ZM132.945 65.218H133.519V71.546H132.945V65.218ZM133.365 67.864H134.534V68.354H133.365V67.864ZM128.675 70.167L128.605 69.677C129.753 69.677 131.279 69.656 132.56 69.495L132.588 69.922C131.279 70.132 129.795 70.16 128.675 70.167ZM135.729 70.3487C135.607 70.3487 135.501 70.3048 135.413 70.217C135.326 70.1291 135.282 70.0239 135.282 69.9013C135.282 69.7786 135.326 69.6734 135.413 69.5856C135.501 69.4978 135.607 69.4538 135.729 69.4538C135.852 69.4538 135.957 69.4978 136.045 69.5856C136.133 69.6734 136.177 69.7786 136.177 69.9013C136.177 69.9825 136.156 70.0571 136.114 70.125C136.075 70.1929 136.021 70.2476 135.953 70.2891C135.887 70.3288 135.812 70.3487 135.729 70.3487ZM135.729 67.7734C135.607 67.7734 135.501 67.7295 135.413 67.6417C135.326 67.5539 135.282 67.4486 135.282 67.326C135.282 67.2034 135.326 67.0981 135.413 67.0103C135.501 66.9225 135.607 66.8786 135.729 66.8786C135.852 66.8786 135.957 66.9225 136.045 67.0103C136.133 67.0981 136.177 67.2034 136.177 67.326C136.177 67.4072 136.156 67.4818 136.114 67.5497C136.075 67.6177 136.021 67.6723 135.953 67.7138C135.887 67.7536 135.812 67.7734 135.729 67.7734ZM139.188 71V70.5526L140.869 68.7131C141.066 68.4976 141.228 68.3104 141.356 68.1513C141.483 67.9905 141.578 67.8397 141.639 67.6989C141.702 67.5563 141.734 67.4072 141.734 67.2514C141.734 67.0724 141.69 66.9175 141.604 66.7866C141.52 66.6557 141.404 66.5546 141.256 66.4833C141.109 66.4121 140.943 66.3764 140.759 66.3764C140.564 66.3764 140.393 66.417 140.247 66.4982C140.103 66.5778 139.991 66.6896 139.911 66.8338C139.834 66.978 139.795 67.147 139.795 67.3409H139.208C139.208 67.0426 139.277 66.7808 139.414 66.5554C139.552 66.33 139.739 66.1544 139.976 66.0284C140.215 65.9025 140.482 65.8395 140.779 65.8395C141.077 65.8395 141.342 65.9025 141.572 66.0284C141.802 66.1544 141.983 66.3242 142.114 66.538C142.245 66.7518 142.31 66.9896 142.31 67.2514C142.31 67.4387 142.276 67.6218 142.208 67.8008C142.142 67.9781 142.026 68.1761 141.86 68.3949C141.696 68.612 141.468 68.8771 141.177 69.1903L140.033 70.4134V70.4531H142.4V71H139.188ZM143.864 71.0398C143.741 71.0398 143.636 70.9959 143.548 70.908C143.46 70.8202 143.416 70.715 143.416 70.5923C143.416 70.4697 143.46 70.3645 143.548 70.2766C143.636 70.1888 143.741 70.1449 143.864 70.1449C143.987 70.1449 144.092 70.1888 144.18 70.2766C144.267 70.3645 144.311 70.4697 144.311 70.5923C144.311 70.6735 144.291 70.7481 144.249 70.8161C144.209 70.884 144.156 70.9387 144.088 70.9801C144.021 71.0199 143.947 71.0398 143.864 71.0398ZM146.843 71.0696C146.551 71.0696 146.288 71.0116 146.055 70.8956C145.821 70.7796 145.634 70.6205 145.493 70.4183C145.352 70.2161 145.275 69.9858 145.262 69.7273H145.858C145.881 69.9576 145.986 70.1482 146.171 70.299C146.359 70.4482 146.582 70.5227 146.843 70.5227C147.051 70.5227 147.237 70.4738 147.399 70.3761C147.563 70.2783 147.692 70.1441 147.785 69.9734C147.879 69.801 147.926 69.6063 147.926 69.3892C147.926 69.1671 147.877 68.9691 147.78 68.7951C147.684 68.6194 147.551 68.4811 147.382 68.38C147.213 68.2789 147.02 68.2275 146.803 68.2259C146.647 68.2242 146.487 68.2482 146.323 68.2979C146.159 68.346 146.024 68.4081 145.918 68.4844L145.341 68.4148L145.649 65.9091H148.294V66.456H146.166L145.987 67.9574H146.017C146.122 67.8745 146.253 67.8058 146.41 67.7511C146.567 67.6964 146.731 67.669 146.902 67.669C147.214 67.669 147.491 67.7436 147.735 67.8928C147.98 68.0402 148.172 68.2424 148.312 68.4993C148.452 68.7562 148.523 69.0495 148.523 69.3793C148.523 69.7041 148.45 69.9941 148.304 70.2493C148.16 70.5028 147.961 70.7034 147.708 70.8509C147.454 70.9967 147.166 71.0696 146.843 71.0696Z" fill="#878787"/>
<path d="M68.6903 87.8409V81.0909H69.419V81.8707H69.5085C69.5639 81.7855 69.6406 81.6768 69.7386 81.5447C69.8388 81.4105 69.9815 81.2912 70.1669 81.1868C70.3544 81.0803 70.608 81.027 70.9276 81.027C71.3409 81.027 71.7053 81.1303 72.0206 81.337C72.3359 81.5437 72.582 81.8366 72.7589 82.2159C72.9357 82.5952 73.0241 83.0426 73.0241 83.5582C73.0241 84.0781 72.9357 84.5288 72.7589 84.9102C72.582 85.2894 72.337 85.5835 72.0238 85.7923C71.7106 85.9989 71.3494 86.1023 70.9403 86.1023C70.625 86.1023 70.3725 86.0501 70.1829 85.9457C69.9933 85.8391 69.8473 85.7187 69.745 85.5845C69.6428 85.4482 69.5639 85.3352 69.5085 85.2457H69.4446V87.8409H68.6903ZM69.4318 83.5455C69.4318 83.9162 69.4862 84.2433 69.5948 84.5266C69.7035 84.8079 69.8622 85.0284 70.071 85.1882C70.2798 85.3459 70.5355 85.4247 70.8381 85.4247C71.1534 85.4247 71.4165 85.3416 71.6275 85.1754C71.8406 85.0071 72.0004 84.7812 72.1069 84.4979C72.2156 84.2124 72.2699 83.8949 72.2699 83.5455C72.2699 83.2003 72.2166 82.8892 72.1101 82.6122C72.0057 82.3331 71.8469 82.1126 71.6339 81.9506C71.4229 81.7866 71.1577 81.7045 70.8381 81.7045C70.5313 81.7045 70.2734 81.7823 70.0646 81.9379C69.8558 82.0913 69.6982 82.3065 69.5916 82.5835C69.4851 82.8583 69.4318 83.179 69.4318 83.5455ZM74.1747 86V81.0909H74.9034V81.8324H74.9545C75.044 81.5895 75.206 81.3924 75.4403 81.2411C75.6747 81.0898 75.9389 81.0142 76.233 81.0142C76.2884 81.0142 76.3576 81.0153 76.4407 81.0174C76.5238 81.0195 76.5866 81.0227 76.6293 81.027V81.794C76.6037 81.7876 76.5451 81.7781 76.4535 81.7653C76.364 81.7504 76.2692 81.7429 76.169 81.7429C75.9304 81.7429 75.7173 81.793 75.5298 81.8931C75.3445 81.9911 75.1974 82.1275 75.0888 82.3022C74.9822 82.4748 74.929 82.6719 74.929 82.8935V86H74.1747ZM77.5233 86V81.0909H78.2776V86H77.5233ZM77.9069 80.2727C77.7599 80.2727 77.6331 80.2227 77.5265 80.1225C77.4221 80.0224 77.3699 79.902 77.3699 79.7614C77.3699 79.6207 77.4221 79.5004 77.5265 79.4002C77.6331 79.3001 77.7599 79.25 77.9069 79.25C78.0539 79.25 78.1796 79.3001 78.284 79.4002C78.3905 79.5004 78.4438 79.6207 78.4438 79.7614C78.4438 79.902 78.3905 80.0224 78.284 80.1225C78.1796 80.2227 78.0539 80.2727 77.9069 80.2727ZM80.4134 83.0469V86H79.6591V81.0909H80.3878V81.858H80.4517C80.5668 81.6087 80.7415 81.4084 80.9759 81.2571C81.2102 81.1037 81.5128 81.027 81.8835 81.027C82.2159 81.027 82.5067 81.0952 82.756 81.2315C83.0053 81.3658 83.1992 81.5703 83.3377 81.8452C83.4762 82.1179 83.5455 82.4631 83.5455 82.8807V86H82.7912V82.9318C82.7912 82.5462 82.6911 82.2457 82.4908 82.0305C82.2905 81.8132 82.0156 81.7045 81.6662 81.7045C81.4254 81.7045 81.2102 81.7567 81.0206 81.8612C80.8331 81.9656 80.685 82.1179 80.5763 82.3182C80.4677 82.5185 80.4134 82.7614 80.4134 83.0469ZM87.0587 81.0909V81.7301H84.5146V81.0909H87.0587ZM85.2561 79.9148H86.0104V84.5938C86.0104 84.8068 86.0413 84.9666 86.1031 85.0732C86.167 85.1776 86.248 85.2479 86.346 85.2841C86.4461 85.3182 86.5516 85.3352 86.6624 85.3352C86.7455 85.3352 86.8137 85.331 86.8669 85.3224C86.9202 85.3118 86.9628 85.3033 86.9948 85.2969L87.1482 85.9744C87.097 85.9936 87.0257 86.0128 86.934 86.032C86.8424 86.0533 86.7263 86.0639 86.5857 86.0639C86.3726 86.0639 86.1638 86.0181 85.9593 85.9265C85.7568 85.8349 85.5885 85.6953 85.4543 85.5078C85.3222 85.3203 85.2561 85.0838 85.2561 84.7983V79.9148ZM88.4617 83.2386C88.4617 82.4332 88.5661 81.6928 88.7749 81.0174C88.9859 80.3398 89.2863 79.7166 89.6762 79.1477H90.341C90.1876 79.3587 90.0438 79.6186 89.9095 79.9276C89.7774 80.2344 89.6613 80.5721 89.5612 80.9407C89.461 81.3072 89.3822 81.6864 89.3247 82.0785C89.2693 82.4705 89.2416 82.8572 89.2416 83.2386C89.2416 83.7457 89.2906 84.2603 89.3886 84.7823C89.4866 85.3043 89.6187 85.7891 89.7849 86.2365C89.9511 86.6839 90.1365 87.0483 90.341 87.3295H89.6762C89.2863 86.7607 88.9859 86.1385 88.7749 85.4631C88.5661 84.7855 88.4617 84.044 88.4617 83.2386ZM93.4867 86.0895C93.1117 86.0895 92.774 86.0149 92.4735 85.8658C92.1731 85.7166 91.9324 85.5121 91.7512 85.2521C91.5701 84.9922 91.4711 84.696 91.454 84.3636H92.2211C92.2509 84.6598 92.3851 84.9048 92.6238 85.0987C92.8645 85.2905 93.1522 85.3864 93.4867 85.3864C93.7551 85.3864 93.9938 85.3235 94.2026 85.1978C94.4135 85.0721 94.5787 84.8995 94.698 84.68C94.8194 84.4585 94.8801 84.2081 94.8801 83.929C94.8801 83.6435 94.8173 83.3888 94.6916 83.1651C94.568 82.9393 94.3975 82.7614 94.1802 82.6314C93.9629 82.5014 93.7147 82.4354 93.4355 82.4332C93.2353 82.4311 93.0297 82.462 92.8187 82.5259C92.6078 82.5877 92.4341 82.6676 92.2978 82.7656L91.5563 82.6761L91.9526 79.4545H95.3532V80.1577H92.6174L92.3873 82.0881H92.4256C92.5598 81.9815 92.7282 81.8931 92.9306 81.8228C93.133 81.7525 93.3439 81.7173 93.5634 81.7173C93.964 81.7173 94.3208 81.8132 94.6341 82.005C94.9494 82.1946 95.1966 82.4545 95.3755 82.7848C95.5566 83.1151 95.6472 83.4922 95.6472 83.9162C95.6472 84.3338 95.5534 84.7067 95.3659 85.0348C95.1806 85.3608 94.9249 85.6186 94.5989 85.8082C94.2729 85.9957 93.9022 86.0895 93.4867 86.0895ZM100.253 84.7727V84.4276C100.253 84.1889 100.302 83.9705 100.4 83.7724C100.501 83.5721 100.646 83.4123 100.835 83.293C101.027 83.1715 101.259 83.1108 101.532 83.1108C101.809 83.1108 102.041 83.1715 102.229 83.293C102.416 83.4123 102.558 83.5721 102.654 83.7724C102.75 83.9705 102.797 84.1889 102.797 84.4276V84.7727C102.797 85.0114 102.748 85.2308 102.65 85.4311C102.555 85.6293 102.412 85.7891 102.222 85.9105C102.035 86.0298 101.805 86.0895 101.532 86.0895C101.255 86.0895 101.022 86.0298 100.832 85.9105C100.642 85.7891 100.498 85.6293 100.4 85.4311C100.302 85.2308 100.253 85.0114 100.253 84.7727ZM100.905 84.4276V84.7727C100.905 84.9709 100.952 85.1488 101.046 85.3065C101.14 85.462 101.302 85.5398 101.532 85.5398C101.756 85.5398 101.913 85.462 102.005 85.3065C102.099 85.1488 102.146 84.9709 102.146 84.7727V84.4276C102.146 84.2294 102.101 84.0526 102.011 83.897C101.922 83.7393 101.762 83.6605 101.532 83.6605C101.308 83.6605 101.147 83.7393 101.049 83.897C100.953 84.0526 100.905 84.2294 100.905 84.4276ZM96.9935 81.027V80.6818C96.9935 80.4432 97.0425 80.2248 97.1405 80.0266C97.2407 79.8263 97.3856 79.6665 97.5752 79.5472C97.767 79.4258 97.9992 79.3651 98.2719 79.3651C98.5489 79.3651 98.7812 79.4258 98.9687 79.5472C99.1562 79.6665 99.2979 79.8263 99.3937 80.0266C99.4896 80.2248 99.5376 80.4432 99.5376 80.6818V81.027C99.5376 81.2656 99.4885 81.4851 99.3905 81.6854C99.2947 81.8835 99.1519 82.0433 98.9623 82.1648C98.7748 82.2841 98.5447 82.3438 98.2719 82.3438C97.9949 82.3438 97.7616 82.2841 97.572 82.1648C97.3824 82.0433 97.2385 81.8835 97.1405 81.6854C97.0425 81.4851 96.9935 81.2656 96.9935 81.027ZM97.6455 80.6818V81.027C97.6455 81.2251 97.6924 81.4031 97.7861 81.5607C97.8799 81.7163 98.0418 81.794 98.2719 81.794C98.4956 81.794 98.6533 81.7163 98.7449 81.5607C98.8387 81.4031 98.8856 81.2251 98.8856 81.027V80.6818C98.8856 80.4837 98.8408 80.3068 98.7513 80.1513C98.6618 79.9936 98.502 79.9148 98.2719 79.9148C98.0482 79.9148 97.8873 79.9936 97.7893 80.1513C97.6934 80.3068 97.6455 80.4837 97.6455 80.6818ZM97.2364 86L101.736 79.4545H102.465L97.9651 86H97.2364ZM104.229 86V85.4247L106.39 83.0597C106.643 82.7827 106.852 82.5419 107.016 82.3374C107.18 82.1307 107.302 81.9368 107.381 81.7557C107.462 81.5724 107.502 81.3807 107.502 81.1804C107.502 80.9503 107.447 80.7511 107.336 80.5827C107.227 80.4144 107.078 80.2844 106.888 80.1928C106.699 80.1012 106.486 80.0554 106.249 80.0554C105.998 80.0554 105.778 80.1076 105.591 80.212C105.405 80.3143 105.262 80.4581 105.159 80.6435C105.059 80.8288 105.009 81.0462 105.009 81.2955H104.255C104.255 80.9119 104.343 80.5753 104.52 80.2855C104.697 79.9957 104.938 79.7699 105.242 79.608C105.549 79.446 105.893 79.3651 106.275 79.3651C106.658 79.3651 106.998 79.446 107.294 79.608C107.59 79.7699 107.823 79.9883 107.991 80.2631C108.159 80.538 108.244 80.8438 108.244 81.1804C108.244 81.4212 108.2 81.6566 108.112 81.8867C108.027 82.1147 107.878 82.3693 107.665 82.6506C107.454 82.9297 107.161 83.2706 106.786 83.6733L105.316 85.2457V85.2969H108.359V86H104.229ZM111.302 83.2386C111.302 84.044 111.197 84.7855 110.986 85.4631C110.777 86.1385 110.478 86.7607 110.088 87.3295H109.423C109.576 87.1186 109.719 86.8587 109.851 86.5497C109.985 86.2429 110.103 85.9062 110.203 85.5398C110.303 85.1712 110.381 84.7908 110.436 84.3988C110.494 84.0046 110.522 83.6179 110.522 83.2386C110.522 82.7315 110.473 82.217 110.375 81.695C110.277 81.1729 110.145 80.6882 109.979 80.2408C109.813 79.7933 109.627 79.429 109.423 79.1477H110.088C110.478 79.7166 110.777 80.3398 110.986 81.0174C111.197 81.6928 111.302 82.4332 111.302 83.2386Z" fill="white"/>
<path d="M118.701 84.2102L115.499 85.8409V85.2045L117.955 84.0213L117.935 84.0611V83.9616L117.955 84.0014L115.499 82.8182V82.1818L118.701 83.8125V84.2102ZM123.315 84.2102L120.113 85.8409V85.2045L122.569 84.0213L122.549 84.0611V83.9616L122.569 84.0014L120.113 82.8182V82.1818L123.315 83.8125V84.2102ZM130.96 80.218H131.541V83.445H130.96V80.218ZM128.958 80.526H129.588C129.588 82.122 128.489 83.144 126.641 83.592L126.438 83.116C128.076 82.738 128.958 81.905 128.958 80.813V80.526ZM126.767 80.526H129.224V81.002H126.767V80.526ZM129.364 81.128H131.058V81.59H129.364V81.128ZM129.308 82.339H131.023V82.794H129.308V82.339ZM127.467 83.739H131.541V85.293H128.062V86.301H127.488V84.845H130.967V84.208H127.467V83.739ZM127.488 86.021H131.751V86.483H127.488V86.021ZM133.06 80.911H135.923V81.38H133.06V80.911ZM134.047 82.717H134.621V84.859H134.047V82.717ZM135.685 80.911H136.252V81.247C136.252 81.765 136.252 82.591 136.07 83.767L135.496 83.711C135.685 82.57 135.685 81.758 135.685 81.247V80.911ZM137.05 80.218H137.624V86.546H137.05V80.218ZM137.47 82.864H138.639V83.354H137.47V82.864ZM132.78 85.167L132.71 84.677C133.858 84.677 135.384 84.656 136.665 84.495L136.693 84.922C135.384 85.132 133.9 85.16 132.78 85.167ZM139.834 85.3487C139.711 85.3487 139.606 85.3048 139.518 85.217C139.43 85.1291 139.386 85.0239 139.386 84.9013C139.386 84.7786 139.43 84.6734 139.518 84.5856C139.606 84.4978 139.711 84.4538 139.834 84.4538C139.956 84.4538 140.061 84.4978 140.149 84.5856C140.237 84.6734 140.281 84.7786 140.281 84.9013C140.281 84.9825 140.26 85.0571 140.219 85.125C140.179 85.1929 140.125 85.2476 140.057 85.2891C139.991 85.3288 139.916 85.3487 139.834 85.3487ZM139.834 82.7734C139.711 82.7734 139.606 82.7295 139.518 82.6417C139.43 82.5539 139.386 82.4486 139.386 82.326C139.386 82.2034 139.43 82.0981 139.518 82.0103C139.606 81.9225 139.711 81.8786 139.834 81.8786C139.956 81.8786 140.061 81.9225 140.149 82.0103C140.237 82.0981 140.281 82.2034 140.281 82.326C140.281 82.4072 140.26 82.4818 140.219 82.5497C140.179 82.6177 140.125 82.6723 140.057 82.7138C139.991 82.7536 139.916 82.7734 139.834 82.7734ZM145.082 80.9091V86H144.466V81.5554H144.436L143.193 82.3807V81.7543L144.466 80.9091H145.082Z" fill="#878787"/>
<path d="M45.876 33.566H46.533V41.702H45.876V33.566ZM44.895 36.851H46.209V37.472H44.895V36.851ZM44.499 33.737H45.156V41.297H44.499V33.737ZM39.594 34.43H40.17V36.41H40.953V34.43H41.52V39.65H39.594V34.43ZM40.17 37.004V39.038H40.953V37.004H40.17ZM41.997 34.43H42.564V36.41H43.347V34.43H43.923V39.65H41.997V34.43ZM42.564 37.004V39.038H43.347V37.004H42.564ZM53.6513 33.566H54.3983V41.702H53.6513V33.566ZM51.2663 34.439H52.0043C52.0043 36.797 50.9423 38.858 48.2243 40.19L47.8283 39.587C50.1773 38.453 51.2663 36.725 51.2663 34.565V34.439ZM48.1973 34.439H51.5903V35.051H48.1973V34.439Z" fill="white"/>
<path d="M45.876 33.566H46.533V41.702H45.876V33.566ZM44.895 36.851H46.209V37.472H44.895V36.851ZM44.499 33.737H45.156V41.297H44.499V33.737ZM39.594 34.43H40.17V36.41H40.953V34.43H41.52V39.65H39.594V34.43ZM40.17 37.004V39.038H40.953V37.004H40.17ZM41.997 34.43H42.564V36.41H43.347V34.43H43.923V39.65H41.997V34.43ZM42.564 37.004V39.038H43.347V37.004H42.564ZM53.6513 33.566H54.3983V41.702H53.6513V33.566ZM51.2663 34.439H52.0043C52.0043 36.797 50.9423 38.858 48.2243 40.19L47.8283 39.587C50.1773 38.453 51.2663 36.725 51.2663 34.565V34.439ZM48.1973 34.439H51.5903V35.051H48.1973V34.439Z" fill="white"/>
<path d="M36.323 49.899H41.561V50.502H36.323V49.899ZM35.459 53.058H42.794V53.661H35.459V53.058ZM38.465 51.618H39.203V53.301H38.465V51.618ZM41.129 49.899H41.867V50.484C41.867 51.069 41.867 51.744 41.651 52.617L40.904 52.545C41.129 51.672 41.129 51.051 41.129 50.484V49.899ZM36.404 54.345H37.142V55.335H41.102V54.345H41.831V57.594H36.404V54.345ZM37.142 55.92V56.991H41.102V55.92H37.142ZM49.2373 49.566H49.9843V57.702H49.2373V49.566ZM49.8043 52.905H51.3163V53.535H49.8043V52.905ZM43.6843 50.862H48.4813V51.474H43.6843V50.862ZM46.1143 52.149C47.2663 52.149 48.0943 52.923 48.0943 54.021C48.0943 55.119 47.2663 55.893 46.1143 55.893C44.9713 55.893 44.1343 55.119 44.1343 54.021C44.1343 52.923 44.9713 52.149 46.1143 52.149ZM46.1143 52.77C45.3763 52.77 44.8453 53.283 44.8453 54.021C44.8453 54.75 45.3763 55.272 46.1143 55.272C46.8523 55.272 47.3833 54.75 47.3833 54.021C47.3833 53.283 46.8523 52.77 46.1143 52.77ZM45.7273 49.665H46.4743V51.141H45.7273V49.665ZM57.9306 49.566H58.6776V57.702H57.9306V49.566ZM55.5456 50.439H56.2836C56.2836 52.797 55.2216 54.858 52.5036 56.19L52.1076 55.587C54.4566 54.453 55.5456 52.725 55.5456 50.565V50.439ZM52.4766 50.439H55.8696V51.051H52.4766V50.439Z" fill="white"/>
<path d="M41.498 67.806H43.001V68.436H41.498V67.806ZM40.949 64.557H41.705V72.702H40.949V64.557ZM35.765 65.358H36.512V70.398H35.765V65.358ZM35.765 70.011H36.413C37.619 70.011 38.852 69.93 40.193 69.651L40.283 70.272C38.897 70.56 37.646 70.641 36.413 70.641H35.765V70.011ZM44.6743 67.293H50.2453V67.905H44.6743V67.293ZM43.7293 69.129H51.1003V69.741H43.7293V69.129ZM47.0143 69.462H47.7523V72.702H47.0143V69.462ZM44.6743 64.971H45.4213V67.599H44.6743V64.971ZM57.9306 64.566H58.6776V72.702H57.9306V64.566ZM55.5456 65.439H56.2836C56.2836 67.797 55.2216 69.858 52.5036 71.19L52.1076 70.587C54.4566 69.453 55.5456 67.725 55.5456 65.565V65.439ZM52.4766 65.439H55.8696V66.051H52.4766V65.439Z" fill="white"/>
<path d="M41.498 82.806H43.001V83.436H41.498V82.806ZM40.949 79.557H41.705V87.702H40.949V79.557ZM35.765 80.358H36.512V85.398H35.765V80.358ZM35.765 85.011H36.413C37.619 85.011 38.852 84.93 40.193 84.651L40.283 85.272C38.897 85.56 37.646 85.641 36.413 85.641H35.765V85.011ZM44.0533 80.358H47.7523V85.65H44.0533V80.358ZM47.0143 80.961H44.7823V85.047H47.0143V80.961ZM49.6873 79.557H50.4253V87.711H49.6873V79.557ZM47.6083 82.527H49.9663V83.148H47.6083V82.527ZM54.1596 80.727H54.7626V82.05C54.7626 83.769 53.7276 85.497 52.4316 86.136L51.9996 85.542C53.1786 84.984 54.1596 83.454 54.1596 82.05V80.727ZM54.3036 80.727H54.9066V82.05C54.9066 83.427 55.8876 84.831 57.0846 85.344L56.6616 85.938C55.3476 85.326 54.3036 83.742 54.3036 82.05V80.727ZM52.2696 80.394H56.8146V81.024H52.2696V80.394ZM57.9126 79.566H58.6596V87.702H57.9126V79.566Z" fill="white"/>
<path d="M14.3381 93.3864L11.9943 102.094H11.2273L13.571 93.3864H14.3381ZM17.9025 93.3864L15.5588 102.094H14.7917L17.1355 93.3864H17.9025Z" fill="white"/>
<path d="M12.1591 114.818L12.2159 113.256L10.8949 114.094L10.554 113.497L11.946 112.773L10.554 112.048L10.8949 111.452L12.2159 112.29L12.1591 110.727H12.8409L12.7841 112.29L14.1051 111.452L14.446 112.048L13.054 112.773L14.446 113.497L14.1051 114.094L12.7841 113.256L12.8409 114.818H12.1591ZM17.1591 114.818L17.2159 113.256L15.8949 114.094L15.554 113.497L16.946 112.773L15.554 112.048L15.8949 111.452L17.2159 112.29L17.1591 110.727H17.8409L17.7841 112.29L19.1051 111.452L19.446 112.048L18.054 112.773L19.446 113.497L19.1051 114.094L17.7841 113.256L17.8409 114.818H17.1591Z" fill="white"/>
<path d="M68.6903 102.841V96.0909H69.419V96.8707H69.5085C69.5639 96.7855 69.6406 96.6768 69.7386 96.5447C69.8388 96.4105 69.9815 96.2912 70.1669 96.1868C70.3544 96.0803 70.608 96.027 70.9276 96.027C71.3409 96.027 71.7053 96.1303 72.0206 96.337C72.3359 96.5437 72.582 96.8366 72.7589 97.2159C72.9357 97.5952 73.0241 98.0426 73.0241 98.5582C73.0241 99.0781 72.9357 99.5288 72.7589 99.9102C72.582 100.289 72.337 100.583 72.0238 100.792C71.7106 100.999 71.3494 101.102 70.9403 101.102C70.625 101.102 70.3725 101.05 70.1829 100.946C69.9933 100.839 69.8473 100.719 69.745 100.585C69.6428 100.448 69.5639 100.335 69.5085 100.246H69.4446V102.841H68.6903ZM69.4318 98.5455C69.4318 98.9162 69.4862 99.2433 69.5948 99.5266C69.7035 99.8079 69.8622 100.028 70.071 100.188C70.2798 100.346 70.5355 100.425 70.8381 100.425C71.1534 100.425 71.4165 100.342 71.6275 100.175C71.8406 100.007 72.0004 99.7812 72.1069 99.4979C72.2156 99.2124 72.2699 98.8949 72.2699 98.5455C72.2699 98.2003 72.2166 97.8892 72.1101 97.6122C72.0057 97.3331 71.8469 97.1126 71.6339 96.9506C71.4229 96.7866 71.1577 96.7045 70.8381 96.7045C70.5313 96.7045 70.2734 96.7823 70.0646 96.9379C69.8558 97.0913 69.6982 97.3065 69.5916 97.5835C69.4851 97.8583 69.4318 98.179 69.4318 98.5455ZM74.1747 101V96.0909H74.9034V96.8324H74.9545C75.044 96.5895 75.206 96.3924 75.4403 96.2411C75.6747 96.0898 75.9389 96.0142 76.233 96.0142C76.2884 96.0142 76.3576 96.0153 76.4407 96.0174C76.5238 96.0195 76.5866 96.0227 76.6293 96.027V96.794C76.6037 96.7876 76.5451 96.7781 76.4535 96.7653C76.364 96.7504 76.2692 96.7429 76.169 96.7429C75.9304 96.7429 75.7173 96.793 75.5298 96.8931C75.3445 96.9911 75.1974 97.1275 75.0888 97.3022C74.9822 97.4748 74.929 97.6719 74.929 97.8935V101H74.1747ZM77.5233 101V96.0909H78.2776V101H77.5233ZM77.9069 95.2727C77.7599 95.2727 77.6331 95.2227 77.5265 95.1225C77.4221 95.0224 77.3699 94.902 77.3699 94.7614C77.3699 94.6207 77.4221 94.5004 77.5265 94.4002C77.6331 94.3001 77.7599 94.25 77.9069 94.25C78.0539 94.25 78.1796 94.3001 78.284 94.4002C78.3905 94.5004 78.4438 94.6207 78.4438 94.7614C78.4438 94.902 78.3905 95.0224 78.284 95.1225C78.1796 95.2227 78.0539 95.2727 77.9069 95.2727ZM80.4134 98.0469V101H79.6591V96.0909H80.3878V96.858H80.4517C80.5668 96.6087 80.7415 96.4084 80.9759 96.2571C81.2102 96.1037 81.5128 96.027 81.8835 96.027C82.2159 96.027 82.5067 96.0952 82.756 96.2315C83.0053 96.3658 83.1992 96.5703 83.3377 96.8452C83.4762 97.1179 83.5455 97.4631 83.5455 97.8807V101H82.7912V97.9318C82.7912 97.5462 82.6911 97.2457 82.4908 97.0305C82.2905 96.8132 82.0156 96.7045 81.6662 96.7045C81.4254 96.7045 81.2102 96.7567 81.0206 96.8612C80.8331 96.9656 80.685 97.1179 80.5763 97.3182C80.4677 97.5185 80.4134 97.7614 80.4134 98.0469ZM87.0587 96.0909V96.7301H84.5146V96.0909H87.0587ZM85.2561 94.9148H86.0104V99.5938C86.0104 99.8068 86.0413 99.9666 86.1031 100.073C86.167 100.178 86.248 100.248 86.346 100.284C86.4461 100.318 86.5516 100.335 86.6624 100.335C86.7455 100.335 86.8137 100.331 86.8669 100.322C86.9202 100.312 86.9628 100.303 86.9948 100.297L87.1482 100.974C87.097 100.994 87.0257 101.013 86.934 101.032C86.8424 101.053 86.7263 101.064 86.5857 101.064C86.3726 101.064 86.1638 101.018 85.9593 100.926C85.7568 100.835 85.5885 100.695 85.4543 100.508C85.3222 100.32 85.2561 100.084 85.2561 99.7983V94.9148ZM88.4617 98.2386C88.4617 97.4332 88.5661 96.6928 88.7749 96.0174C88.9859 95.3398 89.2863 94.7166 89.6762 94.1477H90.341C90.1876 94.3587 90.0438 94.6186 89.9095 94.9276C89.7774 95.2344 89.6613 95.5721 89.5612 95.9407C89.461 96.3072 89.3822 96.6864 89.3247 97.0785C89.2693 97.4705 89.2416 97.8572 89.2416 98.2386C89.2416 98.7457 89.2906 99.2603 89.3886 99.7823C89.4866 100.304 89.6187 100.789 89.7849 101.237C89.9511 101.684 90.1365 102.048 90.341 102.33H89.6762C89.2863 101.761 88.9859 101.138 88.7749 100.463C88.5661 99.7855 88.4617 99.044 88.4617 98.2386ZM93.4867 101.089C93.1117 101.089 92.774 101.015 92.4735 100.866C92.1731 100.717 91.9324 100.512 91.7512 100.252C91.5701 99.9922 91.4711 99.696 91.454 99.3636H92.2211C92.2509 99.6598 92.3851 99.9048 92.6238 100.099C92.8645 100.29 93.1522 100.386 93.4867 100.386C93.7551 100.386 93.9938 100.324 94.2026 100.198C94.4135 100.072 94.5787 99.8995 94.698 99.68C94.8194 99.4585 94.8801 99.2081 94.8801 98.929C94.8801 98.6435 94.8173 98.3888 94.6916 98.1651C94.568 97.9393 94.3975 97.7614 94.1802 97.6314C93.9629 97.5014 93.7147 97.4354 93.4355 97.4332C93.2353 97.4311 93.0297 97.462 92.8187 97.5259C92.6078 97.5877 92.4341 97.6676 92.2978 97.7656L91.5563 97.6761L91.9526 94.4545H95.3532V95.1577H92.6174L92.3873 97.0881H92.4256C92.5598 96.9815 92.7282 96.8931 92.9306 96.8228C93.133 96.7525 93.3439 96.7173 93.5634 96.7173C93.964 96.7173 94.3208 96.8132 94.6341 97.005C94.9494 97.1946 95.1966 97.4545 95.3755 97.7848C95.5566 98.1151 95.6472 98.4922 95.6472 98.9162C95.6472 99.3338 95.5534 99.7067 95.3659 100.035C95.1806 100.361 94.9249 100.619 94.5989 100.808C94.2729 100.996 93.9022 101.089 93.4867 101.089ZM100.253 99.7727V99.4276C100.253 99.1889 100.302 98.9705 100.4 98.7724C100.501 98.5721 100.646 98.4123 100.835 98.293C101.027 98.1715 101.259 98.1108 101.532 98.1108C101.809 98.1108 102.041 98.1715 102.229 98.293C102.416 98.4123 102.558 98.5721 102.654 98.7724C102.75 98.9705 102.797 99.1889 102.797 99.4276V99.7727C102.797 100.011 102.748 100.231 102.65 100.431C102.555 100.629 102.412 100.789 102.222 100.911C102.035 101.03 101.805 101.089 101.532 101.089C101.255 101.089 101.022 101.03 100.832 100.911C100.642 100.789 100.498 100.629 100.4 100.431C100.302 100.231 100.253 100.011 100.253 99.7727ZM100.905 99.4276V99.7727C100.905 99.9709 100.952 100.149 101.046 100.306C101.14 100.462 101.302 100.54 101.532 100.54C101.756 100.54 101.913 100.462 102.005 100.306C102.099 100.149 102.146 99.9709 102.146 99.7727V99.4276C102.146 99.2294 102.101 99.0526 102.011 98.897C101.922 98.7393 101.762 98.6605 101.532 98.6605C101.308 98.6605 101.147 98.7393 101.049 98.897C100.953 99.0526 100.905 99.2294 100.905 99.4276ZM96.9935 96.027V95.6818C96.9935 95.4432 97.0425 95.2248 97.1405 95.0266C97.2407 94.8263 97.3856 94.6665 97.5752 94.5472C97.767 94.4258 97.9992 94.3651 98.2719 94.3651C98.5489 94.3651 98.7812 94.4258 98.9687 94.5472C99.1562 94.6665 99.2979 94.8263 99.3937 95.0266C99.4896 95.2248 99.5376 95.4432 99.5376 95.6818V96.027C99.5376 96.2656 99.4885 96.4851 99.3905 96.6854C99.2947 96.8835 99.1519 97.0433 98.9623 97.1648C98.7748 97.2841 98.5447 97.3438 98.2719 97.3438C97.9949 97.3438 97.7616 97.2841 97.572 97.1648C97.3824 97.0433 97.2385 96.8835 97.1405 96.6854C97.0425 96.4851 96.9935 96.2656 96.9935 96.027ZM97.6455 95.6818V96.027C97.6455 96.2251 97.6924 96.4031 97.7861 96.5607C97.8799 96.7163 98.0418 96.794 98.2719 96.794C98.4956 96.794 98.6533 96.7163 98.7449 96.5607C98.8387 96.4031 98.8856 96.2251 98.8856 96.027V95.6818C98.8856 95.4837 98.8408 95.3068 98.7513 95.1513C98.6618 94.9936 98.502 94.9148 98.2719 94.9148C98.0482 94.9148 97.8873 94.9936 97.7893 95.1513C97.6934 95.3068 97.6455 95.4837 97.6455 95.6818ZM97.2364 101L101.736 94.4545H102.465L97.9651 101H97.2364ZM104.229 101V100.425L106.39 98.0597C106.643 97.7827 106.852 97.5419 107.016 97.3374C107.18 97.1307 107.302 96.9368 107.381 96.7557C107.462 96.5724 107.502 96.3807 107.502 96.1804C107.502 95.9503 107.447 95.7511 107.336 95.5827C107.227 95.4144 107.078 95.2844 106.888 95.1928C106.699 95.1012 106.486 95.0554 106.249 95.0554C105.998 95.0554 105.778 95.1076 105.591 95.212C105.405 95.3143 105.262 95.4581 105.159 95.6435C105.059 95.8288 105.009 96.0462 105.009 96.2955H104.255C104.255 95.9119 104.343 95.5753 104.52 95.2855C104.697 94.9957 104.938 94.7699 105.242 94.608C105.549 94.446 105.893 94.3651 106.275 94.3651C106.658 94.3651 106.998 94.446 107.294 94.608C107.59 94.7699 107.823 94.9883 107.991 95.2631C108.159 95.538 108.244 95.8438 108.244 96.1804C108.244 96.4212 108.2 96.6566 108.112 96.8867C108.027 97.1147 107.878 97.3693 107.665 97.6506C107.454 97.9297 107.161 98.2706 106.786 98.6733L105.316 100.246V100.297H108.359V101H104.229ZM111.302 98.2386C111.302 99.044 111.197 99.7855 110.986 100.463C110.777 101.138 110.478 101.761 110.088 102.33H109.423C109.576 102.119 109.719 101.859 109.851 101.55C109.985 101.243 110.103 100.906 110.203 100.54C110.303 100.171 110.381 99.7908 110.436 99.3988C110.494 99.0046 110.522 98.6179 110.522 98.2386C110.522 97.7315 110.473 97.217 110.375 96.695C110.277 96.1729 110.145 95.6882 109.979 95.2408C109.813 94.7933 109.627 94.429 109.423 94.1477H110.088C110.478 94.7166 110.777 95.3398 110.986 96.0174C111.197 96.6928 111.302 97.4332 111.302 98.2386Z" fill="white"/>
<path d="M118.701 99.2102L115.499 100.841V100.205L117.955 99.0213L117.935 99.0611V98.9616L117.955 99.0014L115.499 97.8182V97.1818L118.701 98.8125V99.2102ZM123.315 99.2102L120.113 100.841V100.205L122.569 99.0213L122.549 99.0611V98.9616L122.569 99.0014L120.113 97.8182V97.1818L123.315 98.8125V99.2102ZM130.96 95.218H131.541V98.445H130.96V95.218ZM128.958 95.526H129.588C129.588 97.122 128.489 98.144 126.641 98.592L126.438 98.116C128.076 97.738 128.958 96.905 128.958 95.813V95.526ZM126.767 95.526H129.224V96.002H126.767V95.526ZM129.364 96.128H131.058V96.59H129.364V96.128ZM129.308 97.339H131.023V97.794H129.308V97.339ZM127.467 98.739H131.541V100.293H128.062V101.301H127.488V99.845H130.967V99.208H127.467V98.739ZM127.488 101.021H131.751V101.483H127.488V101.021ZM133.06 95.911H135.923V96.38H133.06V95.911ZM134.047 97.717H134.621V99.859H134.047V97.717ZM135.685 95.911H136.252V96.247C136.252 96.765 136.252 97.591 136.07 98.767L135.496 98.711C135.685 97.57 135.685 96.758 135.685 96.247V95.911ZM137.05 95.218H137.624V101.546H137.05V95.218ZM137.47 97.864H138.639V98.354H137.47V97.864ZM132.78 100.167L132.71 99.677C133.858 99.677 135.384 99.656 136.665 99.495L136.693 99.922C135.384 100.132 133.9 100.16 132.78 100.167ZM139.834 100.349C139.711 100.349 139.606 100.305 139.518 100.217C139.43 100.129 139.386 100.024 139.386 99.9013C139.386 99.7786 139.43 99.6734 139.518 99.5856C139.606 99.4978 139.711 99.4538 139.834 99.4538C139.956 99.4538 140.061 99.4978 140.149 99.5856C140.237 99.6734 140.281 99.7786 140.281 99.9013C140.281 99.9825 140.26 100.057 140.219 100.125C140.179 100.193 140.125 100.248 140.057 100.289C139.991 100.329 139.916 100.349 139.834 100.349ZM139.834 97.7734C139.711 97.7734 139.606 97.7295 139.518 97.6417C139.43 97.5539 139.386 97.4486 139.386 97.326C139.386 97.2034 139.43 97.0981 139.518 97.0103C139.606 96.9225 139.711 96.8786 139.834 96.8786C139.956 96.8786 140.061 96.9225 140.149 97.0103C140.237 97.0981 140.281 97.2034 140.281 97.326C140.281 97.4072 140.26 97.4818 140.219 97.5497C140.179 97.6177 140.125 97.6723 140.057 97.7138C139.991 97.7536 139.916 97.7734 139.834 97.7734ZM143.293 101V100.553L144.973 98.7131C145.17 98.4976 145.333 98.3104 145.46 98.1513C145.588 97.9905 145.682 97.8397 145.744 97.6989C145.807 97.5563 145.838 97.4072 145.838 97.2514C145.838 97.0724 145.795 96.9175 145.709 96.7866C145.624 96.6557 145.508 96.5546 145.361 96.4833C145.213 96.4121 145.048 96.3764 144.864 96.3764C144.668 96.3764 144.497 96.417 144.352 96.4982C144.207 96.5778 144.096 96.6896 144.016 96.8338C143.938 96.978 143.899 97.147 143.899 97.3409H143.312C143.312 97.0426 143.381 96.7808 143.519 96.5554C143.656 96.33 143.844 96.1544 144.081 96.0284C144.319 95.9025 144.587 95.8395 144.884 95.8395C145.182 95.8395 145.446 95.9025 145.676 96.0284C145.907 96.1544 146.087 96.3242 146.218 96.538C146.349 96.7518 146.415 96.9896 146.415 97.2514C146.415 97.4387 146.381 97.6218 146.313 97.8008C146.247 97.9781 146.131 98.1761 145.965 98.3949C145.801 98.612 145.573 98.8771 145.281 99.1903L144.138 100.413V100.453H146.504V101H143.293Z" fill="#878787"/>
<path d="M68.6903 117.841V111.091H69.419V111.871H69.5085C69.5639 111.786 69.6406 111.677 69.7386 111.545C69.8388 111.411 69.9815 111.291 70.1669 111.187C70.3544 111.08 70.608 111.027 70.9276 111.027C71.3409 111.027 71.7053 111.13 72.0206 111.337C72.3359 111.544 72.582 111.837 72.7589 112.216C72.9357 112.595 73.0241 113.043 73.0241 113.558C73.0241 114.078 72.9357 114.529 72.7589 114.91C72.582 115.289 72.337 115.583 72.0238 115.792C71.7106 115.999 71.3494 116.102 70.9403 116.102C70.625 116.102 70.3725 116.05 70.1829 115.946C69.9933 115.839 69.8473 115.719 69.745 115.585C69.6428 115.448 69.5639 115.335 69.5085 115.246H69.4446V117.841H68.6903ZM69.4318 113.545C69.4318 113.916 69.4862 114.243 69.5948 114.527C69.7035 114.808 69.8622 115.028 70.071 115.188C70.2798 115.346 70.5355 115.425 70.8381 115.425C71.1534 115.425 71.4165 115.342 71.6275 115.175C71.8406 115.007 72.0004 114.781 72.1069 114.498C72.2156 114.212 72.2699 113.895 72.2699 113.545C72.2699 113.2 72.2166 112.889 72.1101 112.612C72.0057 112.333 71.8469 112.113 71.6339 111.951C71.4229 111.787 71.1577 111.705 70.8381 111.705C70.5313 111.705 70.2734 111.782 70.0646 111.938C69.8558 112.091 69.6982 112.306 69.5916 112.583C69.4851 112.858 69.4318 113.179 69.4318 113.545ZM74.1747 116V111.091H74.9034V111.832H74.9545C75.044 111.589 75.206 111.392 75.4403 111.241C75.6747 111.09 75.9389 111.014 76.233 111.014C76.2884 111.014 76.3576 111.015 76.4407 111.017C76.5238 111.02 76.5866 111.023 76.6293 111.027V111.794C76.6037 111.788 76.5451 111.778 76.4535 111.765C76.364 111.75 76.2692 111.743 76.169 111.743C75.9304 111.743 75.7173 111.793 75.5298 111.893C75.3445 111.991 75.1974 112.127 75.0888 112.302C74.9822 112.475 74.929 112.672 74.929 112.893V116H74.1747ZM77.5233 116V111.091H78.2776V116H77.5233ZM77.9069 110.273C77.7599 110.273 77.6331 110.223 77.5265 110.123C77.4221 110.022 77.3699 109.902 77.3699 109.761C77.3699 109.621 77.4221 109.5 77.5265 109.4C77.6331 109.3 77.7599 109.25 77.9069 109.25C78.0539 109.25 78.1796 109.3 78.284 109.4C78.3905 109.5 78.4438 109.621 78.4438 109.761C78.4438 109.902 78.3905 110.022 78.284 110.123C78.1796 110.223 78.0539 110.273 77.9069 110.273ZM80.4134 113.047V116H79.6591V111.091H80.3878V111.858H80.4517C80.5668 111.609 80.7415 111.408 80.9759 111.257C81.2102 111.104 81.5128 111.027 81.8835 111.027C82.2159 111.027 82.5067 111.095 82.756 111.232C83.0053 111.366 83.1992 111.57 83.3377 111.845C83.4762 112.118 83.5455 112.463 83.5455 112.881V116H82.7912V112.932C82.7912 112.546 82.6911 112.246 82.4908 112.031C82.2905 111.813 82.0156 111.705 81.6662 111.705C81.4254 111.705 81.2102 111.757 81.0206 111.861C80.8331 111.966 80.685 112.118 80.5763 112.318C80.4677 112.518 80.4134 112.761 80.4134 113.047ZM87.0587 111.091V111.73H84.5146V111.091H87.0587ZM85.2561 109.915H86.0104V114.594C86.0104 114.807 86.0413 114.967 86.1031 115.073C86.167 115.178 86.248 115.248 86.346 115.284C86.4461 115.318 86.5516 115.335 86.6624 115.335C86.7455 115.335 86.8137 115.331 86.8669 115.322C86.9202 115.312 86.9628 115.303 86.9948 115.297L87.1482 115.974C87.097 115.994 87.0257 116.013 86.934 116.032C86.8424 116.053 86.7263 116.064 86.5857 116.064C86.3726 116.064 86.1638 116.018 85.9593 115.926C85.7568 115.835 85.5885 115.695 85.4543 115.508C85.3222 115.32 85.2561 115.084 85.2561 114.798V109.915ZM88.4617 113.239C88.4617 112.433 88.5661 111.693 88.7749 111.017C88.9859 110.34 89.2863 109.717 89.6762 109.148H90.341C90.1876 109.359 90.0438 109.619 89.9095 109.928C89.7774 110.234 89.6613 110.572 89.5612 110.941C89.461 111.307 89.3822 111.686 89.3247 112.078C89.2693 112.471 89.2416 112.857 89.2416 113.239C89.2416 113.746 89.2906 114.26 89.3886 114.782C89.4866 115.304 89.6187 115.789 89.7849 116.237C89.9511 116.684 90.1365 117.048 90.341 117.33H89.6762C89.2863 116.761 88.9859 116.138 88.7749 115.463C88.5661 114.786 88.4617 114.044 88.4617 113.239ZM93.4867 116.089C93.1117 116.089 92.774 116.015 92.4735 115.866C92.1731 115.717 91.9324 115.512 91.7512 115.252C91.5701 114.992 91.4711 114.696 91.454 114.364H92.2211C92.2509 114.66 92.3851 114.905 92.6238 115.099C92.8645 115.29 93.1522 115.386 93.4867 115.386C93.7551 115.386 93.9938 115.324 94.2026 115.198C94.4135 115.072 94.5787 114.9 94.698 114.68C94.8194 114.458 94.8801 114.208 94.8801 113.929C94.8801 113.643 94.8173 113.389 94.6916 113.165C94.568 112.939 94.3975 112.761 94.1802 112.631C93.9629 112.501 93.7147 112.435 93.4355 112.433C93.2353 112.431 93.0297 112.462 92.8187 112.526C92.6078 112.588 92.4341 112.668 92.2978 112.766L91.5563 112.676L91.9526 109.455H95.3532V110.158H92.6174L92.3873 112.088H92.4256C92.5598 111.982 92.7282 111.893 92.9306 111.823C93.133 111.752 93.3439 111.717 93.5634 111.717C93.964 111.717 94.3208 111.813 94.6341 112.005C94.9494 112.195 95.1966 112.455 95.3755 112.785C95.5566 113.115 95.6472 113.492 95.6472 113.916C95.6472 114.334 95.5534 114.707 95.3659 115.035C95.1806 115.361 94.9249 115.619 94.5989 115.808C94.2729 115.996 93.9022 116.089 93.4867 116.089ZM98.1824 113.136L98.2336 111.73L97.0447 112.484L96.7378 111.947L97.9907 111.295L96.7378 110.643L97.0447 110.107L98.2336 110.861L98.1824 109.455H98.7961L98.7449 110.861L99.9339 110.107L100.241 110.643L98.9878 111.295L100.241 111.947L99.9339 112.484L98.7449 111.73L98.7961 113.136H98.1824ZM102.682 113.136L102.734 111.73L101.545 112.484L101.238 111.947L102.491 111.295L101.238 110.643L101.545 110.107L102.734 110.861L102.682 109.455H103.296L103.245 110.861L104.434 110.107L104.741 110.643L103.488 111.295L104.741 111.947L104.434 112.484L103.245 111.73L103.296 113.136H102.682ZM105.917 116V115.425L108.077 113.06C108.331 112.783 108.54 112.542 108.704 112.337C108.868 112.131 108.989 111.937 109.068 111.756C109.149 111.572 109.19 111.381 109.19 111.18C109.19 110.95 109.134 110.751 109.023 110.583C108.915 110.414 108.766 110.284 108.576 110.193C108.386 110.101 108.173 110.055 107.937 110.055C107.685 110.055 107.466 110.108 107.278 110.212C107.093 110.314 106.949 110.458 106.847 110.643C106.747 110.829 106.697 111.046 106.697 111.295H105.942C105.942 110.912 106.031 110.575 106.208 110.286C106.384 109.996 106.625 109.77 106.93 109.608C107.237 109.446 107.581 109.365 107.962 109.365C108.346 109.365 108.686 109.446 108.982 109.608C109.278 109.77 109.51 109.988 109.679 110.263C109.847 110.538 109.931 110.844 109.931 111.18C109.931 111.421 109.887 111.657 109.8 111.887C109.715 112.115 109.566 112.369 109.353 112.651C109.142 112.93 108.849 113.271 108.474 113.673L107.003 115.246V115.297H110.046V116H105.917ZM112.99 113.239C112.99 114.044 112.884 114.786 112.673 115.463C112.464 116.138 112.165 116.761 111.775 117.33H111.11C111.264 117.119 111.407 116.859 111.539 116.55C111.673 116.243 111.79 115.906 111.89 115.54C111.99 115.171 112.068 114.791 112.123 114.399C112.181 114.005 112.21 113.618 112.21 113.239C112.21 112.732 112.161 112.217 112.063 111.695C111.965 111.173 111.833 110.688 111.666 110.241C111.5 109.793 111.315 109.429 111.11 109.148H111.775C112.165 109.717 112.464 110.34 112.673 111.017C112.884 111.693 112.99 112.433 112.99 113.239Z" fill="white"/>
<path d="M120.388 114.21L117.186 115.841V115.205L119.642 114.021L119.623 114.061V113.962L119.642 114.001L117.186 112.818V112.182L120.388 113.812V114.21ZM125.002 114.21L121.801 115.841V115.205L124.257 114.021L124.237 114.061V113.962L124.257 114.001L121.801 112.818V112.182L125.002 113.812V114.21ZM132.648 110.218H133.229V113.445H132.648V110.218ZM130.646 110.526H131.276C131.276 112.122 130.177 113.144 128.329 113.592L128.126 113.116C129.764 112.738 130.646 111.905 130.646 110.813V110.526ZM128.455 110.526H130.912V111.002H128.455V110.526ZM131.052 111.128H132.746V111.59H131.052V111.128ZM130.996 112.339H132.711V112.794H130.996V112.339ZM129.155 113.739H133.229V115.293H129.75V116.301H129.176V114.845H132.655V114.208H129.155V113.739ZM129.176 116.021H133.439V116.483H129.176V116.021ZM134.747 110.911H137.61V111.38H134.747V110.911ZM135.734 112.717H136.308V114.859H135.734V112.717ZM137.372 110.911H137.939V111.247C137.939 111.765 137.939 112.591 137.757 113.767L137.183 113.711C137.372 112.57 137.372 111.758 137.372 111.247V110.911ZM138.737 110.218H139.311V116.546H138.737V110.218ZM139.157 112.864H140.326V113.354H139.157V112.864ZM134.467 115.167L134.397 114.677C135.545 114.677 137.071 114.656 138.352 114.495L138.38 114.922C137.071 115.132 135.587 115.16 134.467 115.167ZM141.521 115.349C141.398 115.349 141.293 115.305 141.205 115.217C141.118 115.129 141.074 115.024 141.074 114.901C141.074 114.779 141.118 114.673 141.205 114.586C141.293 114.498 141.398 114.454 141.521 114.454C141.644 114.454 141.749 114.498 141.837 114.586C141.925 114.673 141.969 114.779 141.969 114.901C141.969 114.982 141.948 115.057 141.906 115.125C141.867 115.193 141.813 115.248 141.745 115.289C141.679 115.329 141.604 115.349 141.521 115.349ZM141.521 112.773C141.398 112.773 141.293 112.73 141.205 112.642C141.118 112.554 141.074 112.449 141.074 112.326C141.074 112.203 141.118 112.098 141.205 112.01C141.293 111.922 141.398 111.879 141.521 111.879C141.644 111.879 141.749 111.922 141.837 112.01C141.925 112.098 141.969 112.203 141.969 112.326C141.969 112.407 141.948 112.482 141.906 112.55C141.867 112.618 141.813 112.672 141.745 112.714C141.679 112.754 141.604 112.773 141.521 112.773ZM144.98 116V115.553L146.661 113.713C146.858 113.498 147.02 113.31 147.148 113.151C147.275 112.991 147.37 112.84 147.431 112.699C147.494 112.556 147.526 112.407 147.526 112.251C147.526 112.072 147.482 111.917 147.396 111.787C147.312 111.656 147.196 111.555 147.048 111.483C146.901 111.412 146.735 111.376 146.551 111.376C146.356 111.376 146.185 111.417 146.039 111.498C145.895 111.578 145.783 111.69 145.703 111.834C145.626 111.978 145.587 112.147 145.587 112.341H145C145 112.043 145.069 111.781 145.206 111.555C145.344 111.33 145.531 111.154 145.768 111.028C146.007 110.902 146.274 110.839 146.571 110.839C146.869 110.839 147.134 110.902 147.364 111.028C147.594 111.154 147.775 111.324 147.906 111.538C148.037 111.752 148.102 111.99 148.102 112.251C148.102 112.439 148.068 112.622 148 112.801C147.934 112.978 147.818 113.176 147.652 113.395C147.488 113.612 147.26 113.877 146.969 114.19L145.825 115.413V115.453H148.192V116H144.98ZM150.809 116.07C150.518 116.07 150.255 116.012 150.021 115.896C149.788 115.78 149.6 115.621 149.46 115.418C149.319 115.216 149.242 114.986 149.228 114.727H149.825C149.848 114.958 149.953 115.148 150.138 115.299C150.325 115.448 150.549 115.523 150.809 115.523C151.018 115.523 151.204 115.474 151.366 115.376C151.53 115.278 151.659 115.144 151.751 114.973C151.846 114.801 151.893 114.606 151.893 114.389C151.893 114.167 151.844 113.969 151.746 113.795C151.65 113.619 151.518 113.481 151.349 113.38C151.18 113.279 150.987 113.228 150.77 113.226C150.614 113.224 150.454 113.248 150.29 113.298C150.126 113.346 149.991 113.408 149.885 113.484L149.308 113.415L149.616 110.909H152.261V111.456H150.133L149.954 112.957H149.984C150.088 112.875 150.219 112.806 150.377 112.751C150.534 112.696 150.698 112.669 150.869 112.669C151.181 112.669 151.458 112.744 151.702 112.893C151.947 113.04 152.139 113.242 152.278 113.499C152.419 113.756 152.49 114.049 152.49 114.379C152.49 114.704 152.417 114.994 152.271 115.249C152.127 115.503 151.928 115.703 151.674 115.851C151.421 115.997 151.132 116.07 150.809 116.07Z" fill="#878787"/>
<path d="M43.386 93.854H48.858V96.599H43.386V93.854ZM48.12 94.457H44.115V95.996H48.12V94.457ZM42.441 97.517H49.794V98.12H42.441V97.517ZM45.744 96.383H46.491V97.733H45.744V96.383ZM47.328 98.678H47.922V99.218C47.922 100.298 47.409 101.324 46.329 101.765L45.906 101.207C46.869 100.847 47.328 100.028 47.328 99.218V98.678ZM47.481 98.678H48.066V99.218C48.066 100.037 48.525 100.847 49.479 101.207L49.047 101.765C47.985 101.333 47.481 100.316 47.481 99.218V98.678ZM43.125 98.849H45.807V101.693H45.06V99.461H43.125V98.849Z" fill="white"/>
<path d="M37.68 109.392H38.344V116.624H37.68V109.392ZM35.992 112.288H37.976V112.84H35.992V112.288ZM35.36 110.168H36.016C36.016 112.232 35.16 114.056 32.76 115.256L32.392 114.736C34.496 113.704 35.36 112.168 35.36 110.28V110.168ZM32.704 110.168H35.712V110.712H32.704V110.168ZM39.7594 112.656H46.2954V113.2H39.7594V112.656ZM40.5834 111.384H45.5434V111.928H40.5834V111.384ZM40.5834 109.616H45.4794V110.16H41.2474V111.728H40.5834V109.616ZM40.5994 113.76H41.2554V114.552H44.7994V113.76H45.4554V116.52H40.5994V113.76ZM41.2554 115.08V115.976H44.7994V115.08H41.2554ZM52.6148 109.392H53.2548V116.624H52.6148V109.392ZM49.9828 111.984H51.3668V112.536H49.9828V111.984ZM51.1668 109.56H51.7908V116.256H51.1668V109.56ZM48.5908 110.512H49.1028V111.432C49.1028 113.016 48.4948 114.512 47.4308 115.184L47.0228 114.688C48.0308 114.08 48.5908 112.76 48.5908 111.432V110.512ZM48.7268 110.512H49.2388V111.432C49.2388 112.688 49.7828 113.944 50.7748 114.52L50.3668 115.008C49.3108 114.368 48.7268 112.944 48.7268 111.432V110.512ZM47.2228 110.232H50.5268V110.784H47.2228V110.232ZM55.2541 109.688H59.9101V110.224H55.2541V109.688ZM54.4861 112.496H61.0061V113.032H54.4861V112.496ZM57.1581 111.216H57.8141V112.712H57.1581V111.216ZM59.5261 109.688H60.1821V110.208C60.1821 110.728 60.1821 111.328 59.9901 112.104L59.3261 112.04C59.5261 111.264 59.5261 110.712 59.5261 110.208V109.688ZM55.3261 113.64H55.9821V114.52H59.5021V113.64H60.1501V116.528H55.3261V113.64ZM55.9821 115.04V115.992H59.5021V115.04H55.9821Z" fill="white"/>
<path d="M105.69 5.528H107.274V6.149H105.69V5.528ZM105.69 8.003H107.274V8.624H105.69V8.003ZM108.642 3.566H109.362V11.702H108.642V3.566ZM107.049 3.737H107.751V11.297H107.049V3.737ZM104.277 4.241C105.33 4.241 106.014 5.33 106.014 7.076C106.014 8.822 105.33 9.911 104.277 9.911C103.224 9.911 102.549 8.822 102.549 7.076C102.549 5.33 103.224 4.241 104.277 4.241ZM104.277 4.934C103.638 4.934 103.224 5.762 103.224 7.076C103.224 8.39 103.638 9.218 104.277 9.218C104.925 9.218 105.33 8.39 105.33 7.076C105.33 5.762 104.925 4.934 104.277 4.934ZM112.871 4.268H113.483V5.726C113.483 7.598 112.475 9.335 111.143 10.01L110.684 9.398C111.89 8.822 112.871 7.265 112.871 5.726V4.268ZM112.997 4.268H113.609V5.726C113.609 7.211 114.581 8.705 115.787 9.263L115.337 9.857C114.014 9.209 112.997 7.535 112.997 5.726V4.268ZM116.633 3.557H117.38V11.711H116.633V3.557Z" fill="white"/>
</svg>
