<svg width="156" height="46" viewBox="0 0 156 46" fill="none" xmlns="http://www.w3.org/2000/svg">
<rect x="0.5" y="0.5" width="29" height="15" fill="#202020" stroke="#878787"/>
<rect x="29.5" y="0.5" width="35" height="15" fill="#202020" stroke="#878787"/>
<rect x="64.5" y="0.5" width="91" height="15" fill="#202020" stroke="#878787"/>
<rect x="0.5" y="15.5" width="29" height="15" fill="#21252B" stroke="#878787"/>
<rect x="29.5" y="15.5" width="35" height="15" fill="#21252B" stroke="#878787"/>
<rect x="64.5" y="15.5" width="91" height="15" fill="#21252B" stroke="#878787"/>
<rect x="0.5" y="30.5" width="29" height="15" fill="#21252B" stroke="#878787"/>
<rect x="29.5" y="30.5" width="35" height="15" fill="#21252B" stroke="#878787"/>
<rect x="64.5" y="30.5" width="91" height="15" fill="#21252B" stroke="#878787"/>
<path d="M13.372 3.566H14.119V11.702H13.372V3.566ZM10.987 4.439H11.725C11.725 6.797 10.663 8.858 7.945 10.19L7.549 9.587C9.898 8.453 10.987 6.725 10.987 4.565V4.439ZM7.918 4.439H11.311V5.051H7.918V4.439ZM16.0893 4.754H22.6953V5.366H16.0893V4.754ZM15.7293 10.136H23.1003V10.757H15.7293V10.136ZM19.0323 8.849H19.7703V10.379H19.0323V8.849ZM19.3923 5.915C21.0393 5.915 22.0563 6.482 22.0563 7.463C22.0563 8.444 21.0393 9.011 19.3923 9.011C17.7543 9.011 16.7373 8.444 16.7373 7.463C16.7373 6.482 17.7543 5.915 19.3923 5.915ZM19.3923 6.5C18.2133 6.5 17.4843 6.86 17.4843 7.463C17.4843 8.066 18.2133 8.417 19.3923 8.417C20.5803 8.417 21.3003 8.066 21.3003 7.463C21.3003 6.86 20.5803 6.5 19.3923 6.5ZM19.0323 3.701H19.7703V5.132H19.0323V3.701Z" fill="white"/>
<path d="M7.55114 22.0881V21.0142H13.6761V22.0881H7.55114ZM7.55114 25.0312V23.9574H13.6761V25.0312H7.55114ZM16.7797 22.0881V21.0142H22.9047V22.0881H16.7797ZM16.7797 25.0312V23.9574H22.9047V25.0312H16.7797Z" fill="white"/>
<path d="M11.625 32.8182L11.5256 40.1364H10.3722L10.2727 32.8182H11.625ZM10.9489 43.0795C10.7036 43.0795 10.4931 42.9917 10.3175 42.8161C10.1418 42.6404 10.054 42.4299 10.054 42.1847C10.054 41.9394 10.1418 41.7289 10.3175 41.5533C10.4931 41.3776 10.7036 41.2898 10.9489 41.2898C11.1941 41.2898 11.4046 41.3776 11.5803 41.5533C11.7559 41.7289 11.8438 41.9394 11.8438 42.1847C11.8438 42.3471 11.8023 42.4962 11.7195 42.6321C11.6399 42.768 11.5322 42.8774 11.3963 42.9602C11.2637 43.0398 11.1146 43.0795 10.9489 43.0795ZM14.4476 36.9744V35.9006H20.5726V36.9744H14.4476ZM14.4476 39.9176V38.8438H20.5726V39.9176H14.4476Z" fill="white"/>
<path d="M42.087 4.151C43.356 4.151 44.265 4.934 44.265 6.068C44.265 7.211 43.356 7.994 42.087 7.994C40.818 7.994 39.9 7.211 39.9 6.068C39.9 4.934 40.818 4.151 42.087 4.151ZM42.087 4.799C41.241 4.799 40.629 5.312 40.629 6.068C40.629 6.824 41.241 7.346 42.087 7.346C42.924 7.346 43.536 6.824 43.536 6.068C43.536 5.312 42.924 4.799 42.087 4.799ZM45.327 3.557H46.074V11.711H45.327V3.557ZM39.594 9.929L39.486 9.308C40.971 9.308 43.023 9.299 44.796 9.02L44.859 9.569C43.032 9.92 41.043 9.929 39.594 9.929ZM48.1883 4.358H51.9323V9.659H48.1883V4.358ZM51.2033 4.961H48.9173V9.056H51.2033V4.961ZM53.6333 3.557H54.3803V11.711H53.6333V3.557Z" fill="white"/>
<path d="M44.012 18.566H44.759V22.913H44.012V18.566ZM44.552 20.447H45.965V21.068H44.552V20.447ZM41.762 19.133H42.59C42.59 21.185 41.159 22.517 38.774 23.066L38.477 22.463C40.619 21.986 41.762 20.897 41.762 19.538V19.133ZM38.81 19.133H42.194V19.745H38.81V19.133ZM39.638 23.282H44.804V23.849H40.376V26.315H39.638V23.282ZM39.638 26.027H44.984V26.594H39.638V26.027ZM40.124 24.641H44.705V25.19H40.124V24.641ZM52.2283 18.557H52.9843V26.711H52.2283V18.557ZM52.8043 21.77H54.3163V22.4H52.8043V21.77ZM47.0713 24.056H47.7103C49.2133 24.056 50.2663 24.002 51.4813 23.777L51.5623 24.407C50.3113 24.641 49.2403 24.686 47.7103 24.686H47.0713V24.056ZM47.0713 19.349H50.8513V19.961H47.8093V24.335H47.0713V19.349Z" fill="white"/>
<path d="M68.6136 26.6364V20.6364H69.2614V21.3295H69.3409C69.3902 21.2538 69.4583 21.1572 69.5455 21.0398C69.6345 20.9205 69.7614 20.8144 69.9261 20.7216C70.0928 20.6269 70.3182 20.5795 70.6023 20.5795C70.9697 20.5795 71.2936 20.6714 71.5739 20.8551C71.8542 21.0388 72.0729 21.2992 72.2301 21.6364C72.3873 21.9735 72.4659 22.3712 72.4659 22.8295C72.4659 23.2917 72.3873 23.6922 72.2301 24.0312C72.0729 24.3684 71.8551 24.6297 71.5767 24.8153C71.2983 24.9991 70.9773 25.0909 70.6136 25.0909C70.3333 25.0909 70.1089 25.0445 69.9403 24.9517C69.7718 24.857 69.642 24.75 69.5511 24.6307C69.4602 24.5095 69.3902 24.4091 69.3409 24.3295H69.2841V26.6364H68.6136ZM69.2727 22.8182C69.2727 23.1477 69.321 23.4384 69.4176 23.6903C69.5142 23.9403 69.6553 24.1364 69.8409 24.2784C70.0265 24.4186 70.2538 24.4886 70.5227 24.4886C70.803 24.4886 71.0369 24.4148 71.2244 24.267C71.4138 24.1174 71.5559 23.9167 71.6506 23.6648C71.7472 23.411 71.7955 23.1288 71.7955 22.8182C71.7955 22.5114 71.7481 22.2348 71.6534 21.9886C71.5606 21.7405 71.4195 21.5445 71.2301 21.4006C71.0426 21.2547 70.8068 21.1818 70.5227 21.1818C70.25 21.1818 70.0208 21.2509 69.8352 21.3892C69.6496 21.5256 69.5095 21.7169 69.4148 21.9631C69.3201 22.2074 69.2727 22.4924 69.2727 22.8182ZM73.4886 25V20.6364H74.1364V21.2955H74.1818C74.2614 21.0795 74.4053 20.9044 74.6136 20.7699C74.822 20.6354 75.0568 20.5682 75.3182 20.5682C75.3674 20.5682 75.429 20.5691 75.5028 20.571C75.5767 20.5729 75.6326 20.5758 75.6705 20.5795V21.2614C75.6477 21.2557 75.5956 21.2472 75.5142 21.2358C75.4347 21.2225 75.3504 21.2159 75.2614 21.2159C75.0492 21.2159 74.8598 21.2604 74.6932 21.3494C74.5284 21.4366 74.3977 21.5578 74.3011 21.7131C74.2064 21.8665 74.1591 22.0417 74.1591 22.2386V25H73.4886ZM76.4652 25V20.6364H77.1357V25H76.4652ZM76.8061 19.9091C76.6754 19.9091 76.5627 19.8646 76.468 19.7756C76.3752 19.6866 76.3288 19.5795 76.3288 19.4545C76.3288 19.3295 76.3752 19.2225 76.468 19.1335C76.5627 19.0445 76.6754 19 76.8061 19C76.9368 19 77.0485 19.0445 77.1413 19.1335C77.236 19.2225 77.2834 19.3295 77.2834 19.4545C77.2834 19.5795 77.236 19.6866 77.1413 19.7756C77.0485 19.8646 76.9368 19.9091 76.8061 19.9091ZM79.0341 22.375V25H78.3636V20.6364H79.0114V21.3182H79.0682C79.1705 21.0966 79.3258 20.9186 79.5341 20.7841C79.7424 20.6477 80.0114 20.5795 80.3409 20.5795C80.6364 20.5795 80.8949 20.6402 81.1165 20.7614C81.3381 20.8807 81.5104 21.0625 81.6335 21.3068C81.7566 21.5492 81.8182 21.8561 81.8182 22.2273V25H81.1477V22.2727C81.1477 21.9299 81.0587 21.6629 80.8807 21.4716C80.7027 21.2784 80.4583 21.1818 80.1477 21.1818C79.9337 21.1818 79.7424 21.2282 79.5739 21.321C79.4072 21.4138 79.2756 21.5492 79.179 21.7273C79.0824 21.9053 79.0341 22.1212 79.0341 22.375ZM84.9411 20.6364V21.2045H82.6797V20.6364H84.9411ZM83.3388 19.5909H84.0092V23.75C84.0092 23.9394 84.0367 24.0814 84.0916 24.1761C84.1484 24.2689 84.2204 24.3314 84.3075 24.3636C84.3965 24.3939 84.4903 24.4091 84.5888 24.4091C84.6626 24.4091 84.7232 24.4053 84.7706 24.3977C84.8179 24.3883 84.8558 24.3807 84.8842 24.375L85.0206 24.9773C84.9751 24.9943 84.9117 25.0114 84.8303 25.0284C84.7488 25.0473 84.6456 25.0568 84.5206 25.0568C84.3312 25.0568 84.1456 25.0161 83.9638 24.9347C83.7839 24.8532 83.6342 24.7292 83.5149 24.5625C83.3975 24.3958 83.3388 24.1856 83.3388 23.9318V19.5909ZM86.1882 22.5455C86.1882 21.8295 86.281 21.1714 86.4666 20.571C86.6541 19.9687 86.9212 19.4148 87.2678 18.9091H87.8587C87.7223 19.0966 87.5945 19.3277 87.4751 19.6023C87.3577 19.875 87.2545 20.1752 87.1655 20.5028C87.0765 20.8286 87.0064 21.1657 86.9553 21.5142C86.906 21.8627 86.8814 22.2064 86.8814 22.5455C86.8814 22.9962 86.925 23.4536 87.0121 23.9176C87.0992 24.3816 87.2166 24.8125 87.3643 25.2102C87.5121 25.608 87.6768 25.9318 87.8587 26.1818H87.2678C86.9212 25.6761 86.6541 25.1231 86.4666 24.5227C86.281 23.9205 86.1882 23.2614 86.1882 22.5455ZM90.6548 25.0795C90.3215 25.0795 90.0213 25.0133 89.7543 24.8807C89.4872 24.7481 89.2732 24.5663 89.1122 24.3352C88.9512 24.1042 88.8632 23.8409 88.848 23.5455H89.5298C89.5563 23.8087 89.6757 24.0265 89.8878 24.1989C90.1018 24.3693 90.3575 24.4545 90.6548 24.4545C90.8935 24.4545 91.1056 24.3987 91.2912 24.2869C91.4787 24.1752 91.6255 24.0218 91.7315 23.8267C91.8395 23.6297 91.8935 23.4072 91.8935 23.1591C91.8935 22.9053 91.8376 22.679 91.7259 22.4801C91.616 22.2794 91.4645 22.1212 91.2713 22.0057C91.0781 21.8902 90.8575 21.8314 90.6094 21.8295C90.4313 21.8277 90.2486 21.8551 90.0611 21.9119C89.8736 21.9669 89.7192 22.0379 89.598 22.125L88.9389 22.0455L89.2912 19.1818H92.3139V19.8068H89.8821L89.6776 21.5227H89.7116C89.831 21.428 89.9806 21.3494 90.1605 21.2869C90.3404 21.2244 90.5279 21.1932 90.723 21.1932C91.0791 21.1932 91.3963 21.2784 91.6747 21.4489C91.955 21.6174 92.1747 21.8485 92.3338 22.142C92.4948 22.4356 92.5753 22.7708 92.5753 23.1477C92.5753 23.5189 92.492 23.8504 92.3253 24.142C92.1605 24.4318 91.9332 24.661 91.6435 24.8295C91.3537 24.9962 91.0241 25.0795 90.6548 25.0795ZM93.9879 21.5568V20.9432H97.4879V21.5568H93.9879ZM93.9879 23.2386V22.625H97.4879V23.2386H93.9879ZM99.2614 21.5568V20.9432H102.761V21.5568H99.2614ZM99.2614 23.2386V22.625H102.761V23.2386H99.2614ZM104.251 25V24.4886L106.171 22.3864C106.397 22.1402 106.582 21.9261 106.728 21.7443C106.874 21.5606 106.982 21.3883 107.052 21.2273C107.124 21.0644 107.16 20.8939 107.16 20.7159C107.16 20.5114 107.111 20.3343 107.012 20.1847C106.915 20.035 106.783 19.9195 106.614 19.8381C106.446 19.7566 106.256 19.7159 106.046 19.7159C105.823 19.7159 105.628 19.7623 105.461 19.8551C105.296 19.946 105.168 20.0739 105.077 20.2386C104.988 20.4034 104.944 20.5966 104.944 20.8182H104.273C104.273 20.4773 104.352 20.178 104.509 19.9205C104.666 19.6629 104.88 19.4621 105.151 19.3182C105.424 19.1742 105.73 19.1023 106.069 19.1023C106.41 19.1023 106.712 19.1742 106.975 19.3182C107.238 19.4621 107.445 19.6562 107.594 19.9006C107.744 20.1449 107.819 20.4167 107.819 20.7159C107.819 20.9299 107.78 21.1392 107.702 21.3438C107.627 21.5464 107.494 21.7727 107.305 22.0227C107.117 22.2708 106.857 22.5739 106.523 22.9318L105.217 24.3295V24.375H107.921V25H104.251ZM110.538 22.5455C110.538 23.2614 110.444 23.9205 110.256 24.5227C110.071 25.1231 109.805 25.6761 109.458 26.1818H108.867C109.004 25.9943 109.13 25.7633 109.248 25.4886C109.367 25.2159 109.471 24.9167 109.56 24.5909C109.649 24.2633 109.719 23.9252 109.768 23.5767C109.819 23.2263 109.844 22.8826 109.844 22.5455C109.844 22.0947 109.801 21.6373 109.714 21.1733C109.627 20.7093 109.509 20.2784 109.362 19.8807C109.214 19.483 109.049 19.1591 108.867 18.9091H109.458C109.805 19.4148 110.071 19.9687 110.256 20.571C110.444 21.1714 110.538 21.8295 110.538 22.5455Z" fill="white"/>
<path d="M116.99 23.4659L114.246 24.8636V24.3182L116.351 23.304L116.334 23.3381V23.2528L116.351 23.2869L114.246 22.2727V21.7273L116.99 23.125V23.4659ZM120.945 23.4659L118.201 24.8636V24.3182L120.306 23.304L120.289 23.3381V23.2528L120.306 23.2869L118.201 22.2727V21.7273L120.945 23.125V23.4659ZM127.498 20.044H127.996V22.81H127.498V20.044ZM125.782 20.308H126.322C126.322 21.676 125.38 22.552 123.796 22.936L123.622 22.528C125.026 22.204 125.782 21.49 125.782 20.554V20.308ZM123.904 20.308H126.01V20.716H123.904V20.308ZM126.13 20.824H127.582V21.22H126.13V20.824ZM126.082 21.862H127.552V22.252H126.082V21.862ZM124.504 23.062H127.996V24.394H125.014V25.258H124.522V24.01H127.504V23.464H124.504V23.062ZM124.522 25.018H128.176V25.414H124.522V25.018ZM129.298 20.638H131.752V21.04H129.298V20.638ZM130.144 22.186H130.636V24.022H130.144V22.186ZM131.548 20.638H132.034V20.926C132.034 21.37 132.034 22.078 131.878 23.086L131.386 23.038C131.548 22.06 131.548 21.364 131.548 20.926V20.638ZM132.718 20.044H133.21V25.468H132.718V20.044ZM133.078 22.312H134.08V22.732H133.078V22.312ZM129.058 24.286L128.998 23.866C129.982 23.866 131.29 23.848 132.388 23.71L132.412 24.076C131.29 24.256 130.018 24.28 129.058 24.286ZM135.104 24.4418C134.999 24.4418 134.909 24.4041 134.833 24.3288C134.758 24.2536 134.721 24.1634 134.721 24.0582C134.721 23.9531 134.758 23.8629 134.833 23.7876C134.909 23.7124 134.999 23.6747 135.104 23.6747C135.209 23.6747 135.299 23.7124 135.375 23.7876C135.45 23.8629 135.488 23.9531 135.488 24.0582C135.488 24.1278 135.47 24.1918 135.434 24.25C135.4 24.3082 135.354 24.3551 135.296 24.3906C135.239 24.4247 135.175 24.4418 135.104 24.4418ZM135.104 22.2344C134.999 22.2344 134.909 22.1967 134.833 22.1214C134.758 22.0462 134.721 21.956 134.721 21.8509C134.721 21.7457 134.758 21.6555 134.833 21.5803C134.909 21.505 134.999 21.4673 135.104 21.4673C135.209 21.4673 135.299 21.505 135.375 21.5803C135.45 21.6555 135.488 21.7457 135.488 21.8509C135.488 21.9205 135.47 21.9844 135.434 22.0426C135.4 22.1009 135.354 22.1477 135.296 22.1832C135.239 22.2173 135.175 22.2344 135.104 22.2344ZM138.146 25V20.6364H140.762V21.1051H138.674V22.5795H140.566V23.0483H138.674V25H138.146ZM142.562 25.0767C142.355 25.0767 142.166 25.0376 141.997 24.9595C141.828 24.88 141.694 24.7656 141.595 24.6165C141.495 24.4659 141.445 24.2841 141.445 24.071C141.445 23.8835 141.482 23.7315 141.556 23.6151C141.63 23.4972 141.729 23.4048 141.852 23.3381C141.976 23.2713 142.112 23.2216 142.262 23.1889C142.412 23.1548 142.563 23.1278 142.715 23.108C142.914 23.0824 143.075 23.0632 143.199 23.0504C143.324 23.0362 143.415 23.0128 143.472 22.9801C143.53 22.9474 143.559 22.8906 143.559 22.8097V22.7926C143.559 22.5824 143.502 22.419 143.387 22.3026C143.273 22.1861 143.1 22.1278 142.869 22.1278C142.629 22.1278 142.441 22.1804 142.304 22.2855C142.168 22.3906 142.072 22.5028 142.017 22.6222L141.539 22.4517C141.624 22.2528 141.738 22.098 141.88 21.9872C142.024 21.875 142.18 21.7969 142.349 21.7528C142.519 21.7074 142.687 21.6847 142.852 21.6847C142.957 21.6847 143.078 21.6974 143.214 21.723C143.352 21.7472 143.485 21.7976 143.612 21.8743C143.742 21.951 143.849 22.0668 143.934 22.2216C144.019 22.3764 144.062 22.5838 144.062 22.8438V25H143.559V24.5568H143.534C143.499 24.6278 143.443 24.7038 143.363 24.7848C143.284 24.8658 143.178 24.9347 143.046 24.9915C142.914 25.0483 142.752 25.0767 142.562 25.0767ZM142.639 24.625C142.838 24.625 143.005 24.5859 143.142 24.5078C143.279 24.4297 143.383 24.3288 143.453 24.2053C143.524 24.0817 143.559 23.9517 143.559 23.8153V23.3551C143.538 23.3807 143.491 23.4041 143.419 23.4254C143.347 23.4453 143.265 23.4631 143.171 23.4787C143.079 23.4929 142.989 23.5057 142.901 23.517C142.814 23.527 142.744 23.5355 142.69 23.5426C142.559 23.5597 142.437 23.5874 142.323 23.6257C142.211 23.6626 142.12 23.7187 142.051 23.794C141.982 23.8679 141.948 23.9687 141.948 24.0966C141.948 24.2713 142.013 24.4034 142.142 24.4929C142.273 24.581 142.438 24.625 142.639 24.625ZM145.483 20.6364V25H144.98V20.6364H145.483ZM148.722 22.4602L148.27 22.5881C148.242 22.5128 148.2 22.4396 148.144 22.3686C148.09 22.2962 148.017 22.2365 147.923 22.1896C147.829 22.1428 147.709 22.1193 147.563 22.1193C147.362 22.1193 147.195 22.1655 147.062 22.2578C146.93 22.3487 146.864 22.4645 146.864 22.6051C146.864 22.7301 146.909 22.8288 147 22.9013C147.091 22.9737 147.233 23.0341 147.426 23.0824L147.912 23.2017C148.205 23.2727 148.423 23.3814 148.566 23.5277C148.71 23.6726 148.781 23.8594 148.781 24.0881C148.781 24.2756 148.727 24.4432 148.619 24.5909C148.513 24.7386 148.364 24.8551 148.172 24.9403C147.98 25.0256 147.757 25.0682 147.503 25.0682C147.169 25.0682 146.893 24.9957 146.674 24.8509C146.455 24.706 146.317 24.4943 146.259 24.2159L146.736 24.0966C146.781 24.2727 146.867 24.4048 146.994 24.4929C147.122 24.581 147.289 24.625 147.494 24.625C147.729 24.625 147.915 24.5753 148.053 24.4759C148.192 24.375 148.262 24.2543 148.262 24.1136C148.262 24 148.222 23.9048 148.142 23.8281C148.063 23.75 147.941 23.6918 147.776 23.6534L147.23 23.5256C146.931 23.4545 146.71 23.3445 146.57 23.1953C146.431 23.0447 146.361 22.8565 146.361 22.6307C146.361 22.446 146.413 22.2827 146.517 22.1406C146.622 21.9986 146.764 21.8871 146.945 21.8061C147.127 21.7251 147.333 21.6847 147.563 21.6847C147.887 21.6847 148.141 21.7557 148.325 21.8977C148.512 22.0398 148.644 22.2273 148.722 22.4602ZM150.911 25.0682C150.595 25.0682 150.323 24.9986 150.094 24.8594C149.867 24.7188 149.692 24.5227 149.568 24.2713C149.446 24.0185 149.385 23.7244 149.385 23.3892C149.385 23.054 149.446 22.7585 149.568 22.5028C149.692 22.2457 149.864 22.0455 150.084 21.902C150.305 21.7571 150.564 21.6847 150.859 21.6847C151.03 21.6847 151.198 21.7131 151.364 21.7699C151.531 21.8267 151.682 21.919 151.818 22.0469C151.955 22.1733 152.063 22.3409 152.144 22.5497C152.225 22.7585 152.266 23.0156 152.266 23.321V23.5341H149.743V23.0994H151.754C151.754 22.9148 151.717 22.75 151.643 22.6051C151.571 22.4602 151.467 22.3459 151.332 22.2621C151.199 22.1783 151.041 22.1364 150.859 22.1364C150.659 22.1364 150.486 22.1861 150.339 22.2855C150.195 22.3835 150.083 22.5114 150.005 22.669C149.927 22.8267 149.888 22.9957 149.888 23.1761V23.4659C149.888 23.7131 149.93 23.9226 150.016 24.0945C150.102 24.2649 150.222 24.3949 150.376 24.4844C150.529 24.5724 150.707 24.6165 150.911 24.6165C151.043 24.6165 151.162 24.598 151.268 24.5611C151.376 24.5227 151.469 24.4659 151.548 24.3906C151.626 24.3139 151.686 24.2187 151.729 24.1051L152.214 24.2415C152.163 24.4062 152.077 24.5511 151.957 24.6761C151.836 24.7997 151.687 24.8963 151.509 24.9659C151.332 25.0341 151.132 25.0682 150.911 25.0682Z" fill="#878787"/>
<path d="M68.6136 41.6364V35.6364H69.2614V36.3295H69.3409C69.3902 36.2538 69.4583 36.1572 69.5455 36.0398C69.6345 35.9205 69.7614 35.8144 69.9261 35.7216C70.0928 35.6269 70.3182 35.5795 70.6023 35.5795C70.9697 35.5795 71.2936 35.6714 71.5739 35.8551C71.8542 36.0388 72.0729 36.2992 72.2301 36.6364C72.3873 36.9735 72.4659 37.3712 72.4659 37.8295C72.4659 38.2917 72.3873 38.6922 72.2301 39.0312C72.0729 39.3684 71.8551 39.6297 71.5767 39.8153C71.2983 39.9991 70.9773 40.0909 70.6136 40.0909C70.3333 40.0909 70.1089 40.0445 69.9403 39.9517C69.7718 39.857 69.642 39.75 69.5511 39.6307C69.4602 39.5095 69.3902 39.4091 69.3409 39.3295H69.2841V41.6364H68.6136ZM69.2727 37.8182C69.2727 38.1477 69.321 38.4384 69.4176 38.6903C69.5142 38.9403 69.6553 39.1364 69.8409 39.2784C70.0265 39.4186 70.2538 39.4886 70.5227 39.4886C70.803 39.4886 71.0369 39.4148 71.2244 39.267C71.4138 39.1174 71.5559 38.9167 71.6506 38.6648C71.7472 38.411 71.7955 38.1288 71.7955 37.8182C71.7955 37.5114 71.7481 37.2348 71.6534 36.9886C71.5606 36.7405 71.4195 36.5445 71.2301 36.4006C71.0426 36.2547 70.8068 36.1818 70.5227 36.1818C70.25 36.1818 70.0208 36.2509 69.8352 36.3892C69.6496 36.5256 69.5095 36.7169 69.4148 36.9631C69.3201 37.2074 69.2727 37.4924 69.2727 37.8182ZM73.4886 40V35.6364H74.1364V36.2955H74.1818C74.2614 36.0795 74.4053 35.9044 74.6136 35.7699C74.822 35.6354 75.0568 35.5682 75.3182 35.5682C75.3674 35.5682 75.429 35.5691 75.5028 35.571C75.5767 35.5729 75.6326 35.5758 75.6705 35.5795V36.2614C75.6477 36.2557 75.5956 36.2472 75.5142 36.2358C75.4347 36.2225 75.3504 36.2159 75.2614 36.2159C75.0492 36.2159 74.8598 36.2604 74.6932 36.3494C74.5284 36.4366 74.3977 36.5578 74.3011 36.7131C74.2064 36.8665 74.1591 37.0417 74.1591 37.2386V40H73.4886ZM76.4652 40V35.6364H77.1357V40H76.4652ZM76.8061 34.9091C76.6754 34.9091 76.5627 34.8646 76.468 34.7756C76.3752 34.6866 76.3288 34.5795 76.3288 34.4545C76.3288 34.3295 76.3752 34.2225 76.468 34.1335C76.5627 34.0445 76.6754 34 76.8061 34C76.9368 34 77.0485 34.0445 77.1413 34.1335C77.236 34.2225 77.2834 34.3295 77.2834 34.4545C77.2834 34.5795 77.236 34.6866 77.1413 34.7756C77.0485 34.8646 76.9368 34.9091 76.8061 34.9091ZM79.0341 37.375V40H78.3636V35.6364H79.0114V36.3182H79.0682C79.1705 36.0966 79.3258 35.9186 79.5341 35.7841C79.7424 35.6477 80.0114 35.5795 80.3409 35.5795C80.6364 35.5795 80.8949 35.6402 81.1165 35.7614C81.3381 35.8807 81.5104 36.0625 81.6335 36.3068C81.7566 36.5492 81.8182 36.8561 81.8182 37.2273V40H81.1477V37.2727C81.1477 36.9299 81.0587 36.6629 80.8807 36.4716C80.7027 36.2784 80.4583 36.1818 80.1477 36.1818C79.9337 36.1818 79.7424 36.2282 79.5739 36.321C79.4072 36.4138 79.2756 36.5492 79.179 36.7273C79.0824 36.9053 79.0341 37.1212 79.0341 37.375ZM84.9411 35.6364V36.2045H82.6797V35.6364H84.9411ZM83.3388 34.5909H84.0092V38.75C84.0092 38.9394 84.0367 39.0814 84.0916 39.1761C84.1484 39.2689 84.2204 39.3314 84.3075 39.3636C84.3965 39.3939 84.4903 39.4091 84.5888 39.4091C84.6626 39.4091 84.7232 39.4053 84.7706 39.3977C84.8179 39.3883 84.8558 39.3807 84.8842 39.375L85.0206 39.9773C84.9751 39.9943 84.9117 40.0114 84.8303 40.0284C84.7488 40.0473 84.6456 40.0568 84.5206 40.0568C84.3312 40.0568 84.1456 40.0161 83.9638 39.9347C83.7839 39.8532 83.6342 39.7292 83.5149 39.5625C83.3975 39.3958 83.3388 39.1856 83.3388 38.9318V34.5909ZM86.1882 37.5455C86.1882 36.8295 86.281 36.1714 86.4666 35.571C86.6541 34.9687 86.9212 34.4148 87.2678 33.9091H87.8587C87.7223 34.0966 87.5945 34.3277 87.4751 34.6023C87.3577 34.875 87.2545 35.1752 87.1655 35.5028C87.0765 35.8286 87.0064 36.1657 86.9553 36.5142C86.906 36.8627 86.8814 37.2064 86.8814 37.5455C86.8814 37.9962 86.925 38.4536 87.0121 38.9176C87.0992 39.3816 87.2166 39.8125 87.3643 40.2102C87.5121 40.608 87.6768 40.9318 87.8587 41.1818H87.2678C86.9212 40.6761 86.6541 40.1231 86.4666 39.5227C86.281 38.9205 86.1882 38.2614 86.1882 37.5455ZM90.6548 40.0795C90.3215 40.0795 90.0213 40.0133 89.7543 39.8807C89.4872 39.7481 89.2732 39.5663 89.1122 39.3352C88.9512 39.1042 88.8632 38.8409 88.848 38.5455H89.5298C89.5563 38.8087 89.6757 39.0265 89.8878 39.1989C90.1018 39.3693 90.3575 39.4545 90.6548 39.4545C90.8935 39.4545 91.1056 39.3987 91.2912 39.2869C91.4787 39.1752 91.6255 39.0218 91.7315 38.8267C91.8395 38.6297 91.8935 38.4072 91.8935 38.1591C91.8935 37.9053 91.8376 37.679 91.7259 37.4801C91.616 37.2794 91.4645 37.1212 91.2713 37.0057C91.0781 36.8902 90.8575 36.8314 90.6094 36.8295C90.4313 36.8277 90.2486 36.8551 90.0611 36.9119C89.8736 36.9669 89.7192 37.0379 89.598 37.125L88.9389 37.0455L89.2912 34.1818H92.3139V34.8068H89.8821L89.6776 36.5227H89.7116C89.831 36.428 89.9806 36.3494 90.1605 36.2869C90.3404 36.2244 90.5279 36.1932 90.723 36.1932C91.0791 36.1932 91.3963 36.2784 91.6747 36.4489C91.955 36.6174 92.1747 36.8485 92.3338 37.142C92.4948 37.4356 92.5753 37.7708 92.5753 38.1477C92.5753 38.5189 92.492 38.8504 92.3253 39.142C92.1605 39.4318 91.9332 39.661 91.6435 39.8295C91.3537 39.9962 91.0241 40.0795 90.6548 40.0795ZM96.8516 34.1818L96.7947 38.3636H96.1357L96.0788 34.1818H96.8516ZM96.4652 40.0455C96.325 40.0455 96.2048 39.9953 96.1044 39.8949C96.004 39.7945 95.9538 39.6742 95.9538 39.5341C95.9538 39.3939 96.004 39.2737 96.1044 39.1733C96.2048 39.0729 96.325 39.0227 96.4652 39.0227C96.6054 39.0227 96.7256 39.0729 96.826 39.1733C96.9264 39.2737 96.9766 39.3939 96.9766 39.5341C96.9766 39.6269 96.9529 39.7121 96.9055 39.7898C96.8601 39.8674 96.7985 39.9299 96.7209 39.9773C96.6451 40.0227 96.5599 40.0455 96.4652 40.0455ZM98.4645 36.5568V35.9432H101.964V36.5568H98.4645ZM98.4645 38.2386V37.625H101.964V38.2386H98.4645ZM105.704 40V39.4886L107.624 37.3864C107.85 37.1402 108.035 36.9261 108.181 36.7443C108.327 36.5606 108.435 36.3883 108.505 36.2273C108.577 36.0644 108.613 35.8939 108.613 35.7159C108.613 35.5114 108.564 35.3343 108.465 35.1847C108.369 35.035 108.236 34.9195 108.067 34.8381C107.899 34.7566 107.71 34.7159 107.499 34.7159C107.276 34.7159 107.081 34.7623 106.914 34.8551C106.749 34.946 106.621 35.0739 106.531 35.2386C106.442 35.4034 106.397 35.5966 106.397 35.8182H105.727C105.727 35.4773 105.805 35.178 105.962 34.9205C106.12 34.6629 106.334 34.4621 106.604 34.3182C106.877 34.1742 107.183 34.1023 107.522 34.1023C107.863 34.1023 108.165 34.1742 108.428 34.3182C108.692 34.4621 108.898 34.6562 109.048 34.9006C109.197 35.1449 109.272 35.4167 109.272 35.7159C109.272 35.9299 109.233 36.1392 109.156 36.3438C109.08 36.5464 108.947 36.7727 108.758 37.0227C108.57 37.2708 108.31 37.5739 107.977 37.9318L106.67 39.3295V39.375H109.374V40H105.704ZM111.991 37.0909C111.991 37.8068 111.897 38.4659 111.71 39.0682C111.524 39.6686 111.258 40.2216 110.911 40.7273H110.32C110.457 40.5398 110.584 40.3087 110.701 40.0341C110.82 39.7614 110.924 39.4621 111.013 39.1364C111.103 38.8087 111.172 38.4706 111.221 38.1222C111.272 37.7718 111.298 37.428 111.298 37.0909C111.298 36.6402 111.254 36.1828 111.167 35.7188C111.08 35.2547 110.962 34.8239 110.815 34.4261C110.667 34.0284 110.502 33.7045 110.32 33.4545H110.911C111.258 33.9602 111.524 34.5142 111.71 35.1165C111.897 35.7169 111.991 36.375 111.991 37.0909Z" fill="white"/>
<path d="M118.443 38.4659L115.699 39.8636V39.3182L117.804 38.304L117.787 38.3381V38.2528L117.804 38.2869L115.699 37.2727V36.7273L118.443 38.125V38.4659ZM122.398 38.4659L119.654 39.8636V39.3182L121.759 38.304L121.742 38.3381V38.2528L121.759 38.2869L119.654 37.2727V36.7273L122.398 38.125V38.4659ZM128.951 35.044H129.449V37.81H128.951V35.044ZM127.235 35.308H127.775C127.775 36.676 126.833 37.552 125.249 37.936L125.075 37.528C126.479 37.204 127.235 36.49 127.235 35.554V35.308ZM125.357 35.308H127.463V35.716H125.357V35.308ZM127.583 35.824H129.035V36.22H127.583V35.824ZM127.535 36.862H129.005V37.252H127.535V36.862ZM125.957 38.062H129.449V39.394H126.467V40.258H125.975V39.01H128.957V38.464H125.957V38.062ZM125.975 40.018H129.629V40.414H125.975V40.018ZM130.751 35.638H133.205V36.04H130.751V35.638ZM131.597 37.186H132.089V39.022H131.597V37.186ZM133.001 35.638H133.487V35.926C133.487 36.37 133.487 37.078 133.331 38.086L132.839 38.038C133.001 37.06 133.001 36.364 133.001 35.926V35.638ZM134.171 35.044H134.663V40.468H134.171V35.044ZM134.531 37.312H135.533V37.732H134.531V37.312ZM130.511 39.286L130.451 38.866C131.435 38.866 132.743 38.848 133.841 38.71L133.865 39.076C132.743 39.256 131.471 39.28 130.511 39.286ZM136.557 39.4418C136.452 39.4418 136.362 39.4041 136.287 39.3288C136.211 39.2536 136.174 39.1634 136.174 39.0582C136.174 38.9531 136.211 38.8629 136.287 38.7876C136.362 38.7124 136.452 38.6747 136.557 38.6747C136.662 38.6747 136.752 38.7124 136.828 38.7876C136.903 38.8629 136.941 38.9531 136.941 39.0582C136.941 39.1278 136.923 39.1918 136.887 39.25C136.853 39.3082 136.807 39.3551 136.749 39.3906C136.692 39.4247 136.628 39.4418 136.557 39.4418ZM136.557 37.2344C136.452 37.2344 136.362 37.1967 136.287 37.1214C136.211 37.0462 136.174 36.956 136.174 36.8509C136.174 36.7457 136.211 36.6555 136.287 36.5803C136.362 36.505 136.452 36.4673 136.557 36.4673C136.662 36.4673 136.752 36.505 136.828 36.5803C136.903 36.6555 136.941 36.7457 136.941 36.8509C136.941 36.9205 136.923 36.9844 136.887 37.0426C136.853 37.1009 136.807 37.1477 136.749 37.1832C136.692 37.2173 136.628 37.2344 136.557 37.2344ZM139.36 36.1051V35.6364H142.633V36.1051H141.261V40H140.732V36.1051H139.36ZM143.04 40V36.7273H143.526V37.2216H143.56C143.62 37.0597 143.728 36.9283 143.884 36.8274C144.04 36.7266 144.216 36.6761 144.412 36.6761C144.449 36.6761 144.496 36.6768 144.551 36.6783C144.606 36.6797 144.648 36.6818 144.677 36.6847V37.196C144.66 37.1918 144.621 37.1854 144.559 37.1768C144.5 37.1669 144.437 37.1619 144.37 37.1619C144.211 37.1619 144.069 37.1953 143.944 37.2621C143.82 37.3274 143.722 37.4183 143.65 37.5348C143.579 37.6499 143.543 37.7812 143.543 37.929V40H143.04ZM147.335 38.6619V36.7273H147.838V40H147.335V39.446H147.301C147.224 39.6122 147.105 39.7536 146.943 39.87C146.781 39.9851 146.577 40.0426 146.33 40.0426C146.125 40.0426 145.943 39.9979 145.784 39.9084C145.625 39.8175 145.5 39.6811 145.409 39.4993C145.318 39.3161 145.273 39.0852 145.273 38.8068V36.7273H145.776V38.7727C145.776 39.0114 145.842 39.2017 145.976 39.3438C146.111 39.4858 146.283 39.5568 146.491 39.5568C146.616 39.5568 146.744 39.5249 146.873 39.4609C147.004 39.397 147.113 39.299 147.201 39.1669C147.29 39.0348 147.335 38.8665 147.335 38.6619ZM150.131 40.0682C149.816 40.0682 149.544 39.9986 149.315 39.8594C149.088 39.7188 148.912 39.5227 148.789 39.2713C148.667 39.0185 148.606 38.7244 148.606 38.3892C148.606 38.054 148.667 37.7585 148.789 37.5028C148.912 37.2457 149.084 37.0455 149.305 36.902C149.526 36.7571 149.785 36.6847 150.08 36.6847C150.251 36.6847 150.419 36.7131 150.585 36.7699C150.751 36.8267 150.903 36.919 151.039 37.0469C151.175 37.1733 151.284 37.3409 151.365 37.5497C151.446 37.7585 151.486 38.0156 151.486 38.321V38.5341H148.964V38.0994H150.975C150.975 37.9148 150.938 37.75 150.864 37.6051C150.792 37.4602 150.688 37.3459 150.553 37.2621C150.42 37.1783 150.262 37.1364 150.08 37.1364C149.88 37.1364 149.706 37.1861 149.56 37.2855C149.415 37.3835 149.304 37.5114 149.226 37.669C149.148 37.8267 149.108 37.9957 149.108 38.1761V38.4659C149.108 38.7131 149.151 38.9226 149.236 39.0945C149.323 39.2649 149.443 39.3949 149.596 39.4844C149.75 39.5724 149.928 39.6165 150.131 39.6165C150.263 39.6165 150.383 39.598 150.489 39.5611C150.597 39.5227 150.69 39.4659 150.768 39.3906C150.846 39.3139 150.907 39.2187 150.949 39.1051L151.435 39.2415C151.384 39.4062 151.298 39.5511 151.177 39.6761C151.057 39.7997 150.907 39.8963 150.73 39.9659C150.552 40.0341 150.353 40.0682 150.131 40.0682Z" fill="#878787"/>
<path d="M39.949 33.557H40.705V41.711H39.949V33.557ZM40.525 36.77H42.037V37.4H40.525V36.77ZM34.792 39.056H35.431C36.934 39.056 37.987 39.002 39.202 38.777L39.283 39.407C38.032 39.641 36.961 39.686 35.431 39.686H34.792V39.056ZM34.792 34.349H38.572V34.961H35.53V39.335H34.792V34.349ZM42.7293 40.055H50.1003V40.685H42.7293V40.055ZM43.6203 34.187H49.1913V36.653H44.3853V38.282H43.6473V36.059H48.4533V34.799H43.6203V34.187ZM43.6473 37.967H49.3803V38.579H43.6473V37.967ZM56.5076 33.557H57.2636V41.711H56.5076V33.557ZM57.0836 36.77H58.5956V37.4H57.0836V36.77ZM51.3506 39.056H51.9896C53.4926 39.056 54.5456 39.002 55.7606 38.777L55.8416 39.407C54.5906 39.641 53.5196 39.686 51.9896 39.686H51.3506V39.056ZM51.3506 34.349H55.1306V34.961H52.0886V39.335H51.3506V34.349Z" fill="white"/>
<path d="M105.69 5.528H107.274V6.149H105.69V5.528ZM105.69 8.003H107.274V8.624H105.69V8.003ZM108.642 3.566H109.362V11.702H108.642V3.566ZM107.049 3.737H107.751V11.297H107.049V3.737ZM104.277 4.241C105.33 4.241 106.014 5.33 106.014 7.076C106.014 8.822 105.33 9.911 104.277 9.911C103.224 9.911 102.549 8.822 102.549 7.076C102.549 5.33 103.224 4.241 104.277 4.241ZM104.277 4.934C103.638 4.934 103.224 5.762 103.224 7.076C103.224 8.39 103.638 9.218 104.277 9.218C104.925 9.218 105.33 8.39 105.33 7.076C105.33 5.762 104.925 4.934 104.277 4.934ZM112.871 4.268H113.483V5.726C113.483 7.598 112.475 9.335 111.143 10.01L110.684 9.398C111.89 8.822 112.871 7.265 112.871 5.726V4.268ZM112.997 4.268H113.609V5.726C113.609 7.211 114.581 8.705 115.787 9.263L115.337 9.857C114.014 9.209 112.997 7.535 112.997 5.726V4.268ZM116.633 3.557H117.38V11.711H116.633V3.557Z" fill="white"/>
</svg>
