<svg width="156" height="61" viewBox="0 0 156 61" fill="none" xmlns="http://www.w3.org/2000/svg">
<rect x="0.5" y="0.5" width="29" height="15" fill="#202020" stroke="#878787"/>
<rect x="29.5" y="0.5" width="35" height="15" fill="#202020" stroke="#878787"/>
<rect x="64.5" y="0.5" width="91" height="15" fill="#202020" stroke="#878787"/>
<rect x="0.5" y="15.5" width="29" height="15" fill="#21252B" stroke="#878787"/>
<rect x="29.5" y="15.5" width="35" height="15" fill="#21252B" stroke="#878787"/>
<rect x="64.5" y="15.5" width="91" height="15" fill="#21252B" stroke="#878787"/>
<rect x="0.5" y="30.5" width="29" height="15" fill="#21252B" stroke="#878787"/>
<rect x="29.5" y="30.5" width="35" height="15" fill="#21252B" stroke="#878787"/>
<rect x="64.5" y="30.5" width="91" height="15" fill="#21252B" stroke="#878787"/>
<rect x="0.5" y="45.5" width="29" height="15" fill="#21252B" stroke="#878787"/>
<rect x="29.5" y="45.5" width="35" height="15" fill="#21252B" stroke="#878787"/>
<rect x="64.5" y="45.5" width="91" height="15" fill="#21252B" stroke="#878787"/>
<path d="M13.372 3.566H14.119V11.702H13.372V3.566ZM10.987 4.439H11.725C11.725 6.797 10.663 8.858 7.945 10.19L7.549 9.587C9.898 8.453 10.987 6.725 10.987 4.565V4.439ZM7.918 4.439H11.311V5.051H7.918V4.439ZM16.0893 4.754H22.6953V5.366H16.0893V4.754ZM15.7293 10.136H23.1003V10.757H15.7293V10.136ZM19.0323 8.849H19.7703V10.379H19.0323V8.849ZM19.3923 5.915C21.0393 5.915 22.0563 6.482 22.0563 7.463C22.0563 8.444 21.0393 9.011 19.3923 9.011C17.7543 9.011 16.7373 8.444 16.7373 7.463C16.7373 6.482 17.7543 5.915 19.3923 5.915ZM19.3923 6.5C18.2133 6.5 17.4843 6.86 17.4843 7.463C17.4843 8.066 18.2133 8.417 19.3923 8.417C20.5803 8.417 21.3003 8.066 21.3003 7.463C21.3003 6.86 20.5803 6.5 19.3923 6.5ZM19.0323 3.701H19.7703V5.132H19.0323V3.701Z" fill="white"/>
<path d="M9.13494 25.1151C8.82386 25.1151 8.54155 25.0565 8.288 24.9393C8.03445 24.82 7.8331 24.6484 7.68395 24.4247C7.5348 24.1989 7.46023 23.9261 7.46023 23.6065C7.46023 23.3253 7.51563 23.0973 7.62642 22.9226C7.73722 22.7457 7.8853 22.6072 8.07067 22.5071C8.25604 22.407 8.46058 22.3324 8.6843 22.2834C8.91016 22.2322 9.13707 22.1918 9.36506 22.1619C9.66335 22.1236 9.90518 22.0948 10.0906 22.0756C10.2781 22.0543 10.4144 22.0192 10.4996 21.9702C10.587 21.9212 10.6307 21.8359 10.6307 21.7145V21.6889C10.6307 21.3736 10.5444 21.1286 10.3718 20.9538C10.2013 20.7791 9.94247 20.6918 9.59517 20.6918C9.23509 20.6918 8.95277 20.7706 8.74822 20.9283C8.54368 21.0859 8.39986 21.2543 8.31676 21.4332L7.60085 21.1776C7.72869 20.8793 7.89915 20.647 8.11222 20.4808C8.32741 20.3125 8.56179 20.1953 8.81534 20.1293C9.07102 20.0611 9.32244 20.027 9.5696 20.027C9.72727 20.027 9.90838 20.0462 10.1129 20.0845C10.3196 20.1207 10.5188 20.1964 10.7106 20.3114C10.9045 20.4265 11.0653 20.6001 11.1932 20.8324C11.321 21.0646 11.3849 21.3757 11.3849 21.7656V25H10.6307V24.3352H10.5923C10.5412 24.4418 10.456 24.5558 10.3366 24.6772C10.2173 24.7987 10.0586 24.902 9.86044 24.9872C9.66229 25.0724 9.42045 25.1151 9.13494 25.1151ZM9.25 24.4375C9.5483 24.4375 9.79972 24.3789 10.0043 24.2617C10.2109 24.1445 10.3665 23.9933 10.4709 23.8079C10.5774 23.6225 10.6307 23.4276 10.6307 23.223V22.5327C10.5987 22.571 10.5284 22.6062 10.4197 22.6381C10.3132 22.668 10.1896 22.6946 10.049 22.718C9.91051 22.7393 9.77521 22.7585 9.64311 22.7756C9.51314 22.7905 9.40767 22.8033 9.3267 22.8139C9.13068 22.8395 8.94744 22.881 8.77699 22.9386C8.60866 22.994 8.4723 23.0781 8.3679 23.1911C8.26563 23.3018 8.21449 23.4531 8.21449 23.6449C8.21449 23.907 8.31143 24.1051 8.50533 24.2393C8.70135 24.3714 8.94957 24.4375 9.25 24.4375ZM13.5159 22.0469V25H12.7616V20.0909H13.4903V20.858H13.5542C13.6693 20.6087 13.844 20.4084 14.0784 20.2571C14.3128 20.1037 14.6153 20.027 14.9861 20.027C15.3184 20.027 15.6093 20.0952 15.8586 20.2315C16.1079 20.3658 16.3018 20.5703 16.4403 20.8452C16.5787 21.1179 16.648 21.4631 16.648 21.8807V25H15.8937V21.9318C15.8937 21.5462 15.7936 21.2457 15.5933 21.0305C15.393 20.8132 15.1182 20.7045 14.7687 20.7045C14.528 20.7045 14.3128 20.7567 14.1231 20.8612C13.9356 20.9656 13.7876 21.1179 13.6789 21.3182C13.5702 21.5185 13.5159 21.7614 13.5159 22.0469ZM19.88 25.1023C19.4709 25.1023 19.1097 24.9989 18.7965 24.7923C18.4833 24.5835 18.2383 24.2894 18.0614 23.9102C17.8846 23.5288 17.7962 23.0781 17.7962 22.5582C17.7962 22.0426 17.8846 21.5952 18.0614 21.2159C18.2383 20.8366 18.4844 20.5437 18.7997 20.337C19.1151 20.1303 19.4794 20.027 19.8928 20.027C20.2124 20.027 20.4648 20.0803 20.6502 20.1868C20.8377 20.2912 20.9805 20.4105 21.0785 20.5447C21.1786 20.6768 21.2564 20.7855 21.3118 20.8707H21.3757V18.4545H22.13V25H21.4013V24.2457H21.3118C21.2564 24.3352 21.1776 24.4482 21.0753 24.5845C20.973 24.7187 20.8271 24.8391 20.6374 24.9457C20.4478 25.0501 20.1953 25.1023 19.88 25.1023ZM19.9822 24.4247C20.2848 24.4247 20.5405 24.3459 20.7493 24.1882C20.9581 24.0284 21.1168 23.8079 21.2255 23.5266C21.3342 23.2433 21.3885 22.9162 21.3885 22.5455C21.3885 22.179 21.3352 21.8583 21.2287 21.5835C21.1222 21.3065 20.9645 21.0913 20.7557 20.9379C20.5469 20.7823 20.2891 20.7045 19.9822 20.7045C19.6626 20.7045 19.3963 20.7866 19.1832 20.9506C18.9723 21.1126 18.8136 21.3331 18.707 21.6122C18.6026 21.8892 18.5504 22.2003 18.5504 22.5455C18.5504 22.8949 18.6037 23.2124 18.7102 23.4979C18.8189 23.7812 18.9787 24.0071 19.1896 24.1754C19.4027 24.3416 19.6669 24.4247 19.9822 24.4247Z" fill="white"/>
<path d="M13.6847 40.1023C13.2415 40.1023 12.8526 39.9968 12.5181 39.7859C12.1857 39.5749 11.9258 39.2798 11.7383 38.9006C11.5529 38.5213 11.4602 38.0781 11.4602 37.571C11.4602 37.0597 11.5529 36.6133 11.7383 36.2319C11.9258 35.8505 12.1857 35.5543 12.5181 35.3434C12.8526 35.1325 13.2415 35.027 13.6847 35.027C14.1278 35.027 14.5156 35.1325 14.848 35.3434C15.1825 35.5543 15.4425 35.8505 15.6278 36.2319C15.8153 36.6133 15.9091 37.0597 15.9091 37.571C15.9091 38.0781 15.8153 38.5213 15.6278 38.9006C15.4425 39.2798 15.1825 39.5749 14.848 39.7859C14.5156 39.9968 14.1278 40.1023 13.6847 40.1023ZM13.6847 39.4247C14.0213 39.4247 14.2983 39.3384 14.5156 39.1658C14.733 38.9933 14.8938 38.7663 14.9982 38.4851C15.1026 38.2038 15.1548 37.8991 15.1548 37.571C15.1548 37.2429 15.1026 36.9371 14.9982 36.6538C14.8938 36.3704 14.733 36.1413 14.5156 35.9666C14.2983 35.7919 14.0213 35.7045 13.6847 35.7045C13.348 35.7045 13.071 35.7919 12.8537 35.9666C12.6364 36.1413 12.4755 36.3704 12.3711 36.6538C12.2667 36.9371 12.2145 37.2429 12.2145 37.571C12.2145 37.8991 12.2667 38.2038 12.3711 38.4851C12.4755 38.7663 12.6364 38.9933 12.8537 39.1658C13.071 39.3384 13.348 39.4247 13.6847 39.4247ZM17.0605 40V35.0909H17.7892V35.8324H17.8403C17.9298 35.5895 18.0917 35.3924 18.3261 35.2411C18.5605 35.0898 18.8247 35.0142 19.1187 35.0142C19.1741 35.0142 19.2433 35.0153 19.3264 35.0174C19.4095 35.0195 19.4724 35.0227 19.515 35.027V35.794C19.4894 35.7876 19.4308 35.7781 19.3392 35.7653C19.2497 35.7504 19.1549 35.7429 19.0548 35.7429C18.8161 35.7429 18.6031 35.793 18.4156 35.8931C18.2302 35.9911 18.0832 36.1275 17.9745 36.3022C17.868 36.4748 17.8147 36.6719 17.8147 36.8935V40H17.0605Z" fill="white"/>
<path d="M9.4446 53.0469V56H8.69034V51.0909H9.41903V51.858H9.48295C9.59801 51.6087 9.77273 51.4084 10.0071 51.2571C10.2415 51.1037 10.544 51.027 10.9148 51.027C11.2472 51.027 11.538 51.0952 11.7873 51.2315C12.0366 51.3658 12.2305 51.5703 12.369 51.8452C12.5075 52.1179 12.5767 52.4631 12.5767 52.8807V56H11.8224V52.9318C11.8224 52.5462 11.7223 52.2457 11.522 52.0305C11.3217 51.8132 11.0469 51.7045 10.6974 51.7045C10.4567 51.7045 10.2415 51.7567 10.0518 51.8612C9.86435 51.9656 9.71626 52.1179 9.6076 52.3182C9.49893 52.5185 9.4446 52.7614 9.4446 53.0469ZM15.9493 56.1023C15.5061 56.1023 15.1173 55.9968 14.7828 55.7859C14.4504 55.5749 14.1904 55.2798 14.0029 54.9006C13.8176 54.5213 13.7249 54.0781 13.7249 53.571C13.7249 53.0597 13.8176 52.6133 14.0029 52.2319C14.1904 51.8505 14.4504 51.5543 14.7828 51.3434C15.1173 51.1325 15.5061 51.027 15.9493 51.027C16.3925 51.027 16.7803 51.1325 17.1127 51.3434C17.4472 51.5543 17.7071 51.8505 17.8925 52.2319C18.08 52.6133 18.1737 53.0597 18.1737 53.571C18.1737 54.0781 18.08 54.5213 17.8925 54.9006C17.7071 55.2798 17.4472 55.5749 17.1127 55.7859C16.7803 55.9968 16.3925 56.1023 15.9493 56.1023ZM15.9493 55.4247C16.286 55.4247 16.5629 55.3384 16.7803 55.1658C16.9976 54.9933 17.1585 54.7663 17.2629 54.4851C17.3673 54.2038 17.4195 53.8991 17.4195 53.571C17.4195 53.2429 17.3673 52.9371 17.2629 52.6538C17.1585 52.3704 16.9976 52.1413 16.7803 51.9666C16.5629 51.7919 16.286 51.7045 15.9493 51.7045C15.6127 51.7045 15.3357 51.7919 15.1183 51.9666C14.901 52.1413 14.7401 52.3704 14.6357 52.6538C14.5313 52.9371 14.4791 53.2429 14.4791 53.571C14.4791 53.8991 14.5313 54.2038 14.6357 54.4851C14.7401 54.7663 14.901 54.9933 15.1183 55.1658C15.3357 55.3384 15.6127 55.4247 15.9493 55.4247ZM21.46 51.0909V51.7301H18.916V51.0909H21.46ZM19.6575 49.9148H20.4118V54.5938C20.4118 54.8068 20.4426 54.9666 20.5044 55.0732C20.5684 55.1776 20.6493 55.2479 20.7473 55.2841C20.8475 55.3182 20.9529 55.3352 21.0637 55.3352C21.1468 55.3352 21.215 55.331 21.2683 55.3224C21.3216 55.3118 21.3642 55.3033 21.3961 55.2969L21.5495 55.9744C21.4984 55.9936 21.427 56.0128 21.3354 56.032C21.2438 56.0533 21.1277 56.0639 20.987 56.0639C20.774 56.0639 20.5652 56.0181 20.3606 55.9265C20.1582 55.8349 19.9899 55.6953 19.8556 55.5078C19.7235 55.3203 19.6575 55.0838 19.6575 54.7983V49.9148Z" fill="white"/>
<path d="M42.087 4.151C43.356 4.151 44.265 4.934 44.265 6.068C44.265 7.211 43.356 7.994 42.087 7.994C40.818 7.994 39.9 7.211 39.9 6.068C39.9 4.934 40.818 4.151 42.087 4.151ZM42.087 4.799C41.241 4.799 40.629 5.312 40.629 6.068C40.629 6.824 41.241 7.346 42.087 7.346C42.924 7.346 43.536 6.824 43.536 6.068C43.536 5.312 42.924 4.799 42.087 4.799ZM45.327 3.557H46.074V11.711H45.327V3.557ZM39.594 9.929L39.486 9.308C40.971 9.308 43.023 9.299 44.796 9.02L44.859 9.569C43.032 9.92 41.043 9.929 39.594 9.929ZM48.1883 4.358H51.9323V9.659H48.1883V4.358ZM51.2033 4.961H48.9173V9.056H51.2033V4.961ZM53.6333 3.557H54.3803V11.711H53.6333V3.557Z" fill="white"/>
<path d="M42.919 23.102H43.493V24.236H42.919V23.102ZM41.106 21.898H45.39V22.367H41.106V21.898ZM41.106 20.463H45.32V20.932H41.68V22.15H41.106V20.463ZM40.343 22.871H46.062V23.347H40.343V22.871ZM41.036 23.963H45.334V25.391H41.624V26.154H41.05V24.964H44.76V24.411H41.036V23.963ZM41.05 26.021H45.523V26.476H41.05V26.021ZM51.0665 20.211H51.6545V26.553H51.0665V20.211ZM51.5145 22.71H52.6905V23.2H51.5145V22.71ZM47.0555 24.488H47.5525C48.7215 24.488 49.5405 24.446 50.4855 24.271L50.5485 24.761C49.5755 24.943 48.7425 24.978 47.5525 24.978H47.0555V24.488ZM47.0555 20.827H49.9955V21.303H47.6295V24.705H47.0555V20.827Z" fill="white"/>
<path d="M44.676 50.225H45.257V54.866H44.676V50.225ZM45.075 52.136H46.195V52.619H45.075V52.136ZM41.316 55.93H45.544V56.406H41.316V55.93ZM41.316 54.418H41.897V56.042H41.316V54.418ZM40.609 50.673H41.183V51.73H42.968V50.673H43.535V53.809H40.609V50.673ZM41.183 52.185V53.34H42.968V52.185H41.183ZM50.1425 51.961H51.7385V52.437H50.1425V51.961ZM51.4095 50.225H51.9905V54.859H51.4095V50.225ZM47.9515 55.93H52.1655V56.406H47.9515V55.93ZM47.9515 54.453H48.5325V56.175H47.9515V54.453ZM48.3995 51.009H48.8755V51.52C48.8755 52.668 48.1615 53.662 47.1045 54.054L46.8035 53.592C47.7485 53.256 48.3995 52.416 48.3995 51.52V51.009ZM48.5115 51.009H48.9805V51.513C48.9805 52.332 49.5965 53.13 50.5135 53.452L50.2195 53.907C49.1905 53.536 48.5115 52.584 48.5115 51.513V51.009ZM46.9855 50.736H50.3665V51.205H46.9855V50.736Z" fill="white"/>
<path d="M67.4602 24.2273V19.7273H67.946V20.2472H68.0057C68.0426 20.1903 68.0938 20.1179 68.1591 20.0298C68.2259 19.9403 68.321 19.8608 68.4446 19.7912C68.5696 19.7202 68.7386 19.6847 68.9517 19.6847C69.2273 19.6847 69.4702 19.7536 69.6804 19.8913C69.8906 20.0291 70.0547 20.2244 70.1726 20.4773C70.2905 20.7301 70.3494 21.0284 70.3494 21.3722C70.3494 21.7188 70.2905 22.0192 70.1726 22.2734C70.0547 22.5263 69.8913 22.7223 69.6825 22.8615C69.4737 22.9993 69.233 23.0682 68.9602 23.0682C68.75 23.0682 68.5817 23.0334 68.4553 22.9638C68.3288 22.8928 68.2315 22.8125 68.1634 22.723C68.0952 22.6321 68.0426 22.5568 68.0057 22.4972H67.9631V24.2273H67.4602ZM67.9545 21.3636C67.9545 21.6108 67.9908 21.8288 68.0632 22.0178C68.1357 22.2053 68.2415 22.3523 68.3807 22.4588C68.5199 22.5639 68.6903 22.6165 68.892 22.6165C69.1023 22.6165 69.2777 22.5611 69.4183 22.4503C69.5604 22.3381 69.6669 22.1875 69.7379 21.9986C69.8104 21.8082 69.8466 21.5966 69.8466 21.3636C69.8466 21.1335 69.8111 20.9261 69.7401 20.7415C69.6705 20.5554 69.5646 20.4084 69.4226 20.3004C69.282 20.1911 69.1051 20.1364 68.892 20.1364C68.6875 20.1364 68.5156 20.1882 68.3764 20.2919C68.2372 20.3942 68.1321 20.5376 68.0611 20.7223C67.9901 20.9055 67.9545 21.1193 67.9545 21.3636ZM71.1165 23V19.7273H71.6023V20.2216H71.6364C71.696 20.0597 71.804 19.9283 71.9602 19.8274C72.1165 19.7266 72.2926 19.6761 72.4886 19.6761C72.5256 19.6761 72.5717 19.6768 72.6271 19.6783C72.6825 19.6797 72.7244 19.6818 72.7528 19.6847V20.196C72.7358 20.1918 72.6967 20.1854 72.6357 20.1768C72.576 20.1669 72.5128 20.1619 72.446 20.1619C72.2869 20.1619 72.1449 20.1953 72.0199 20.2621C71.8963 20.3274 71.7983 20.4183 71.7259 20.5348C71.6548 20.6499 71.6193 20.7812 71.6193 20.929V23H71.1165ZM73.3489 23V19.7273H73.8517V23H73.3489ZM73.6046 19.1818C73.5066 19.1818 73.4221 19.1484 73.351 19.0817C73.2814 19.0149 73.2466 18.9347 73.2466 18.8409C73.2466 18.7472 73.2814 18.6669 73.351 18.6001C73.4221 18.5334 73.5066 18.5 73.6046 18.5C73.7026 18.5 73.7864 18.5334 73.856 18.6001C73.927 18.6669 73.9625 18.7472 73.9625 18.8409C73.9625 18.9347 73.927 19.0149 73.856 19.0817C73.7864 19.1484 73.7026 19.1818 73.6046 19.1818ZM75.2756 21.0312V23H74.7727V19.7273H75.2585V20.2386H75.3011C75.3778 20.0724 75.4943 19.9389 75.6506 19.8381C75.8068 19.7358 76.0085 19.6847 76.2557 19.6847C76.4773 19.6847 76.6712 19.7301 76.8374 19.821C77.0036 19.9105 77.1328 20.0469 77.2251 20.2301C77.3175 20.4119 77.3636 20.642 77.3636 20.9205V23H76.8608V20.9545C76.8608 20.6974 76.794 20.4972 76.6605 20.3537C76.527 20.2088 76.3438 20.1364 76.1108 20.1364C75.9503 20.1364 75.8068 20.1712 75.6804 20.2408C75.5554 20.3104 75.4567 20.4119 75.3842 20.5455C75.3118 20.679 75.2756 20.8409 75.2756 21.0312ZM79.7058 19.7273V20.1534H78.0098V19.7273H79.7058ZM78.5041 18.9432H79.0069V22.0625C79.0069 22.2045 79.0275 22.3111 79.0687 22.3821C79.1113 22.4517 79.1653 22.4986 79.2306 22.5227C79.2974 22.5455 79.3677 22.5568 79.4416 22.5568C79.497 22.5568 79.5424 22.554 79.5779 22.5483C79.6135 22.5412 79.6419 22.5355 79.6632 22.5312L79.7654 22.983C79.7314 22.9957 79.6838 23.0085 79.6227 23.0213C79.5616 23.0355 79.4842 23.0426 79.3904 23.0426C79.2484 23.0426 79.1092 23.0121 78.9728 22.951C78.8379 22.8899 78.7257 22.7969 78.6362 22.6719C78.5481 22.5469 78.5041 22.3892 78.5041 22.1989V18.9432ZM80.6412 21.1591C80.6412 20.6222 80.7108 20.1286 80.85 19.6783C80.9906 19.2266 81.1909 18.8111 81.4508 18.4318H81.894C81.7917 18.5724 81.6958 18.7457 81.6064 18.9517C81.5183 19.1562 81.4409 19.3814 81.3741 19.6271C81.3074 19.8714 81.2548 20.1243 81.2164 20.3857C81.1795 20.647 81.161 20.9048 81.161 21.1591C81.161 21.4972 81.1937 21.8402 81.2591 22.1882C81.3244 22.5362 81.4125 22.8594 81.5233 23.1577C81.6341 23.456 81.7576 23.6989 81.894 23.8864H81.4508C81.1909 23.5071 80.9906 23.0923 80.85 22.642C80.7108 22.1903 80.6412 21.696 80.6412 21.1591ZM84.1019 23.0597C83.8207 23.0597 83.57 23.0114 83.3498 22.9148C83.131 22.8182 82.957 22.6839 82.8278 22.5121C82.6999 22.3388 82.6303 22.1378 82.619 21.9091H83.1559C83.1673 22.0497 83.2156 22.1712 83.3008 22.2734C83.386 22.3743 83.4975 22.4524 83.6353 22.5078C83.7731 22.5632 83.9258 22.5909 84.0934 22.5909C84.2809 22.5909 84.4471 22.5582 84.592 22.4929C84.7369 22.4276 84.8505 22.3366 84.9329 22.2202C85.0153 22.1037 85.0565 21.9688 85.0565 21.8153C85.0565 21.6548 85.0167 21.5135 84.9371 21.3913C84.8576 21.2678 84.7411 21.1712 84.5877 21.1016C84.4343 21.032 84.2468 20.9972 84.0252 20.9972H83.6758V20.5284H84.0252C84.1985 20.5284 84.3505 20.4972 84.4812 20.4347C84.6133 20.3722 84.7163 20.2841 84.7901 20.1705C84.8654 20.0568 84.9031 19.9233 84.9031 19.7699C84.9031 19.6222 84.8704 19.4936 84.805 19.3842C84.7397 19.2749 84.6474 19.1896 84.5281 19.1286C84.4102 19.0675 84.271 19.0369 84.1104 19.0369C83.9599 19.0369 83.8178 19.0646 83.6843 19.12C83.5522 19.174 83.4442 19.2528 83.3604 19.3565C83.2766 19.4588 83.2312 19.5824 83.2241 19.7273H82.7127C82.7212 19.4986 82.7901 19.2983 82.9194 19.1264C83.0487 18.9531 83.2177 18.8182 83.4265 18.7216C83.6367 18.625 83.8675 18.5767 84.119 18.5767C84.3888 18.5767 84.6204 18.6314 84.8136 18.7408C85.0067 18.8487 85.1552 18.9915 85.2589 19.169C85.3626 19.3466 85.4144 19.5384 85.4144 19.7443C85.4144 19.9901 85.3498 20.1996 85.2205 20.3729C85.0927 20.5462 84.9187 20.6662 84.6985 20.733V20.767C84.9741 20.8125 85.1893 20.9297 85.3441 21.1186C85.4989 21.3061 85.5763 21.5384 85.5763 21.8153C85.5763 22.0526 85.5117 22.2656 85.3825 22.4545C85.2546 22.642 85.0799 22.7898 84.8583 22.8977C84.6367 23.0057 84.3846 23.0597 84.1019 23.0597ZM88.2887 21.0568V20.7159L91.033 19.3182V19.8636L88.9279 20.8778L88.945 20.8438V20.929L88.9279 20.8949L91.033 21.9091V22.4545L88.2887 21.0568ZM95.1415 23.0597C94.8915 23.0597 94.6664 23.0099 94.4661 22.9105C94.2658 22.8111 94.1053 22.6747 93.9846 22.5014C93.8638 22.3281 93.7978 22.1307 93.7864 21.9091H94.2978C94.3176 22.1065 94.4071 22.2699 94.5662 22.3991C94.7267 22.527 94.9185 22.5909 95.1415 22.5909C95.3205 22.5909 95.4796 22.549 95.6188 22.4652C95.7594 22.3814 95.8695 22.2663 95.949 22.12C96.03 21.9723 96.0705 21.8054 96.0705 21.6193C96.0705 21.429 96.0286 21.2592 95.9448 21.1101C95.8624 20.9595 95.7488 20.8409 95.6039 20.7543C95.459 20.6676 95.2935 20.6236 95.1074 20.6222C94.9739 20.6207 94.8368 20.6413 94.6962 20.6839C94.5556 20.7251 94.4398 20.7784 94.3489 20.8438L93.8546 20.7841L94.1188 18.6364H96.3858V19.1051H94.562L94.4086 20.392H94.4341C94.5236 20.321 94.6358 20.2621 94.7708 20.2152C94.9057 20.1683 95.0463 20.1449 95.1926 20.1449C95.4597 20.1449 95.6976 20.2088 95.9064 20.3366C96.1167 20.4631 96.2814 20.6364 96.4007 20.8565C96.5215 21.0767 96.5819 21.3281 96.5819 21.6108C96.5819 21.8892 96.5194 22.1378 96.3944 22.3565C96.2708 22.5739 96.1003 22.7457 95.883 22.8722C95.6657 22.9972 95.4185 23.0597 95.1415 23.0597ZM100.087 23.0767C99.88 23.0767 99.6918 23.0376 99.5227 22.9595C99.3537 22.88 99.2195 22.7656 99.12 22.6165C99.0206 22.4659 98.9709 22.2841 98.9709 22.071C98.9709 21.8835 99.0078 21.7315 99.0817 21.6151C99.1555 21.4972 99.2543 21.4048 99.3778 21.3381C99.5014 21.2713 99.6378 21.2216 99.7869 21.1889C99.9375 21.1548 100.089 21.1278 100.241 21.108C100.44 21.0824 100.601 21.0632 100.724 21.0504C100.849 21.0362 100.94 21.0128 100.997 20.9801C101.055 20.9474 101.085 20.8906 101.085 20.8097V20.7926C101.085 20.5824 101.027 20.419 100.912 20.3026C100.798 20.1861 100.626 20.1278 100.394 20.1278C100.154 20.1278 99.9659 20.1804 99.8295 20.2855C99.6932 20.3906 99.5973 20.5028 99.5419 20.6222L99.0646 20.4517C99.1499 20.2528 99.2635 20.098 99.4055 19.9872C99.549 19.875 99.7053 19.7969 99.8743 19.7528C100.045 19.7074 100.212 19.6847 100.377 19.6847C100.482 19.6847 100.603 19.6974 100.739 19.723C100.877 19.7472 101.01 19.7976 101.138 19.8743C101.267 19.951 101.374 20.0668 101.46 20.2216C101.545 20.3764 101.587 20.5838 101.587 20.8438V23H101.085V22.5568H101.059C101.025 22.6278 100.968 22.7038 100.888 22.7848C100.809 22.8658 100.703 22.9347 100.571 22.9915C100.439 23.0483 100.278 23.0767 100.087 23.0767ZM100.164 22.625C100.363 22.625 100.531 22.5859 100.667 22.5078C100.805 22.4297 100.908 22.3288 100.978 22.2053C101.049 22.0817 101.085 21.9517 101.085 21.8153V21.3551C101.063 21.3807 101.016 21.4041 100.944 21.4254C100.873 21.4453 100.79 21.4631 100.697 21.4787C100.604 21.4929 100.514 21.5057 100.426 21.517C100.339 21.527 100.269 21.5355 100.215 21.5426C100.085 21.5597 99.9624 21.5874 99.8487 21.6257C99.7365 21.6626 99.6456 21.7187 99.576 21.794C99.5078 21.8679 99.4737 21.9687 99.4737 22.0966C99.4737 22.2713 99.5384 22.4034 99.6676 22.4929C99.7983 22.581 99.9638 22.625 100.164 22.625ZM103.008 21.0312V23H102.505V19.7273H102.991V20.2386H103.034C103.11 20.0724 103.227 19.9389 103.383 19.8381C103.539 19.7358 103.741 19.6847 103.988 19.6847C104.21 19.6847 104.404 19.7301 104.57 19.821C104.736 19.9105 104.865 20.0469 104.958 20.2301C105.05 20.4119 105.096 20.642 105.096 20.9205V23H104.593V20.9545C104.593 20.6974 104.526 20.4972 104.393 20.3537C104.259 20.2088 104.076 20.1364 103.843 20.1364C103.683 20.1364 103.539 20.1712 103.413 20.2408C103.288 20.3104 103.189 20.4119 103.117 20.5455C103.044 20.679 103.008 20.8409 103.008 21.0312ZM107.251 23.0682C106.978 23.0682 106.737 22.9993 106.528 22.8615C106.32 22.7223 106.156 22.5263 106.038 22.2734C105.92 22.0192 105.862 21.7188 105.862 21.3722C105.862 21.0284 105.92 20.7301 106.038 20.4773C106.156 20.2244 106.32 20.0291 106.531 19.8913C106.741 19.7536 106.984 19.6847 107.259 19.6847C107.472 19.6847 107.641 19.7202 107.764 19.7912C107.889 19.8608 107.984 19.9403 108.05 20.0298C108.116 20.1179 108.168 20.1903 108.205 20.2472H108.248V18.6364H108.751V23H108.265V22.4972H108.205C108.168 22.5568 108.116 22.6321 108.048 22.723C107.979 22.8125 107.882 22.8928 107.756 22.9638C107.629 23.0334 107.461 23.0682 107.251 23.0682ZM107.319 22.6165C107.521 22.6165 107.691 22.5639 107.83 22.4588C107.969 22.3523 108.075 22.2053 108.148 22.0178C108.22 21.8288 108.256 21.6108 108.256 21.3636C108.256 21.1193 108.221 20.9055 108.15 20.7223C108.079 20.5376 107.974 20.3942 107.835 20.2919C107.695 20.1882 107.523 20.1364 107.319 20.1364C107.106 20.1364 106.928 20.1911 106.786 20.3004C106.646 20.4084 106.54 20.5554 106.469 20.7415C106.399 20.9261 106.364 21.1335 106.364 21.3636C106.364 21.5966 106.4 21.8082 106.471 21.9986C106.543 22.1875 106.65 22.3381 106.79 22.4503C106.933 22.5611 107.109 22.6165 107.319 22.6165ZM111.557 23L113.509 19.1392V19.1051H111.259V18.6364H114.054V19.1307L112.111 23H111.557ZM116.689 21.0568V20.7159L119.433 19.3182V19.8636L117.328 20.8778L117.345 20.8438V20.929L117.328 20.8949L119.433 21.9091V22.4545L116.689 21.0568ZM123.542 23.0597C123.292 23.0597 123.067 23.0099 122.866 22.9105C122.666 22.8111 122.506 22.6747 122.385 22.5014C122.264 22.3281 122.198 22.1307 122.187 21.9091H122.698C122.718 22.1065 122.808 22.2699 122.967 22.3991C123.127 22.527 123.319 22.5909 123.542 22.5909C123.721 22.5909 123.88 22.549 124.019 22.4652C124.16 22.3814 124.27 22.2663 124.349 22.12C124.43 21.9723 124.471 21.8054 124.471 21.6193C124.471 21.429 124.429 21.2592 124.345 21.1101C124.263 20.9595 124.149 20.8409 124.004 20.7543C123.859 20.6676 123.694 20.6236 123.508 20.6222C123.374 20.6207 123.237 20.6413 123.097 20.6839C122.956 20.7251 122.84 20.7784 122.749 20.8438L122.255 20.7841L122.519 18.6364H124.786V19.1051H122.962L122.809 20.392H122.835C122.924 20.321 123.036 20.2621 123.171 20.2152C123.306 20.1683 123.447 20.1449 123.593 20.1449C123.86 20.1449 124.098 20.2088 124.307 20.3366C124.517 20.4631 124.682 20.6364 124.801 20.8565C124.922 21.0767 124.982 21.3281 124.982 21.6108C124.982 21.8892 124.92 22.1378 124.795 22.3565C124.671 22.5739 124.501 22.7457 124.283 22.8722C124.066 22.9972 123.819 23.0597 123.542 23.0597ZM126.911 20.8182C126.911 21.3551 126.841 21.8494 126.7 22.3011C126.561 22.7514 126.361 23.1662 126.101 23.5455H125.658C125.76 23.4048 125.856 23.2315 125.944 23.0256C126.033 22.821 126.111 22.5966 126.178 22.3523C126.245 22.1065 126.297 21.853 126.334 21.5916C126.372 21.3288 126.391 21.071 126.391 20.8182C126.391 20.4801 126.358 20.1371 126.293 19.7891C126.228 19.4411 126.14 19.1179 126.029 18.8196C125.918 18.5213 125.795 18.2784 125.658 18.0909H126.101C126.361 18.4702 126.561 18.8857 126.7 19.3374C126.841 19.7876 126.911 20.2812 126.911 20.8182Z" fill="white"/>
<path d="M69.233 26.9773L67.4034 27.9091V27.5455L68.8068 26.8693L68.7955 26.892V26.8352L68.8068 26.858L67.4034 26.1818V25.8182L69.233 26.75V26.9773ZM71.8697 26.9773L70.0401 27.9091V27.5455L71.4435 26.8693L71.4322 26.892V26.8352L71.4435 26.858L70.0401 26.1818V25.8182L71.8697 26.75V26.9773ZM76.2384 24.696H76.5704V26.54H76.2384V24.696ZM75.0944 24.872H75.4544C75.4544 25.784 74.8264 26.368 73.7704 26.624L73.6544 26.352C74.5904 26.136 75.0944 25.66 75.0944 25.036V24.872ZM73.8424 24.872H75.2464V25.144H73.8424V24.872ZM75.3264 25.216H76.2944V25.48H75.3264V25.216ZM75.2944 25.908H76.2744V26.168H75.2944V25.908ZM74.2424 26.708H76.5704V27.596H74.5824V28.172H74.2544V27.34H76.2424V26.976H74.2424V26.708ZM74.2544 28.012H76.6904V28.276H74.2544V28.012ZM77.4381 25.092H79.0741V25.36H77.4381V25.092ZM78.0021 26.124H78.3301V27.348H78.0021V26.124ZM78.9381 25.092H79.2621V25.284C79.2621 25.58 79.2621 26.052 79.1581 26.724L78.8301 26.692C78.9381 26.04 78.9381 25.576 78.9381 25.284V25.092ZM79.7181 24.696H80.0461V28.312H79.7181V24.696ZM79.9581 26.208H80.6261V26.488H79.9581V26.208ZM77.2781 27.524L77.2381 27.244C77.8941 27.244 78.7661 27.232 79.4981 27.14L79.5141 27.384C78.7661 27.504 77.9181 27.52 77.2781 27.524ZM81.3089 27.6278C81.2389 27.6278 81.1787 27.6027 81.1286 27.5526C81.0784 27.5024 81.0533 27.4422 81.0533 27.3722C81.0533 27.3021 81.0784 27.242 81.1286 27.1918C81.1787 27.1416 81.2389 27.1165 81.3089 27.1165C81.379 27.1165 81.4392 27.1416 81.4893 27.1918C81.5395 27.242 81.5646 27.3021 81.5646 27.3722C81.5646 27.4186 81.5528 27.4612 81.5291 27.5C81.5064 27.5388 81.4756 27.5701 81.4368 27.5938C81.3989 27.6165 81.3563 27.6278 81.3089 27.6278ZM81.3089 26.1562C81.2389 26.1562 81.1787 26.1312 81.1286 26.081C81.0784 26.0308 81.0533 25.9706 81.0533 25.9006C81.0533 25.8305 81.0784 25.7704 81.1286 25.7202C81.1787 25.67 81.2389 25.6449 81.3089 25.6449C81.379 25.6449 81.4392 25.67 81.4893 25.7202C81.5395 25.7704 81.5646 25.8305 81.5646 25.9006C81.5646 25.947 81.5528 25.9896 81.5291 26.0284C81.5064 26.0672 81.4756 26.0985 81.4368 26.1222C81.3989 26.1449 81.3563 26.1562 81.3089 26.1562ZM83.3366 28V25.0909H85.081V25.4034H83.6889V26.3864H84.9503V26.6989H83.6889V28H83.3366ZM86.2809 28.0511C86.1426 28.0511 86.0172 28.0251 85.9045 27.973C85.7918 27.92 85.7023 27.8438 85.636 27.7443C85.5697 27.6439 85.5366 27.5227 85.5366 27.3807C85.5366 27.2557 85.5612 27.1544 85.6104 27.0767C85.6597 26.9981 85.7255 26.9366 85.8079 26.892C85.8903 26.8475 85.9812 26.8144 86.0806 26.7926C86.181 26.7699 86.2818 26.7519 86.3832 26.7386C86.5157 26.7216 86.6232 26.7088 86.7056 26.7003C86.7889 26.6908 86.8496 26.6752 86.8874 26.6534C86.9263 26.6316 86.9457 26.5937 86.9457 26.5398V26.5284C86.9457 26.3883 86.9073 26.2794 86.8306 26.2017C86.7549 26.1241 86.6398 26.0852 86.4854 26.0852C86.3254 26.0852 86.1999 26.1203 86.109 26.1903C86.0181 26.2604 85.9542 26.3352 85.9173 26.4148L85.5991 26.3011C85.6559 26.1686 85.7317 26.0653 85.8263 25.9915C85.922 25.9167 86.0262 25.8646 86.1388 25.8352C86.2525 25.8049 86.3642 25.7898 86.4741 25.7898C86.5442 25.7898 86.6246 25.7983 86.7156 25.8153C86.8074 25.8314 86.896 25.8651 86.9812 25.9162C87.0674 25.9673 87.1388 26.0445 87.1957 26.1477C87.2525 26.2509 87.2809 26.3892 87.2809 26.5625V28H86.9457V27.7045H86.9286C86.9059 27.7519 86.868 27.8026 86.815 27.8565C86.762 27.9105 86.6914 27.9564 86.6033 27.9943C86.5153 28.0322 86.4078 28.0511 86.2809 28.0511ZM86.332 27.75C86.4646 27.75 86.5763 27.724 86.6673 27.6719C86.7591 27.6198 86.8282 27.5526 86.8746 27.4702C86.922 27.3878 86.9457 27.3011 86.9457 27.2102V26.9034C86.9315 26.9205 86.9002 26.9361 86.8519 26.9503C86.8046 26.9635 86.7496 26.9754 86.6871 26.9858C86.6256 26.9953 86.5655 27.0038 86.5067 27.0114C86.449 27.018 86.4021 27.0237 86.3661 27.0284C86.279 27.0398 86.1976 27.0582 86.1218 27.0838C86.047 27.1084 85.9864 27.1458 85.94 27.196C85.8945 27.2453 85.8718 27.3125 85.8718 27.3977C85.8718 27.5142 85.9149 27.6023 86.0011 27.6619C86.0882 27.7206 86.1985 27.75 86.332 27.75ZM88.228 25.0909V28H87.8928V25.0909H88.228ZM90.3874 26.3068L90.0863 26.392C90.0674 26.3419 90.0394 26.2931 90.0025 26.2457C89.9665 26.1974 89.9173 26.1577 89.8548 26.1264C89.7923 26.0952 89.7122 26.0795 89.6147 26.0795C89.4812 26.0795 89.3699 26.1103 89.2809 26.1719C89.1928 26.2325 89.1488 26.3097 89.1488 26.4034C89.1488 26.4867 89.1791 26.5526 89.2397 26.6009C89.3003 26.6491 89.395 26.6894 89.5238 26.7216L89.8477 26.8011C90.0427 26.8485 90.1881 26.9209 90.2837 27.0185C90.3794 27.1151 90.4272 27.2396 90.4272 27.392C90.4272 27.517 90.3912 27.6288 90.3192 27.7273C90.2482 27.8258 90.1488 27.9034 90.021 27.9602C89.8931 28.017 89.7444 28.0455 89.5749 28.0455C89.3524 28.0455 89.1682 27.9972 89.0224 27.9006C88.8765 27.804 88.7842 27.6629 88.7454 27.4773L89.0636 27.3977C89.0939 27.5152 89.1512 27.6032 89.2354 27.6619C89.3207 27.7206 89.4319 27.75 89.5692 27.75C89.7255 27.75 89.8496 27.7169 89.9414 27.6506C90.0342 27.5833 90.0806 27.5028 90.0806 27.4091C90.0806 27.3333 90.0541 27.2699 90.0011 27.2188C89.948 27.1667 89.8666 27.1278 89.7567 27.1023L89.3931 27.017C89.1933 26.9697 89.0465 26.8963 88.9528 26.7969C88.86 26.6965 88.8136 26.571 88.8136 26.4205C88.8136 26.2973 88.8481 26.1884 88.9173 26.0938C88.9873 25.9991 89.0825 25.9247 89.2028 25.8707C89.324 25.8168 89.4613 25.7898 89.6147 25.7898C89.8306 25.7898 90.0001 25.8371 90.1232 25.9318C90.2473 26.0265 90.3353 26.1515 90.3874 26.3068ZM91.8466 28.0455C91.6364 28.0455 91.455 27.9991 91.3026 27.9062C91.151 27.8125 91.0341 27.6818 90.9517 27.5142C90.8703 27.3456 90.8295 27.1496 90.8295 26.9261C90.8295 26.7027 90.8703 26.5057 90.9517 26.3352C91.0341 26.1638 91.1487 26.0303 91.2955 25.9347C91.4432 25.8381 91.6155 25.7898 91.8125 25.7898C91.9261 25.7898 92.0384 25.8087 92.1491 25.8466C92.2599 25.8845 92.3608 25.946 92.4517 26.0312C92.5426 26.1155 92.6151 26.2273 92.669 26.3665C92.723 26.5057 92.75 26.6771 92.75 26.8807V27.0227H91.0682V26.733H92.4091C92.4091 26.6098 92.3845 26.5 92.3352 26.4034C92.2869 26.3068 92.2178 26.2306 92.1278 26.1747C92.0388 26.1188 91.9337 26.0909 91.8125 26.0909C91.679 26.0909 91.5634 26.1241 91.4659 26.1903C91.3693 26.2557 91.295 26.3409 91.2429 26.446C91.1908 26.5511 91.1648 26.6638 91.1648 26.7841V26.9773C91.1648 27.142 91.1932 27.2817 91.25 27.3963C91.3078 27.5099 91.3878 27.5966 91.4901 27.6562C91.5923 27.715 91.7112 27.7443 91.8466 27.7443C91.9347 27.7443 92.0142 27.732 92.0852 27.7074C92.1572 27.6818 92.2192 27.6439 92.2713 27.5938C92.3234 27.5426 92.3636 27.4792 92.392 27.4034L92.7159 27.4943C92.6818 27.6042 92.6245 27.7008 92.544 27.7841C92.4635 27.8665 92.3641 27.9309 92.2457 27.9773C92.1274 28.0227 91.9943 28.0455 91.8466 28.0455Z" fill="#878787"/>
<path d="M67.4602 39.2273V34.7273H67.946V35.2472H68.0057C68.0426 35.1903 68.0938 35.1179 68.1591 35.0298C68.2259 34.9403 68.321 34.8608 68.4446 34.7912C68.5696 34.7202 68.7386 34.6847 68.9517 34.6847C69.2273 34.6847 69.4702 34.7536 69.6804 34.8913C69.8906 35.0291 70.0547 35.2244 70.1726 35.4773C70.2905 35.7301 70.3494 36.0284 70.3494 36.3722C70.3494 36.7188 70.2905 37.0192 70.1726 37.2734C70.0547 37.5263 69.8913 37.7223 69.6825 37.8615C69.4737 37.9993 69.233 38.0682 68.9602 38.0682C68.75 38.0682 68.5817 38.0334 68.4553 37.9638C68.3288 37.8928 68.2315 37.8125 68.1634 37.723C68.0952 37.6321 68.0426 37.5568 68.0057 37.4972H67.9631V39.2273H67.4602ZM67.9545 36.3636C67.9545 36.6108 67.9908 36.8288 68.0632 37.0178C68.1357 37.2053 68.2415 37.3523 68.3807 37.4588C68.5199 37.5639 68.6903 37.6165 68.892 37.6165C69.1023 37.6165 69.2777 37.5611 69.4183 37.4503C69.5604 37.3381 69.6669 37.1875 69.7379 36.9986C69.8104 36.8082 69.8466 36.5966 69.8466 36.3636C69.8466 36.1335 69.8111 35.9261 69.7401 35.7415C69.6705 35.5554 69.5646 35.4084 69.4226 35.3004C69.282 35.1911 69.1051 35.1364 68.892 35.1364C68.6875 35.1364 68.5156 35.1882 68.3764 35.2919C68.2372 35.3942 68.1321 35.5376 68.0611 35.7223C67.9901 35.9055 67.9545 36.1193 67.9545 36.3636ZM71.1165 38V34.7273H71.6023V35.2216H71.6364C71.696 35.0597 71.804 34.9283 71.9602 34.8274C72.1165 34.7266 72.2926 34.6761 72.4886 34.6761C72.5256 34.6761 72.5717 34.6768 72.6271 34.6783C72.6825 34.6797 72.7244 34.6818 72.7528 34.6847V35.196C72.7358 35.1918 72.6967 35.1854 72.6357 35.1768C72.576 35.1669 72.5128 35.1619 72.446 35.1619C72.2869 35.1619 72.1449 35.1953 72.0199 35.2621C71.8963 35.3274 71.7983 35.4183 71.7259 35.5348C71.6548 35.6499 71.6193 35.7812 71.6193 35.929V38H71.1165ZM73.3489 38V34.7273H73.8517V38H73.3489ZM73.6046 34.1818C73.5066 34.1818 73.4221 34.1484 73.351 34.0817C73.2814 34.0149 73.2466 33.9347 73.2466 33.8409C73.2466 33.7472 73.2814 33.6669 73.351 33.6001C73.4221 33.5334 73.5066 33.5 73.6046 33.5C73.7026 33.5 73.7864 33.5334 73.856 33.6001C73.927 33.6669 73.9625 33.7472 73.9625 33.8409C73.9625 33.9347 73.927 34.0149 73.856 34.0817C73.7864 34.1484 73.7026 34.1818 73.6046 34.1818ZM75.2756 36.0312V38H74.7727V34.7273H75.2585V35.2386H75.3011C75.3778 35.0724 75.4943 34.9389 75.6506 34.8381C75.8068 34.7358 76.0085 34.6847 76.2557 34.6847C76.4773 34.6847 76.6712 34.7301 76.8374 34.821C77.0036 34.9105 77.1328 35.0469 77.2251 35.2301C77.3175 35.4119 77.3636 35.642 77.3636 35.9205V38H76.8608V35.9545C76.8608 35.6974 76.794 35.4972 76.6605 35.3537C76.527 35.2088 76.3438 35.1364 76.1108 35.1364C75.9503 35.1364 75.8068 35.1712 75.6804 35.2408C75.5554 35.3104 75.4567 35.4119 75.3842 35.5455C75.3118 35.679 75.2756 35.8409 75.2756 36.0312ZM79.7058 34.7273V35.1534H78.0098V34.7273H79.7058ZM78.5041 33.9432H79.0069V37.0625C79.0069 37.2045 79.0275 37.3111 79.0687 37.3821C79.1113 37.4517 79.1653 37.4986 79.2306 37.5227C79.2974 37.5455 79.3677 37.5568 79.4416 37.5568C79.497 37.5568 79.5424 37.554 79.5779 37.5483C79.6135 37.5412 79.6419 37.5355 79.6632 37.5312L79.7654 37.983C79.7314 37.9957 79.6838 38.0085 79.6227 38.0213C79.5616 38.0355 79.4842 38.0426 79.3904 38.0426C79.2484 38.0426 79.1092 38.0121 78.9728 37.951C78.8379 37.8899 78.7257 37.7969 78.6362 37.6719C78.5481 37.5469 78.5041 37.3892 78.5041 37.1989V33.9432ZM80.6412 36.1591C80.6412 35.6222 80.7108 35.1286 80.85 34.6783C80.9906 34.2266 81.1909 33.8111 81.4508 33.4318H81.894C81.7917 33.5724 81.6958 33.7457 81.6064 33.9517C81.5183 34.1562 81.4409 34.3814 81.3741 34.6271C81.3074 34.8714 81.2548 35.1243 81.2164 35.3857C81.1795 35.647 81.161 35.9048 81.161 36.1591C81.161 36.4972 81.1937 36.8402 81.2591 37.1882C81.3244 37.5362 81.4125 37.8594 81.5233 38.1577C81.6341 38.456 81.7576 38.6989 81.894 38.8864H81.4508C81.1909 38.5071 80.9906 38.0923 80.85 37.642C80.7108 37.1903 80.6412 36.696 80.6412 36.1591ZM84.1019 38.0597C83.8207 38.0597 83.57 38.0114 83.3498 37.9148C83.131 37.8182 82.957 37.6839 82.8278 37.5121C82.6999 37.3388 82.6303 37.1378 82.619 36.9091H83.1559C83.1673 37.0497 83.2156 37.1712 83.3008 37.2734C83.386 37.3743 83.4975 37.4524 83.6353 37.5078C83.7731 37.5632 83.9258 37.5909 84.0934 37.5909C84.2809 37.5909 84.4471 37.5582 84.592 37.4929C84.7369 37.4276 84.8505 37.3366 84.9329 37.2202C85.0153 37.1037 85.0565 36.9688 85.0565 36.8153C85.0565 36.6548 85.0167 36.5135 84.9371 36.3913C84.8576 36.2678 84.7411 36.1712 84.5877 36.1016C84.4343 36.032 84.2468 35.9972 84.0252 35.9972H83.6758V35.5284H84.0252C84.1985 35.5284 84.3505 35.4972 84.4812 35.4347C84.6133 35.3722 84.7163 35.2841 84.7901 35.1705C84.8654 35.0568 84.9031 34.9233 84.9031 34.7699C84.9031 34.6222 84.8704 34.4936 84.805 34.3842C84.7397 34.2749 84.6474 34.1896 84.5281 34.1286C84.4102 34.0675 84.271 34.0369 84.1104 34.0369C83.9599 34.0369 83.8178 34.0646 83.6843 34.12C83.5522 34.174 83.4442 34.2528 83.3604 34.3565C83.2766 34.4588 83.2312 34.5824 83.2241 34.7273H82.7127C82.7212 34.4986 82.7901 34.2983 82.9194 34.1264C83.0487 33.9531 83.2177 33.8182 83.4265 33.7216C83.6367 33.625 83.8675 33.5767 84.119 33.5767C84.3888 33.5767 84.6204 33.6314 84.8136 33.7408C85.0067 33.8487 85.1552 33.9915 85.2589 34.169C85.3626 34.3466 85.4144 34.5384 85.4144 34.7443C85.4144 34.9901 85.3498 35.1996 85.2205 35.3729C85.0927 35.5462 84.9187 35.6662 84.6985 35.733V35.767C84.9741 35.8125 85.1893 35.9297 85.3441 36.1186C85.4989 36.3061 85.5763 36.5384 85.5763 36.8153C85.5763 37.0526 85.5117 37.2656 85.3825 37.4545C85.2546 37.642 85.0799 37.7898 84.8583 37.8977C84.6367 38.0057 84.3846 38.0597 84.1019 38.0597ZM88.2887 36.0568V35.7159L91.033 34.3182V34.8636L88.9279 35.8778L88.945 35.8438V35.929L88.9279 35.8949L91.033 36.9091V37.4545L88.2887 36.0568ZM95.1415 38.0597C94.8915 38.0597 94.6664 38.0099 94.4661 37.9105C94.2658 37.8111 94.1053 37.6747 93.9846 37.5014C93.8638 37.3281 93.7978 37.1307 93.7864 36.9091H94.2978C94.3176 37.1065 94.4071 37.2699 94.5662 37.3991C94.7267 37.527 94.9185 37.5909 95.1415 37.5909C95.3205 37.5909 95.4796 37.549 95.6188 37.4652C95.7594 37.3814 95.8695 37.2663 95.949 37.12C96.03 36.9723 96.0705 36.8054 96.0705 36.6193C96.0705 36.429 96.0286 36.2592 95.9448 36.1101C95.8624 35.9595 95.7488 35.8409 95.6039 35.7543C95.459 35.6676 95.2935 35.6236 95.1074 35.6222C94.9739 35.6207 94.8368 35.6413 94.6962 35.6839C94.5556 35.7251 94.4398 35.7784 94.3489 35.8438L93.8546 35.7841L94.1188 33.6364H96.3858V34.1051H94.562L94.4086 35.392H94.4341C94.5236 35.321 94.6358 35.2621 94.7708 35.2152C94.9057 35.1683 95.0463 35.1449 95.1926 35.1449C95.4597 35.1449 95.6976 35.2088 95.9064 35.3366C96.1167 35.4631 96.2814 35.6364 96.4007 35.8565C96.5215 36.0767 96.5819 36.3281 96.5819 36.6108C96.5819 36.8892 96.5194 37.1378 96.3944 37.3565C96.2708 37.5739 96.1003 37.7457 95.883 37.8722C95.6657 37.9972 95.4185 38.0597 95.1415 38.0597ZM100.454 38.0682C100.158 38.0682 99.8991 37.9979 99.6761 37.8572C99.4545 37.7166 99.2812 37.5199 99.1562 37.267C99.0327 37.0142 98.9709 36.7187 98.9709 36.3807C98.9709 36.0398 99.0327 35.7422 99.1562 35.4879C99.2812 35.2337 99.4545 35.0362 99.6761 34.8956C99.8991 34.755 100.158 34.6847 100.454 34.6847C100.749 34.6847 101.008 34.755 101.229 34.8956C101.452 35.0362 101.626 35.2337 101.749 35.4879C101.874 35.7422 101.937 36.0398 101.937 36.3807C101.937 36.7187 101.874 37.0142 101.749 37.267C101.626 37.5199 101.452 37.7166 101.229 37.8572C101.008 37.9979 100.749 38.0682 100.454 38.0682ZM100.454 37.6165C100.678 37.6165 100.863 37.5589 101.008 37.4439C101.153 37.3288 101.26 37.1776 101.33 36.9901C101.399 36.8026 101.434 36.5994 101.434 36.3807C101.434 36.1619 101.399 35.9581 101.33 35.7692C101.26 35.5803 101.153 35.4276 101.008 35.3111C100.863 35.1946 100.678 35.1364 100.454 35.1364C100.229 35.1364 100.045 35.1946 99.8999 35.3111C99.755 35.4276 99.6477 35.5803 99.5781 35.7692C99.5085 35.9581 99.4737 36.1619 99.4737 36.3807C99.4737 36.5994 99.5085 36.8026 99.5781 36.9901C99.6477 37.1776 99.755 37.3288 99.8999 37.4439C100.045 37.5589 100.229 37.6165 100.454 37.6165ZM102.704 38V34.7273H103.19V35.2216H103.224C103.284 35.0597 103.392 34.9283 103.548 34.8274C103.704 34.7266 103.881 34.6761 104.077 34.6761C104.113 34.6761 104.16 34.6768 104.215 34.6783C104.27 34.6797 104.312 34.6818 104.341 34.6847V35.196C104.324 35.1918 104.285 35.1854 104.224 35.1768C104.164 35.1669 104.101 35.1619 104.034 35.1619C103.875 35.1619 103.733 35.1953 103.608 35.2621C103.484 35.3274 103.386 35.4183 103.314 35.5348C103.243 35.6499 103.207 35.7812 103.207 35.929V38H102.704ZM106.752 38L108.704 34.1392V34.1051H106.454V33.6364H109.249V34.1307L107.306 38H106.752ZM111.884 36.0568V35.7159L114.629 34.3182V34.8636L112.524 35.8778L112.541 35.8438V35.929L112.524 35.8949L114.629 36.9091V37.4545L111.884 36.0568ZM118.737 38.0597C118.487 38.0597 118.262 38.0099 118.062 37.9105C117.862 37.8111 117.701 37.6747 117.58 37.5014C117.46 37.3281 117.393 37.1307 117.382 36.9091H117.893C117.913 37.1065 118.003 37.2699 118.162 37.3991C118.322 37.527 118.514 37.5909 118.737 37.5909C118.916 37.5909 119.075 37.549 119.214 37.4652C119.355 37.3814 119.465 37.2663 119.545 37.12C119.626 36.9723 119.666 36.8054 119.666 36.6193C119.666 36.429 119.624 36.2592 119.54 36.1101C119.458 35.9595 119.344 35.8409 119.2 35.7543C119.055 35.6676 118.889 35.6236 118.703 35.6222C118.57 35.6207 118.433 35.6413 118.292 35.6839C118.151 35.7251 118.036 35.7784 117.945 35.8438L117.45 35.7841L117.714 33.6364H119.982V34.1051H118.158L118.004 35.392H118.03C118.119 35.321 118.232 35.2621 118.366 35.2152C118.501 35.1683 118.642 35.1449 118.788 35.1449C119.055 35.1449 119.293 35.2088 119.502 35.3366C119.712 35.4631 119.877 35.6364 119.996 35.8565C120.117 36.0767 120.178 36.3281 120.178 36.6108C120.178 36.8892 120.115 37.1378 119.99 37.3565C119.866 37.5739 119.696 37.7457 119.479 37.8722C119.261 37.9972 119.014 38.0597 118.737 38.0597ZM122.106 35.8182C122.106 36.3551 122.036 36.8494 121.895 37.3011C121.756 37.7514 121.557 38.1662 121.297 38.5455H120.854C120.956 38.4048 121.051 38.2315 121.139 38.0256C121.229 37.821 121.307 37.5966 121.373 37.3523C121.44 37.1065 121.492 36.853 121.529 36.5916C121.567 36.3288 121.586 36.071 121.586 35.8182C121.586 35.4801 121.554 35.1371 121.488 34.7891C121.423 34.4411 121.335 34.1179 121.224 33.8196C121.113 33.5213 120.99 33.2784 120.854 33.0909H121.297C121.557 33.4702 121.756 33.8857 121.895 34.3374C122.036 34.7876 122.106 35.2812 122.106 35.8182Z" fill="white"/>
<path d="M69.233 41.9773L67.4034 42.9091V42.5455L68.8068 41.8693L68.7955 41.892V41.8352L68.8068 41.858L67.4034 41.1818V40.8182L69.233 41.75V41.9773ZM71.8697 41.9773L70.0401 42.9091V42.5455L71.4435 41.8693L71.4322 41.892V41.8352L71.4435 41.858L70.0401 41.1818V40.8182L71.8697 41.75V41.9773ZM76.2384 39.696H76.5704V41.54H76.2384V39.696ZM75.0944 39.872H75.4544C75.4544 40.784 74.8264 41.368 73.7704 41.624L73.6544 41.352C74.5904 41.136 75.0944 40.66 75.0944 40.036V39.872ZM73.8424 39.872H75.2464V40.144H73.8424V39.872ZM75.3264 40.216H76.2944V40.48H75.3264V40.216ZM75.2944 40.908H76.2744V41.168H75.2944V40.908ZM74.2424 41.708H76.5704V42.596H74.5824V43.172H74.2544V42.34H76.2424V41.976H74.2424V41.708ZM74.2544 43.012H76.6904V43.276H74.2544V43.012ZM77.4381 40.092H79.0741V40.36H77.4381V40.092ZM78.0021 41.124H78.3301V42.348H78.0021V41.124ZM78.9381 40.092H79.2621V40.284C79.2621 40.58 79.2621 41.052 79.1581 41.724L78.8301 41.692C78.9381 41.04 78.9381 40.576 78.9381 40.284V40.092ZM79.7181 39.696H80.0461V43.312H79.7181V39.696ZM79.9581 41.208H80.6261V41.488H79.9581V41.208ZM77.2781 42.524L77.2381 42.244C77.8941 42.244 78.7661 42.232 79.4981 42.14L79.5141 42.384C78.7661 42.504 77.9181 42.52 77.2781 42.524ZM81.3089 42.6278C81.2389 42.6278 81.1787 42.6027 81.1286 42.5526C81.0784 42.5024 81.0533 42.4422 81.0533 42.3722C81.0533 42.3021 81.0784 42.242 81.1286 42.1918C81.1787 42.1416 81.2389 42.1165 81.3089 42.1165C81.379 42.1165 81.4392 42.1416 81.4893 42.1918C81.5395 42.242 81.5646 42.3021 81.5646 42.3722C81.5646 42.4186 81.5528 42.4612 81.5291 42.5C81.5064 42.5388 81.4756 42.5701 81.4368 42.5938C81.3989 42.6165 81.3563 42.6278 81.3089 42.6278ZM81.3089 41.1562C81.2389 41.1562 81.1787 41.1312 81.1286 41.081C81.0784 41.0308 81.0533 40.9706 81.0533 40.9006C81.0533 40.8305 81.0784 40.7704 81.1286 40.7202C81.1787 40.67 81.2389 40.6449 81.3089 40.6449C81.379 40.6449 81.4392 40.67 81.4893 40.7202C81.5395 40.7704 81.5646 40.8305 81.5646 40.9006C81.5646 40.947 81.5528 40.9896 81.5291 41.0284C81.5064 41.0672 81.4756 41.0985 81.4368 41.1222C81.3989 41.1449 81.3563 41.1562 81.3089 41.1562ZM83.1776 40.4034V40.0909H85.3594V40.4034H84.4446V43H84.0923V40.4034H83.1776ZM85.631 43V40.8182H85.9549V41.1477H85.9776C86.0174 41.0398 86.0894 40.9522 86.1935 40.8849C86.2977 40.8177 86.4151 40.7841 86.5458 40.7841C86.5704 40.7841 86.6012 40.7846 86.6381 40.7855C86.6751 40.7865 86.703 40.7879 86.7219 40.7898V41.1307C86.7106 41.1278 86.6845 41.1236 86.6438 41.1179C86.604 41.1113 86.5619 41.108 86.5174 41.108C86.4113 41.108 86.3166 41.1302 86.2333 41.1747C86.1509 41.2183 86.0856 41.2789 86.0373 41.3565C85.9899 41.4332 85.9663 41.5208 85.9663 41.6193V43H85.631ZM88.4943 42.108V40.8182H88.8295V43H88.4943V42.6307H88.4716C88.4205 42.7415 88.3409 42.8357 88.233 42.9134C88.125 42.9901 87.9886 43.0284 87.8239 43.0284C87.6875 43.0284 87.5663 42.9986 87.4602 42.9389C87.3542 42.8783 87.2708 42.7874 87.2102 42.6662C87.1496 42.544 87.1193 42.3902 87.1193 42.2045V40.8182H87.4545V42.1818C87.4545 42.3409 87.4991 42.4678 87.5881 42.5625C87.678 42.6572 87.7926 42.7045 87.9318 42.7045C88.0152 42.7045 88.0999 42.6832 88.1861 42.6406C88.2732 42.598 88.3461 42.5327 88.4048 42.4446C88.4645 42.3565 88.4943 42.2443 88.4943 42.108ZM90.3583 43.0455C90.1481 43.0455 89.9667 42.9991 89.8143 42.9062C89.6628 42.8125 89.5458 42.6818 89.4634 42.5142C89.382 42.3456 89.3413 42.1496 89.3413 41.9261C89.3413 41.7027 89.382 41.5057 89.4634 41.3352C89.5458 41.1638 89.6604 41.0303 89.8072 40.9347C89.9549 40.8381 90.1272 40.7898 90.3242 40.7898C90.4379 40.7898 90.5501 40.8087 90.6609 40.8466C90.7717 40.8845 90.8725 40.946 90.9634 41.0312C91.0543 41.1155 91.1268 41.2273 91.1808 41.3665C91.2347 41.5057 91.2617 41.6771 91.2617 41.8807V42.0227H89.5799V41.733H90.9208C90.9208 41.6098 90.8962 41.5 90.8469 41.4034C90.7987 41.3068 90.7295 41.2306 90.6396 41.1747C90.5505 41.1188 90.4454 41.0909 90.3242 41.0909C90.1907 41.0909 90.0752 41.1241 89.9776 41.1903C89.881 41.2557 89.8067 41.3409 89.7546 41.446C89.7025 41.5511 89.6765 41.6638 89.6765 41.7841V41.9773C89.6765 42.142 89.7049 42.2817 89.7617 42.3963C89.8195 42.5099 89.8995 42.5966 90.0018 42.6562C90.104 42.715 90.2229 42.7443 90.3583 42.7443C90.4464 42.7443 90.5259 42.732 90.5969 42.7074C90.6689 42.6818 90.7309 42.6439 90.783 42.5938C90.8351 42.5426 90.8754 42.4792 90.9038 42.4034L91.2276 42.4943C91.1935 42.6042 91.1362 42.7008 91.0558 42.7841C90.9753 42.8665 90.8758 42.9309 90.7575 42.9773C90.6391 43.0227 90.506 43.0455 90.3583 43.0455Z" fill="#878787"/>
<path d="M67.4602 54.2273V49.7273H67.946V50.2472H68.0057C68.0426 50.1903 68.0938 50.1179 68.1591 50.0298C68.2259 49.9403 68.321 49.8608 68.4446 49.7912C68.5696 49.7202 68.7386 49.6847 68.9517 49.6847C69.2273 49.6847 69.4702 49.7536 69.6804 49.8913C69.8906 50.0291 70.0547 50.2244 70.1726 50.4773C70.2905 50.7301 70.3494 51.0284 70.3494 51.3722C70.3494 51.7188 70.2905 52.0192 70.1726 52.2734C70.0547 52.5263 69.8913 52.7223 69.6825 52.8615C69.4737 52.9993 69.233 53.0682 68.9602 53.0682C68.75 53.0682 68.5817 53.0334 68.4553 52.9638C68.3288 52.8928 68.2315 52.8125 68.1634 52.723C68.0952 52.6321 68.0426 52.5568 68.0057 52.4972H67.9631V54.2273H67.4602ZM67.9545 51.3636C67.9545 51.6108 67.9908 51.8288 68.0632 52.0178C68.1357 52.2053 68.2415 52.3523 68.3807 52.4588C68.5199 52.5639 68.6903 52.6165 68.892 52.6165C69.1023 52.6165 69.2777 52.5611 69.4183 52.4503C69.5604 52.3381 69.6669 52.1875 69.7379 51.9986C69.8104 51.8082 69.8466 51.5966 69.8466 51.3636C69.8466 51.1335 69.8111 50.9261 69.7401 50.7415C69.6705 50.5554 69.5646 50.4084 69.4226 50.3004C69.282 50.1911 69.1051 50.1364 68.892 50.1364C68.6875 50.1364 68.5156 50.1882 68.3764 50.2919C68.2372 50.3942 68.1321 50.5376 68.0611 50.7223C67.9901 50.9055 67.9545 51.1193 67.9545 51.3636ZM71.1165 53V49.7273H71.6023V50.2216H71.6364C71.696 50.0597 71.804 49.9283 71.9602 49.8274C72.1165 49.7266 72.2926 49.6761 72.4886 49.6761C72.5256 49.6761 72.5717 49.6768 72.6271 49.6783C72.6825 49.6797 72.7244 49.6818 72.7528 49.6847V50.196C72.7358 50.1918 72.6967 50.1854 72.6357 50.1768C72.576 50.1669 72.5128 50.1619 72.446 50.1619C72.2869 50.1619 72.1449 50.1953 72.0199 50.2621C71.8963 50.3274 71.7983 50.4183 71.7259 50.5348C71.6548 50.6499 71.6193 50.7812 71.6193 50.929V53H71.1165ZM73.3489 53V49.7273H73.8517V53H73.3489ZM73.6046 49.1818C73.5066 49.1818 73.4221 49.1484 73.351 49.0817C73.2814 49.0149 73.2466 48.9347 73.2466 48.8409C73.2466 48.7472 73.2814 48.6669 73.351 48.6001C73.4221 48.5334 73.5066 48.5 73.6046 48.5C73.7026 48.5 73.7864 48.5334 73.856 48.6001C73.927 48.6669 73.9625 48.7472 73.9625 48.8409C73.9625 48.9347 73.927 49.0149 73.856 49.0817C73.7864 49.1484 73.7026 49.1818 73.6046 49.1818ZM75.2756 51.0312V53H74.7727V49.7273H75.2585V50.2386H75.3011C75.3778 50.0724 75.4943 49.9389 75.6506 49.8381C75.8068 49.7358 76.0085 49.6847 76.2557 49.6847C76.4773 49.6847 76.6712 49.7301 76.8374 49.821C77.0036 49.9105 77.1328 50.0469 77.2251 50.2301C77.3175 50.4119 77.3636 50.642 77.3636 50.9205V53H76.8608V50.9545C76.8608 50.6974 76.794 50.4972 76.6605 50.3537C76.527 50.2088 76.3438 50.1364 76.1108 50.1364C75.9503 50.1364 75.8068 50.1712 75.6804 50.2408C75.5554 50.3104 75.4567 50.4119 75.3842 50.5455C75.3118 50.679 75.2756 50.8409 75.2756 51.0312ZM79.7058 49.7273V50.1534H78.0098V49.7273H79.7058ZM78.5041 48.9432H79.0069V52.0625C79.0069 52.2045 79.0275 52.3111 79.0687 52.3821C79.1113 52.4517 79.1653 52.4986 79.2306 52.5227C79.2974 52.5455 79.3677 52.5568 79.4416 52.5568C79.497 52.5568 79.5424 52.554 79.5779 52.5483C79.6135 52.5412 79.6419 52.5355 79.6632 52.5312L79.7654 52.983C79.7314 52.9957 79.6838 53.0085 79.6227 53.0213C79.5616 53.0355 79.4842 53.0426 79.3904 53.0426C79.2484 53.0426 79.1092 53.0121 78.9728 52.951C78.8379 52.8899 78.7257 52.7969 78.6362 52.6719C78.5481 52.5469 78.5041 52.3892 78.5041 52.1989V48.9432ZM80.6412 51.1591C80.6412 50.6222 80.7108 50.1286 80.85 49.6783C80.9906 49.2266 81.1909 48.8111 81.4508 48.4318H81.894C81.7917 48.5724 81.6958 48.7457 81.6064 48.9517C81.5183 49.1562 81.4409 49.3814 81.3741 49.6271C81.3074 49.8714 81.2548 50.1243 81.2164 50.3857C81.1795 50.647 81.161 50.9048 81.161 51.1591C81.161 51.4972 81.1937 51.8402 81.2591 52.1882C81.3244 52.5362 81.4125 52.8594 81.5233 53.1577C81.6341 53.456 81.7576 53.6989 81.894 53.8864H81.4508C81.1909 53.5071 80.9906 53.0923 80.85 52.642C80.7108 52.1903 80.6412 51.696 80.6412 51.1591ZM83.1388 51.0312V53H82.636V49.7273H83.1218V50.2386H83.1644C83.2411 50.0724 83.3576 49.9389 83.5138 49.8381C83.6701 49.7358 83.8718 49.6847 84.119 49.6847C84.3406 49.6847 84.5344 49.7301 84.7006 49.821C84.8668 49.9105 84.9961 50.0469 85.0884 50.2301C85.1808 50.4119 85.2269 50.642 85.2269 50.9205V53H84.7241V50.9545C84.7241 50.6974 84.6573 50.4972 84.5238 50.3537C84.3903 50.2088 84.207 50.1364 83.9741 50.1364C83.8136 50.1364 83.6701 50.1712 83.5437 50.2408C83.4187 50.3104 83.32 50.4119 83.2475 50.5455C83.1751 50.679 83.1388 50.8409 83.1388 51.0312ZM87.4753 53.0682C87.1799 53.0682 86.9206 52.9979 86.6976 52.8572C86.476 52.7166 86.3027 52.5199 86.1777 52.267C86.0542 52.0142 85.9924 51.7187 85.9924 51.3807C85.9924 51.0398 86.0542 50.7422 86.1777 50.4879C86.3027 50.2337 86.476 50.0362 86.6976 49.8956C86.9206 49.755 87.1799 49.6847 87.4753 49.6847C87.7708 49.6847 88.0293 49.755 88.2509 49.8956C88.4739 50.0362 88.6472 50.2337 88.7708 50.4879C88.8958 50.7422 88.9583 51.0398 88.9583 51.3807C88.9583 51.7187 88.8958 52.0142 88.7708 52.267C88.6472 52.5199 88.4739 52.7166 88.2509 52.8572C88.0293 52.9979 87.7708 53.0682 87.4753 53.0682ZM87.4753 52.6165C87.6998 52.6165 87.8844 52.5589 88.0293 52.4439C88.1742 52.3288 88.2814 52.1776 88.351 51.9901C88.4206 51.8026 88.4554 51.5994 88.4554 51.3807C88.4554 51.1619 88.4206 50.9581 88.351 50.7692C88.2814 50.5803 88.1742 50.4276 88.0293 50.3111C87.8844 50.1946 87.6998 50.1364 87.4753 50.1364C87.2509 50.1364 87.0662 50.1946 86.9213 50.3111C86.7765 50.4276 86.6692 50.5803 86.5996 50.7692C86.53 50.9581 86.4952 51.1619 86.4952 51.3807C86.4952 51.5994 86.53 51.8026 86.5996 51.9901C86.6692 52.1776 86.7765 52.3288 86.9213 52.4439C87.0662 52.5589 87.2509 52.6165 87.4753 52.6165ZM91.1491 49.7273V50.1534H89.4531V49.7273H91.1491ZM89.9474 48.9432H90.4503V52.0625C90.4503 52.2045 90.4709 52.3111 90.5121 52.3821C90.5547 52.4517 90.6087 52.4986 90.674 52.5227C90.7408 52.5455 90.8111 52.5568 90.8849 52.5568C90.9403 52.5568 90.9858 52.554 91.0213 52.5483C91.0568 52.5412 91.0852 52.5355 91.1065 52.5312L91.2088 52.983C91.1747 52.9957 91.1271 53.0085 91.0661 53.0213C91.005 53.0355 90.9276 53.0426 90.8338 53.0426C90.6918 53.0426 90.5526 53.0121 90.4162 52.951C90.2813 52.8899 90.169 52.7969 90.0795 52.6719C89.9915 52.5469 89.9474 52.3892 89.9474 52.1989V48.9432ZM95.0589 53.0597C94.7777 53.0597 94.527 53.0114 94.3068 52.9148C94.0881 52.8182 93.9141 52.6839 93.7848 52.5121C93.657 52.3388 93.5874 52.1378 93.576 51.9091H94.1129C94.1243 52.0497 94.1726 52.1712 94.2578 52.2734C94.343 52.3743 94.4545 52.4524 94.5923 52.5078C94.7301 52.5632 94.8828 52.5909 95.0504 52.5909C95.2379 52.5909 95.4041 52.5582 95.549 52.4929C95.6939 52.4276 95.8075 52.3366 95.8899 52.2202C95.9723 52.1037 96.0135 51.9688 96.0135 51.8153C96.0135 51.6548 95.9737 51.5135 95.8942 51.3913C95.8146 51.2678 95.6982 51.1712 95.5447 51.1016C95.3913 51.032 95.2038 50.9972 94.9822 50.9972H94.6328V50.5284H94.9822C95.1555 50.5284 95.3075 50.4972 95.4382 50.4347C95.5703 50.3722 95.6733 50.2841 95.7472 50.1705C95.8224 50.0568 95.8601 49.9233 95.8601 49.7699C95.8601 49.6222 95.8274 49.4936 95.7621 49.3842C95.6967 49.2749 95.6044 49.1896 95.4851 49.1286C95.3672 49.0675 95.228 49.0369 95.0675 49.0369C94.9169 49.0369 94.7749 49.0646 94.6413 49.12C94.5092 49.174 94.4013 49.2528 94.3175 49.3565C94.2337 49.4588 94.1882 49.5824 94.1811 49.7273H93.6697C93.6783 49.4986 93.7472 49.2983 93.8764 49.1264C94.0057 48.9531 94.1747 48.8182 94.3835 48.7216C94.5938 48.625 94.8246 48.5767 95.076 48.5767C95.3459 48.5767 95.5774 48.6314 95.7706 48.7408C95.9638 48.8487 96.1122 48.9915 96.2159 49.169C96.3196 49.3466 96.3714 49.5384 96.3714 49.7443C96.3714 49.9901 96.3068 50.1996 96.1776 50.3729C96.0497 50.5462 95.8757 50.6662 95.6555 50.733V50.767C95.9311 50.8125 96.1463 50.9297 96.3011 51.1186C96.456 51.3061 96.5334 51.5384 96.5334 51.8153C96.5334 52.0526 96.4688 52.2656 96.3395 52.4545C96.2116 52.642 96.0369 52.7898 95.8153 52.8977C95.5938 53.0057 95.3416 53.0597 95.0589 53.0597ZM99.2457 51.0568V50.7159L101.99 49.3182V49.8636L99.8849 50.8778L99.902 50.8438V50.929L99.8849 50.8949L101.99 51.9091V52.4545L99.2457 51.0568ZM106.099 53.0597C105.849 53.0597 105.623 53.0099 105.423 52.9105C105.223 52.8111 105.062 52.6747 104.942 52.5014C104.821 52.3281 104.755 52.1307 104.743 51.9091H105.255C105.275 52.1065 105.364 52.2699 105.523 52.3991C105.684 52.527 105.876 52.5909 106.099 52.5909C106.278 52.5909 106.437 52.549 106.576 52.4652C106.716 52.3814 106.827 52.2663 106.906 52.12C106.987 51.9723 107.028 51.8054 107.028 51.6193C107.028 51.429 106.986 51.2592 106.902 51.1101C106.819 50.9595 106.706 50.8409 106.561 50.7543C106.416 50.6676 106.251 50.6236 106.064 50.6222C105.931 50.6207 105.794 50.6413 105.653 50.6839C105.513 50.7251 105.397 50.7784 105.306 50.8438L104.812 50.7841L105.076 48.6364H107.343V49.1051H105.519L105.366 50.392H105.391C105.481 50.321 105.593 50.2621 105.728 50.2152C105.863 50.1683 106.003 50.1449 106.15 50.1449C106.417 50.1449 106.655 50.2088 106.863 50.3366C107.074 50.4631 107.238 50.6364 107.358 50.8565C107.479 51.0767 107.539 51.3281 107.539 51.6108C107.539 51.8892 107.476 52.1378 107.351 52.3565C107.228 52.5739 107.057 52.7457 106.84 52.8722C106.623 52.9972 106.376 53.0597 106.099 53.0597ZM109.468 50.8182C109.468 51.3551 109.397 51.8494 109.257 52.3011C109.118 52.7514 108.918 53.1662 108.658 53.5455H108.215C108.317 53.4048 108.412 53.2315 108.5 53.0256C108.59 52.821 108.668 52.5966 108.735 52.3523C108.801 52.1065 108.853 51.853 108.89 51.5916C108.929 51.3288 108.948 51.071 108.948 50.8182C108.948 50.4801 108.915 50.1371 108.85 49.7891C108.784 49.4411 108.696 49.1179 108.586 48.8196C108.475 48.5213 108.351 48.2784 108.215 48.0909H108.658C108.918 48.4702 109.118 48.8857 109.257 49.3374C109.397 49.7876 109.468 50.2812 109.468 50.8182Z" fill="white"/>
<path d="M69.233 56.9773L67.4034 57.9091V57.5455L68.8068 56.8693L68.7955 56.892V56.8352L68.8068 56.858L67.4034 56.1818V55.8182L69.233 56.75V56.9773ZM71.8697 56.9773L70.0401 57.9091V57.5455L71.4435 56.8693L71.4322 56.892V56.8352L71.4435 56.858L70.0401 56.1818V55.8182L71.8697 56.75V56.9773ZM76.2384 54.696H76.5704V56.54H76.2384V54.696ZM75.0944 54.872H75.4544C75.4544 55.784 74.8264 56.368 73.7704 56.624L73.6544 56.352C74.5904 56.136 75.0944 55.66 75.0944 55.036V54.872ZM73.8424 54.872H75.2464V55.144H73.8424V54.872ZM75.3264 55.216H76.2944V55.48H75.3264V55.216ZM75.2944 55.908H76.2744V56.168H75.2944V55.908ZM74.2424 56.708H76.5704V57.596H74.5824V58.172H74.2544V57.34H76.2424V56.976H74.2424V56.708ZM74.2544 58.012H76.6904V58.276H74.2544V58.012ZM77.4381 55.092H79.0741V55.36H77.4381V55.092ZM78.0021 56.124H78.3301V57.348H78.0021V56.124ZM78.9381 55.092H79.2621V55.284C79.2621 55.58 79.2621 56.052 79.1581 56.724L78.8301 56.692C78.9381 56.04 78.9381 55.576 78.9381 55.284V55.092ZM79.7181 54.696H80.0461V58.312H79.7181V54.696ZM79.9581 56.208H80.6261V56.488H79.9581V56.208ZM77.2781 57.524L77.2381 57.244C77.8941 57.244 78.7661 57.232 79.4981 57.14L79.5141 57.384C78.7661 57.504 77.9181 57.52 77.2781 57.524ZM81.3089 57.6278C81.2389 57.6278 81.1787 57.6027 81.1286 57.5526C81.0784 57.5024 81.0533 57.4422 81.0533 57.3722C81.0533 57.3021 81.0784 57.242 81.1286 57.1918C81.1787 57.1416 81.2389 57.1165 81.3089 57.1165C81.379 57.1165 81.4392 57.1416 81.4893 57.1918C81.5395 57.242 81.5646 57.3021 81.5646 57.3722C81.5646 57.4186 81.5528 57.4612 81.5291 57.5C81.5064 57.5388 81.4756 57.5701 81.4368 57.5938C81.3989 57.6165 81.3563 57.6278 81.3089 57.6278ZM81.3089 56.1562C81.2389 56.1562 81.1787 56.1312 81.1286 56.081C81.0784 56.0308 81.0533 55.9706 81.0533 55.9006C81.0533 55.8305 81.0784 55.7704 81.1286 55.7202C81.1787 55.67 81.2389 55.6449 81.3089 55.6449C81.379 55.6449 81.4392 55.67 81.4893 55.7202C81.5395 55.7704 81.5646 55.8305 81.5646 55.9006C81.5646 55.947 81.5528 55.9896 81.5291 56.0284C81.5064 56.0672 81.4756 56.0985 81.4368 56.1222C81.3989 56.1449 81.3563 56.1562 81.3089 56.1562ZM83.3366 58V55.0909H85.081V55.4034H83.6889V56.3864H84.9503V56.6989H83.6889V58H83.3366ZM86.2809 58.0511C86.1426 58.0511 86.0172 58.0251 85.9045 57.973C85.7918 57.92 85.7023 57.8438 85.636 57.7443C85.5697 57.6439 85.5366 57.5227 85.5366 57.3807C85.5366 57.2557 85.5612 57.1544 85.6104 57.0767C85.6597 56.9981 85.7255 56.9366 85.8079 56.892C85.8903 56.8475 85.9812 56.8144 86.0806 56.7926C86.181 56.7699 86.2818 56.7519 86.3832 56.7386C86.5157 56.7216 86.6232 56.7088 86.7056 56.7003C86.7889 56.6908 86.8496 56.6752 86.8874 56.6534C86.9263 56.6316 86.9457 56.5937 86.9457 56.5398V56.5284C86.9457 56.3883 86.9073 56.2794 86.8306 56.2017C86.7549 56.1241 86.6398 56.0852 86.4854 56.0852C86.3254 56.0852 86.1999 56.1203 86.109 56.1903C86.0181 56.2604 85.9542 56.3352 85.9173 56.4148L85.5991 56.3011C85.6559 56.1686 85.7317 56.0653 85.8263 55.9915C85.922 55.9167 86.0262 55.8646 86.1388 55.8352C86.2525 55.8049 86.3642 55.7898 86.4741 55.7898C86.5442 55.7898 86.6246 55.7983 86.7156 55.8153C86.8074 55.8314 86.896 55.8651 86.9812 55.9162C87.0674 55.9673 87.1388 56.0445 87.1957 56.1477C87.2525 56.2509 87.2809 56.3892 87.2809 56.5625V58H86.9457V57.7045H86.9286C86.9059 57.7519 86.868 57.8026 86.815 57.8565C86.762 57.9105 86.6914 57.9564 86.6033 57.9943C86.5153 58.0322 86.4078 58.0511 86.2809 58.0511ZM86.332 57.75C86.4646 57.75 86.5763 57.724 86.6673 57.6719C86.7591 57.6198 86.8282 57.5526 86.8746 57.4702C86.922 57.3878 86.9457 57.3011 86.9457 57.2102V56.9034C86.9315 56.9205 86.9002 56.9361 86.8519 56.9503C86.8046 56.9635 86.7496 56.9754 86.6871 56.9858C86.6256 56.9953 86.5655 57.0038 86.5067 57.0114C86.449 57.018 86.4021 57.0237 86.3661 57.0284C86.279 57.0398 86.1976 57.0582 86.1218 57.0838C86.047 57.1084 85.9864 57.1458 85.94 57.196C85.8945 57.2453 85.8718 57.3125 85.8718 57.3977C85.8718 57.5142 85.9149 57.6023 86.0011 57.6619C86.0882 57.7206 86.1985 57.75 86.332 57.75ZM88.228 55.0909V58H87.8928V55.0909H88.228ZM90.3874 56.3068L90.0863 56.392C90.0674 56.3419 90.0394 56.2931 90.0025 56.2457C89.9665 56.1974 89.9173 56.1577 89.8548 56.1264C89.7923 56.0952 89.7122 56.0795 89.6147 56.0795C89.4812 56.0795 89.3699 56.1103 89.2809 56.1719C89.1928 56.2325 89.1488 56.3097 89.1488 56.4034C89.1488 56.4867 89.1791 56.5526 89.2397 56.6009C89.3003 56.6491 89.395 56.6894 89.5238 56.7216L89.8477 56.8011C90.0427 56.8485 90.1881 56.9209 90.2837 57.0185C90.3794 57.1151 90.4272 57.2396 90.4272 57.392C90.4272 57.517 90.3912 57.6288 90.3192 57.7273C90.2482 57.8258 90.1488 57.9034 90.021 57.9602C89.8931 58.017 89.7444 58.0455 89.5749 58.0455C89.3524 58.0455 89.1682 57.9972 89.0224 57.9006C88.8765 57.804 88.7842 57.6629 88.7454 57.4773L89.0636 57.3977C89.0939 57.5152 89.1512 57.6032 89.2354 57.6619C89.3207 57.7206 89.4319 57.75 89.5692 57.75C89.7255 57.75 89.8496 57.7169 89.9414 57.6506C90.0342 57.5833 90.0806 57.5028 90.0806 57.4091C90.0806 57.3333 90.0541 57.2699 90.0011 57.2188C89.948 57.1667 89.8666 57.1278 89.7567 57.1023L89.3931 57.017C89.1933 56.9697 89.0465 56.8963 88.9528 56.7969C88.86 56.6965 88.8136 56.571 88.8136 56.4205C88.8136 56.2973 88.8481 56.1884 88.9173 56.0938C88.9873 55.9991 89.0825 55.9247 89.2028 55.8707C89.324 55.8168 89.4613 55.7898 89.6147 55.7898C89.8306 55.7898 90.0001 55.8371 90.1232 55.9318C90.2473 56.0265 90.3353 56.1515 90.3874 56.3068ZM91.8466 58.0455C91.6364 58.0455 91.455 57.9991 91.3026 57.9062C91.151 57.8125 91.0341 57.6818 90.9517 57.5142C90.8703 57.3456 90.8295 57.1496 90.8295 56.9261C90.8295 56.7027 90.8703 56.5057 90.9517 56.3352C91.0341 56.1638 91.1487 56.0303 91.2955 55.9347C91.4432 55.8381 91.6155 55.7898 91.8125 55.7898C91.9261 55.7898 92.0384 55.8087 92.1491 55.8466C92.2599 55.8845 92.3608 55.946 92.4517 56.0312C92.5426 56.1155 92.6151 56.2273 92.669 56.3665C92.723 56.5057 92.75 56.6771 92.75 56.8807V57.0227H91.0682V56.733H92.4091C92.4091 56.6098 92.3845 56.5 92.3352 56.4034C92.2869 56.3068 92.2178 56.2306 92.1278 56.1747C92.0388 56.1188 91.9337 56.0909 91.8125 56.0909C91.679 56.0909 91.5634 56.1241 91.4659 56.1903C91.3693 56.2557 91.295 56.3409 91.2429 56.446C91.1908 56.5511 91.1648 56.6638 91.1648 56.7841V56.9773C91.1648 57.142 91.1932 57.2817 91.25 57.3963C91.3078 57.5099 91.3878 57.5966 91.4901 57.6562C91.5923 57.715 91.7112 57.7443 91.8466 57.7443C91.9347 57.7443 92.0142 57.732 92.0852 57.7074C92.1572 57.6818 92.2192 57.6439 92.2713 57.5938C92.3234 57.5426 92.3636 57.4792 92.392 57.4034L92.7159 57.4943C92.6818 57.6042 92.6245 57.7008 92.544 57.7841C92.4635 57.8665 92.3641 57.9309 92.2457 57.9773C92.1274 58.0227 91.9943 58.0455 91.8466 58.0455Z" fill="#878787"/>
<path d="M38.634 35.218H39.215V41.546H38.634V35.218ZM39.075 37.815H40.251V38.305H39.075V37.815ZM34.315 36.226H38.046V36.702H34.315V36.226ZM36.205 37.227C37.101 37.227 37.745 37.829 37.745 38.683C37.745 39.537 37.101 40.139 36.205 40.139C35.316 40.139 34.665 39.537 34.665 38.683C34.665 37.829 35.316 37.227 36.205 37.227ZM36.205 37.71C35.631 37.71 35.218 38.109 35.218 38.683C35.218 39.25 35.631 39.656 36.205 39.656C36.779 39.656 37.192 39.25 37.192 38.683C37.192 38.109 36.779 37.71 36.205 37.71ZM35.904 35.295H36.485V36.443H35.904V35.295ZM45.4935 37.738H46.6625V38.228H45.4935V37.738ZM45.0665 35.211H45.6545V41.546H45.0665V35.211ZM41.0345 35.834H41.6155V39.754H41.0345V35.834ZM41.0345 39.453H41.5385C42.4765 39.453 43.4355 39.39 44.4785 39.173L44.5485 39.656C43.4705 39.88 42.4975 39.943 41.5385 39.943H41.0345V39.453ZM51.5129 35.211H52.0939V41.553H51.5129V35.211ZM51.9539 37.731H53.1299V38.221H51.9539V37.731ZM47.4809 39.544H47.9849C49.1749 39.544 50.0009 39.502 50.9599 39.32L51.0229 39.803C50.0359 39.978 49.1959 40.027 47.9849 40.027H47.4809V39.544ZM47.4669 35.806H50.3299V38.074H48.0549V39.74H47.4809V37.598H49.7559V36.282H47.4669V35.806ZM54.3894 38.172H58.7364V38.648H54.3894V38.172ZM53.6684 40.265H59.4014V40.755H53.6684V40.265ZM56.2304 38.375H56.8114V40.461H56.2304V38.375ZM54.3894 35.722H58.6734V36.198H54.9704V38.382H54.3894V35.722Z" fill="white"/>
<path d="M105.69 5.528H107.274V6.149H105.69V5.528ZM105.69 8.003H107.274V8.624H105.69V8.003ZM108.642 3.566H109.362V11.702H108.642V3.566ZM107.049 3.737H107.751V11.297H107.049V3.737ZM104.277 4.241C105.33 4.241 106.014 5.33 106.014 7.076C106.014 8.822 105.33 9.911 104.277 9.911C103.224 9.911 102.549 8.822 102.549 7.076C102.549 5.33 103.224 4.241 104.277 4.241ZM104.277 4.934C103.638 4.934 103.224 5.762 103.224 7.076C103.224 8.39 103.638 9.218 104.277 9.218C104.925 9.218 105.33 8.39 105.33 7.076C105.33 5.762 104.925 4.934 104.277 4.934ZM112.871 4.268H113.483V5.726C113.483 7.598 112.475 9.335 111.143 10.01L110.684 9.398C111.89 8.822 112.871 7.265 112.871 5.726V4.268ZM112.997 4.268H113.609V5.726C113.609 7.211 114.581 8.705 115.787 9.263L115.337 9.857C114.014 9.209 112.997 7.535 112.997 5.726V4.268ZM116.633 3.557H117.38V11.711H116.633V3.557Z" fill="white"/>
</svg>
