<svg width="57" height="58" viewBox="0 0 57 58" fill="none" xmlns="http://www.w3.org/2000/svg">
<path fill-rule="evenodd" clip-rule="evenodd" d="M23.0272 2.69063C18.0947 2.19511 14.8202 3.28071 11.4928 5.83776C-0.0845197 14.7319 5.49987 41.4851 6.56783 43.8151C8.15148 47.2712 30.566 56.9736 34.5327 57.3619C38.5006 57.7503 53.6411 18.0821 53.6411 18.0821C53.6411 18.0821 32.6893 3.6615 23.0272 2.69063Z" fill="#9A5F5F"/>
<path fill-rule="evenodd" clip-rule="evenodd" d="M47.2814 17.2696C29.3871 24.6369 33.2706 56.731 34.5328 57.3627C35.7949 57.9932 51.7197 49.6651 52.3501 48.8393C52.9818 48.0147 64.3057 10.2604 47.2814 17.2696Z" fill="#C27D78"/>
<path fill-rule="evenodd" clip-rule="evenodd" d="M46.6243 17.5644C50.2253 15.8547 52.5882 16.2304 54.1164 17.7245L54.1239 17.7208C54.1239 17.7208 51.7598 13.6948 47.4375 13.6948C43.4519 13.6948 31.5241 17.9855 29.6303 39.9802C29.6303 39.9802 18.6418 34.7854 14.8768 32.7945C11.1119 30.8023 3.90476 26.3716 3.90476 26.3716C3.90476 26.3716 2.39171 1.67115 23.0271 2.6912C23.0271 2.6912 20.0048 0.801153 17.0291 0.894458C-1.31146 1.46563 0.935408 28.8618 0.935408 28.8618C0.935408 28.8618 7.19815 34.2016 15.501 38.2805C24.5868 42.744 35.0205 46.1572 35.0205 46.1572C33.5629 45.2834 33.9361 23.5901 46.6243 17.5644Z" fill="#F1A969"/>
<path fill-rule="evenodd" clip-rule="evenodd" d="M3.90475 26.3713L6.0331 25.6085C6.0331 25.6085 3.90475 7.44942 23.0271 2.6909C2.39171 1.67086 3.90475 26.3713 3.90475 26.3713Z" fill="#F7BF6D"/>
<path fill-rule="evenodd" clip-rule="evenodd" d="M29.6305 39.9798L29.8827 37.5955L6.03338 25.6084L3.90503 26.3712C3.90503 26.3712 11.1122 30.8019 14.8771 32.7941C18.6408 34.785 29.6305 39.9798 29.6305 39.9798Z" fill="#FBDF89"/>
<path fill-rule="evenodd" clip-rule="evenodd" d="M51.0323 32.9268C43.3839 37.3738 36.9661 39.5804 36.9661 39.5804C36.9661 39.5804 38.1248 40.6849 39.0755 40.6874C41.7662 40.6925 52.5782 34.4839 52.998 33.4084L51.0323 32.9268Z" fill="#F7BF6D"/>
<path fill-rule="evenodd" clip-rule="evenodd" d="M51.6229 21.9277C51.6229 21.9277 52.6821 26.9977 51.0328 32.9276L52.9985 33.4092C52.9985 33.4092 55.3879 24.1607 51.6229 21.9277Z" fill="#F1A969"/>
<path fill-rule="evenodd" clip-rule="evenodd" d="M52.9979 33.4089C52.544 34.1868 39.9706 41.3574 38.7803 40.6425C37.6455 39.9616 39.8571 26.0769 47.2861 22.2892C55.8184 17.9392 53.4518 32.6309 52.9979 33.4089ZM46.6242 17.5648C33.936 23.5892 33.3207 45.2232 34.777 46.0982C36.3052 47.0136 54.9749 37.0666 55.5587 36.0693C56.1412 35.0707 60.4622 10.9931 46.6242 17.5648Z" fill="#FBDF89"/>
<path fill-rule="evenodd" clip-rule="evenodd" d="M21.3474 40.9541L20.5972 48.16C20.5972 48.16 22.2388 47.6758 22.7911 47.0454C23.3421 46.4137 23.1416 41.7106 23.1416 41.7106L21.3474 40.9541Z" fill="#FBDF89"/>
<path fill-rule="evenodd" clip-rule="evenodd" d="M11.6928 36.2544C11.6928 36.2544 11.5201 43.0391 12.1997 44.1071C12.8793 45.175 19.9175 48.645 20.5971 48.1595C21.2767 47.6741 21.3473 40.9537 21.3473 40.9537L11.6928 36.2544Z" fill="#F1A969"/>
<path fill-rule="evenodd" clip-rule="evenodd" d="M17.2134 44.9543L16.9574 42.9092C17.173 42.8689 17.3786 42.7919 17.5387 42.6318C18.0153 42.1552 17.951 41.3155 17.3924 40.7569C16.8339 40.1996 15.9954 40.134 15.5175 40.6106C15.0396 41.0885 15.1052 41.9282 15.6638 42.4856C15.6966 42.5183 15.7369 42.5322 15.7709 42.5625L15.1632 43.9015L17.2134 44.9543Z" fill="#4E433A"/>
<path fill-rule="evenodd" clip-rule="evenodd" d="M6.41774 19.3516L6.16809 20.8886L27.642 30.6628L6.41774 19.3516Z" fill="#7F5253"/>
<path fill-rule="evenodd" clip-rule="evenodd" d="M8.83679 12.7207L8.14709 14.0446L29.8832 23.9374L8.83679 12.7207Z" fill="#7F5253"/>
<path fill-rule="evenodd" clip-rule="evenodd" d="M13.6151 7.13867L12.4135 8.17763L34.0058 18.0048L13.6151 7.13867Z" fill="#7F5253"/>
<path fill-rule="evenodd" clip-rule="evenodd" d="M19.4968 3.80566L17.9774 4.45627L39.1941 14.3024L19.4968 3.80566Z" fill="#7F5253"/>
</svg>
