<svg width="44" height="44" viewBox="0 0 44 44" fill="none" xmlns="http://www.w3.org/2000/svg">
<path fill-rule="evenodd" clip-rule="evenodd" d="M17.8975 2.75C14.8765 2.75 12.4276 5.12123 12.4276 8.04629V11.713H21.8948V12.7315H8.21994C5.19897 12.7315 2.75 15.1027 2.75 18.0278V25.9722C2.75 28.8973 5.19897 31.2685 8.21994 31.2685H11.3757V26.7871C11.3757 23.862 13.8247 21.4907 16.8457 21.4907H26.9439C29.5002 21.4907 31.5723 19.4843 31.5723 17.0093V8.04629C31.5723 5.12123 29.1235 2.75 26.1024 2.75H17.8975ZM16.6353 9.26852C17.681 9.26852 18.5287 8.4477 18.5287 7.43519C18.5287 6.42267 17.681 5.60185 16.6353 5.60185C15.5895 5.60185 14.7418 6.42267 14.7418 7.43519C14.7418 8.4477 15.5895 9.26852 16.6353 9.26852Z" fill="url(#paint0_linear_720_1708)"/>
<path fill-rule="evenodd" clip-rule="evenodd" d="M26.1023 41.2499C29.1233 41.2499 31.5723 38.8787 31.5723 35.9537V32.287H22.105V31.2685H35.78C38.801 31.2685 41.2498 28.8972 41.2498 25.9722V18.0277C41.2498 15.1027 38.801 12.7314 35.78 12.7314H32.6242V17.2129C32.6242 20.138 30.1752 22.5092 27.1543 22.5092H17.0559C14.4996 22.5092 12.4275 24.5156 12.4275 26.9906V35.9537C12.4275 38.8787 14.8765 41.2499 17.8974 41.2499H26.1023ZM27.3647 34.7315C26.3189 34.7315 25.4712 35.5522 25.4712 36.5648C25.4712 37.5773 26.3189 38.398 27.3647 38.398C28.4104 38.398 29.2581 37.5773 29.2581 36.5648C29.2581 35.5522 28.4104 34.7315 27.3647 34.7315Z" fill="url(#paint1_linear_720_1708)"/>
<defs>
<linearGradient id="paint0_linear_720_1708" x1="17.1612" y1="2.75" x2="17.1612" y2="31.2685" gradientUnits="userSpaceOnUse">
<stop stop-color="#327EBD"/>
<stop offset="1" stop-color="#1565A7"/>
</linearGradient>
<linearGradient id="paint1_linear_720_1708" x1="26.8387" y1="12.7314" x2="26.8387" y2="41.2499" gradientUnits="userSpaceOnUse">
<stop stop-color="#FFDA4B"/>
<stop offset="1" stop-color="#F9C600"/>
</linearGradient>
</defs>
</svg>
