<svg width="159" height="105" viewBox="0 0 159 105" fill="none" xmlns="http://www.w3.org/2000/svg">
<path d="M36.3475 1.59286H37.2035V8.33895H36.3475V1.59286ZM31.2828 9.8981H37.4786V10.591H31.2828V9.8981ZM31.2828 7.71733H32.1184V10.2242H31.2828V7.71733ZM32.0471 2.09219H32.7503V3.02971C32.7503 4.82324 31.7312 6.39257 30.1823 7.02438L29.7441 6.34162C31.13 5.80152 32.0471 4.45638 32.0471 3.02971V2.09219ZM32.2 2.09219H32.8929V3.02971C32.8929 4.41562 33.8203 5.66905 35.196 6.16838L34.7476 6.85114C33.219 6.2601 32.2 4.78248 32.2 3.02971V2.09219ZM40.0764 2.17371H45.834V2.86667H40.0764V2.17371ZM39.0268 6.18876H47.3524V6.88171H39.0268V6.18876ZM41.1668 6.61676H42.0126V10.7949H41.1668V6.61676ZM45.3755 2.17371H46.2111V2.85648C46.2111 3.72267 46.2111 4.83343 45.8952 6.41295L45.0595 6.33143C45.3755 4.80286 45.3755 3.70229 45.3755 2.85648V2.17371ZM44.3156 6.61676H45.1615V10.7949H44.3156V6.61676ZM53.7171 7.1059H54.5731V8.62429H53.7171V7.1059ZM57.7525 1.58267H58.5983V10.7949H57.7525V1.58267ZM51.2612 9.0421L51.1491 8.33895C52.8916 8.32876 55.1845 8.30838 57.1716 8.05362L57.2328 8.67524C55.1845 9.02171 52.963 9.0421 51.2612 9.0421ZM51.3427 2.70362H56.9373V3.38638H51.3427V2.70362ZM54.1349 3.91629C55.4596 3.91629 56.3564 4.58886 56.3564 5.6181C56.3564 6.65752 55.4596 7.3199 54.1349 7.3199C52.8203 7.3199 51.9236 6.65752 51.9236 5.6181C51.9236 4.58886 52.8203 3.91629 54.1349 3.91629ZM54.1349 4.56848C53.3095 4.56848 52.7286 4.98629 52.7286 5.6181C52.7286 6.2499 53.3095 6.66771 54.1349 6.66771C54.9705 6.66771 55.5514 6.2499 55.5514 5.6181C55.5514 4.98629 54.9705 4.56848 54.1349 4.56848ZM53.7171 1.58267H54.5629V3.08067H53.7171V1.58267ZM63.0813 6.21933H63.9271V8.26762H63.0813V6.21933ZM67.1677 1.58267H68.0135V8.59371H67.1677V1.58267ZM61.726 9.8981H68.2377V10.591H61.726V9.8981ZM61.726 7.91095H62.5718V10.0917H61.726V7.91095ZM60.5337 6.53524L60.4216 5.84229C62.1234 5.84229 64.4061 5.8219 66.3627 5.56714L66.4238 6.18876C64.4367 6.50467 62.2049 6.53524 60.5337 6.53524ZM65.2927 7.02438H67.3817V7.646H65.2927V7.02438ZM63.4176 1.95971C64.7628 1.95971 65.6799 2.59152 65.6799 3.55962C65.6799 4.53791 64.7628 5.16971 63.4176 5.16971C62.0623 5.16971 61.1451 4.53791 61.1451 3.55962C61.1451 2.59152 62.0623 1.95971 63.4176 1.95971ZM63.4176 2.59152C62.5514 2.59152 61.9502 2.96857 61.9502 3.55962C61.9502 4.15067 62.5514 4.52771 63.4176 4.52771C64.2736 4.52771 64.8748 4.15067 64.8748 3.55962C64.8748 2.96857 64.2736 2.59152 63.4176 2.59152ZM78.7703 1.57248H79.6263V10.7949H78.7703V1.57248ZM79.3919 5.31238H81.0937V6.01552H79.3919V5.31238ZM76.4163 2.57114H77.2417C77.2417 5.1901 76.0392 7.55429 73.0636 9.05229L72.5949 8.4001C75.1425 7.1059 76.4163 5.13914 76.4163 2.70362V2.57114ZM73.0229 2.57114H76.8545V3.2641H73.0229V2.57114ZM88.6135 1.58267H89.4695V6.52505H88.6135V1.58267ZM83.5284 6.98362H84.3641V8.10457H88.6339V6.98362H89.4695V10.6726H83.5284V6.98362ZM84.3641 8.77714V9.98981H88.6339V8.77714H84.3641ZM84.5271 2.02086C85.9232 2.02086 86.9219 2.88705 86.9219 4.14048C86.9219 5.4041 85.9232 6.27029 84.5271 6.27029C83.131 6.27029 82.1221 5.4041 82.1221 4.14048C82.1221 2.88705 83.131 2.02086 84.5271 2.02086ZM84.5271 2.724C83.61 2.724 82.9476 3.30486 82.9476 4.14048C82.9476 4.9761 83.61 5.55695 84.5271 5.55695C85.4442 5.55695 86.1066 4.9761 86.1066 4.14048C86.1066 3.30486 85.4442 2.724 84.5271 2.724Z" fill="white"/>
<path d="M16.6229 23.8581H17.4688V33.0907H16.6229V23.8581ZM12.6079 24.5715C13.9734 24.5715 14.9517 25.8249 14.9517 27.7815C14.9517 29.7482 13.9734 31.0016 12.6079 31.0016C11.2526 31.0016 10.2743 29.7482 10.2743 27.7815C10.2743 25.8249 11.2526 24.5715 12.6079 24.5715ZM12.6079 25.3357C11.7111 25.3357 11.0793 26.2936 11.0793 27.7815C11.0793 29.2795 11.7111 30.2577 12.6079 30.2577C13.5148 30.2577 14.1365 29.2795 14.1365 27.7815C14.1365 26.2936 13.5148 25.3357 12.6079 25.3357ZM19.3022 28.6171H27.6584V29.31H19.3022V28.6171ZM20.3621 24.0925H26.5782V26.2733H21.2181V27.4961H20.3824V25.6516H25.7528V24.7549H20.3621V24.0925ZM20.3824 27.17H26.7821V27.8324H20.3824V27.17ZM20.4232 30.1456H26.5884V32.9582H20.4232V30.1456ZM25.763 30.8182H21.2486V32.2755H25.763V30.8182Z" fill="white"/>
<path d="M70.6515 24.8326H71.1544V25.9526C71.1544 27.385 70.2782 28.8631 69.2039 29.4116L68.8382 28.9088C69.8211 28.4288 70.6515 27.1183 70.6515 25.9526V24.8326ZM70.7658 24.8326H71.2687V25.9526C71.2687 27.0421 72.0458 28.2688 73.0439 28.7412L72.6858 29.244C71.5963 28.7031 70.7658 27.3164 70.7658 25.9526V24.8326ZM69.082 24.5507H72.7925V25.084H69.082V24.5507ZM73.6077 23.8497H74.2477V30.7374H73.6077V23.8497ZM74.0953 26.6307H75.3753V27.164H74.0953V26.6307ZM78.7195 24.5278H79.2681V24.8174C79.2681 26.0516 77.9576 26.9583 76.5709 27.1945L76.3271 26.6916C77.5386 26.5164 78.7195 25.724 78.7195 24.8174V24.5278ZM78.8795 24.5278H79.4205V24.8174C79.4205 25.724 80.609 26.5164 81.8128 26.6916L81.5767 27.1945C80.1824 26.9583 78.8795 26.0516 78.8795 24.8174V24.5278ZM78.7424 28.1088H79.3671V30.7374H78.7424V28.1088ZM75.9614 27.7735H82.1862V28.2916H75.9614V27.7735ZM76.5405 24.2764H81.5843V24.7869H76.5405V24.2764ZM84.6465 25.4878H85.1418V26.0745C85.1418 27.5297 84.3494 28.8707 83.2599 29.4116L82.9018 28.924C83.9151 28.4364 84.6465 27.2631 84.6465 26.0745V25.4878ZM84.7684 25.4878H85.2637V26.0745C85.2637 27.1869 85.957 28.3069 86.9399 28.7945L86.5894 29.2821C85.5151 28.7488 84.7684 27.4459 84.7684 26.0745V25.4878ZM83.0922 25.0459H86.7875V25.5564H83.0922V25.0459ZM84.6389 23.9716H85.2637V25.3278H84.6389V23.9716ZM87.6256 23.8497H88.2656V30.7374H87.6256V23.8497ZM88.1132 26.6764H89.3932V27.2021H88.1132V26.6764Z" fill="white"/>
<path d="M63.8171 42.4668H65.7371V42.9849H63.8171V42.4668ZM62.1562 40.7297H62.6743V41.9563C62.6743 43.503 61.859 44.9811 60.7695 45.5678L60.3657 45.0649C61.379 44.562 62.1562 43.2363 62.1562 41.9563V40.7297ZM62.2781 40.7297H62.7886V41.9563C62.7886 43.2135 63.5657 44.463 64.5638 44.9354L64.1905 45.4459C63.0781 44.882 62.2781 43.4649 62.2781 41.9563V40.7297ZM65.4248 40.1278H66.0495V47.0306H65.4248V40.1278ZM70.1785 43.3735H70.8032V44.4325H70.1785V43.3735ZM70.4985 40.2192C72.0146 40.2192 72.9213 40.6382 72.9213 41.4078C72.9213 42.1773 72.0146 42.6039 70.4985 42.6039C68.9746 42.6039 68.0756 42.1773 68.0756 41.4078C68.0756 40.6382 68.9746 40.2192 70.4985 40.2192ZM70.4985 40.6992C69.3708 40.6992 68.7232 40.9582 68.7232 41.4078C68.7232 41.8649 69.3708 42.1239 70.4985 42.1239C71.6185 42.1239 72.2661 41.8649 72.2661 41.4078C72.2661 40.9582 71.6185 40.6992 70.4985 40.6992ZM67.3823 43.0459H73.607V43.5639H67.3823V43.0459ZM68.1365 44.1963H72.8146V45.7506H68.7765V46.5887H68.1518V45.2935H72.1899V44.6839H68.1365V44.1963ZM68.1518 46.4516H73.0204V46.9468H68.1518V46.4516ZM76.2121 40.7297H76.7302V41.9639C76.7302 43.5487 75.8769 45.0192 74.7493 45.5906L74.3607 45.0725C75.3817 44.5849 76.2121 43.2668 76.2121 41.9639V40.7297ZM76.3188 40.7297H76.8369V41.9639C76.8369 43.2211 77.6598 44.4859 78.6807 44.9582L78.2998 45.4611C77.1798 44.9125 76.3188 43.4954 76.3188 41.9639V40.7297ZM79.3969 40.1278H80.0293V47.0306H79.3969V40.1278ZM84.2255 42.2729L85.1427 43.8908L86.068 42.2729H86.9528L85.6568 44.3508L86.9636 46.4287H86.0789L85.1427 44.8757L84.2093 46.4287H83.3218L84.6151 44.3508L83.3381 42.2729H84.2255ZM88.4219 42.2729L89.3391 43.8908L90.2645 42.2729H91.1492L89.8532 44.3508L91.16 46.4287H90.2753L89.3391 44.8757L88.4057 46.4287H87.5183L88.8116 44.3508L87.5345 42.2729H88.4219ZM92.5941 40.5849H96.8989V41.0954H92.5941V40.5849ZM91.817 43.5411H98.0417V44.0592H91.817V43.5411ZM94.5979 43.8839H95.2303V47.0306H94.5979V43.8839ZM96.6017 40.5849H97.2189V41.1792C97.2189 41.8954 97.2189 42.703 96.9598 43.8687L96.3351 43.7849C96.6017 42.6725 96.6017 41.8725 96.6017 41.1792V40.5849Z" fill="white"/>
<path d="M56.6353 58.0302V63.5713H55.7965V58.8689H55.7641L54.4383 59.7347V58.9338L55.8209 58.0302H56.6353ZM60.0633 63.6633C59.6358 63.6615 59.2706 63.5487 58.9675 63.3251C58.6645 63.1014 58.4327 62.7758 58.2722 62.3483C58.1117 61.9209 58.0314 61.4059 58.0314 60.8034C58.0314 60.2028 58.1117 59.6896 58.2722 59.2639C58.4345 58.8382 58.6672 58.5136 58.9702 58.2899C59.2751 58.0662 59.6394 57.9544 60.0633 57.9544C60.4872 57.9544 60.8506 58.0671 61.1537 58.2926C61.4567 58.5163 61.6885 58.841 61.849 59.2666C62.0114 59.6905 62.0925 60.2028 62.0925 60.8034C62.0925 61.4077 62.0123 61.9236 61.8517 62.3511C61.6912 62.7767 61.4594 63.1023 61.1564 63.3278C60.8534 63.5514 60.489 63.6633 60.0633 63.6633ZM60.0633 62.9409C60.4385 62.9409 60.7316 62.7578 60.9426 62.3916C61.1555 62.0255 61.2619 61.4961 61.2619 60.8034C61.2619 60.3435 61.2132 59.9548 61.1158 59.6373C61.0202 59.318 60.8822 59.0763 60.7018 58.9122C60.5233 58.7463 60.3104 58.6633 60.0633 58.6633C59.6899 58.6633 59.3968 58.8473 59.184 59.2152C58.9711 59.5832 58.8638 60.1126 58.862 60.8034C58.862 61.2652 58.9098 61.6557 59.0054 61.975C59.1028 62.2924 59.2408 62.5332 59.4194 62.6974C59.5979 62.8597 59.8126 62.9409 60.0633 62.9409ZM65.1546 58.0302V63.5713H64.3159V58.8689H64.2834L62.9577 59.7347V58.9338L64.3402 58.0302H65.1546ZM68.7558 58.0302V63.5713H67.9171V58.8689H67.8846L66.5588 59.7347V58.9338L67.9414 58.0302H68.7558ZM70.2547 63.5713V62.9652L72.1297 61.0226C72.33 60.8115 72.495 60.6267 72.6249 60.4679C72.7565 60.3074 72.8548 60.155 72.9198 60.0107C72.9847 59.8664 73.0172 59.7131 73.0172 59.5507C73.0172 59.3667 72.9739 59.208 72.8873 59.0745C72.8007 58.9393 72.6826 58.8355 72.5329 58.7634C72.3832 58.6894 72.2145 58.6525 72.0269 58.6525C71.8285 58.6525 71.6553 58.693 71.5074 58.7742C71.3595 58.8554 71.2459 58.9699 71.1665 59.1178C71.0872 59.2657 71.0475 59.4389 71.0475 59.6373H70.2493C70.2493 59.3 70.3269 59.0051 70.482 58.7526C70.6371 58.5 70.85 58.3043 71.1205 58.1654C71.3911 58.0248 71.6986 57.9544 72.0432 57.9544C72.3913 57.9544 72.6979 58.0239 72.9631 58.1627C73.23 58.2998 73.4384 58.4874 73.5881 58.7255C73.7378 58.9618 73.8126 59.2288 73.8126 59.5264C73.8126 59.732 73.7739 59.9331 73.6963 60.1297C73.6205 60.3263 73.488 60.5455 73.2986 60.7872C73.1092 61.0271 72.8458 61.3184 72.5085 61.6611L71.4073 62.8137V62.8543H73.9019V63.5713H70.2547ZM76.8565 63.647C76.4849 63.647 76.153 63.583 75.8608 63.4549C75.5704 63.3269 75.3404 63.1492 75.1709 62.9219C75.0031 62.6929 74.9129 62.4277 74.9003 62.1265H75.7499C75.7607 62.2906 75.8157 62.4331 75.9149 62.554C76.0159 62.673 76.1476 62.765 76.3099 62.8299C76.4723 62.8949 76.6526 62.9273 76.8511 62.9273C77.0693 62.9273 77.2623 62.8895 77.4301 62.8137C77.5996 62.738 77.7322 62.6324 77.8278 62.4972C77.9234 62.3601 77.9712 62.2022 77.9712 62.0237C77.9712 61.8379 77.9234 61.6746 77.8278 61.534C77.734 61.3915 77.596 61.2796 77.4138 61.1985C77.2334 61.1173 77.0152 61.0767 76.7591 61.0767H76.291V60.3949H76.7591C76.9647 60.3949 77.1451 60.3579 77.3002 60.284C77.4571 60.21 77.5798 60.1072 77.6682 59.9755C77.7565 59.842 77.8007 59.686 77.8007 59.5074C77.8007 59.3361 77.7619 59.1873 77.6844 59.061C77.6086 58.9329 77.5004 58.8328 77.3597 58.7607C77.2208 58.6885 77.0567 58.6525 76.8673 58.6525C76.6869 58.6525 76.5183 58.6858 76.3613 58.7526C76.2062 58.8175 76.08 58.9113 75.9825 59.034C75.8851 59.1548 75.8328 59.3 75.8256 59.4696H75.0166C75.0257 59.1701 75.114 58.9068 75.2818 58.6795C75.4513 58.4522 75.675 58.2746 75.9528 58.1465C76.2306 58.0184 76.539 57.9544 76.8781 57.9544C77.2334 57.9544 77.5401 58.0239 77.798 58.1627C78.0578 58.2998 78.258 58.4829 78.3987 58.712C78.5412 58.9411 78.6115 59.1918 78.6097 59.4641C78.6115 59.7744 78.5249 60.0377 78.35 60.2542C78.1768 60.4706 77.9459 60.6158 77.6573 60.6898V60.7331C78.0253 60.789 78.3103 60.9351 78.5123 61.1714C78.7161 61.4077 78.8171 61.7008 78.8153 62.0507C78.8171 62.3556 78.7324 62.6288 78.561 62.8705C78.3915 63.1122 78.1597 63.3025 77.8657 63.4414C77.5717 63.5785 77.2353 63.647 76.8565 63.647ZM79.7217 62.489V61.8126L82.1162 58.0302H82.6492V59.0258H82.311L80.5983 61.7369V61.7802H83.8803V62.489H79.7217ZM82.3489 63.5713V62.2834L82.3543 61.975V58.0302H83.147V63.5713H82.3489ZM86.6522 63.647C86.3131 63.647 86.0082 63.5821 85.7377 63.4522C85.4689 63.3206 85.2543 63.1402 85.0937 62.9111C84.9332 62.682 84.8475 62.4205 84.8367 62.1265H85.6484C85.6682 62.3646 85.7738 62.5603 85.965 62.7136C86.1562 62.8669 86.3852 62.9436 86.6522 62.9436C86.865 62.9436 87.0535 62.8949 87.2177 62.7975C87.3836 62.6983 87.5135 62.5621 87.6073 62.3889C87.7029 62.2158 87.7507 62.0183 87.7507 61.7964C87.7507 61.5709 87.702 61.3698 87.6046 61.193C87.5072 61.0163 87.3728 60.8774 87.2014 60.7764C87.0319 60.6754 86.8371 60.624 86.617 60.6222C86.4493 60.6222 86.2806 60.651 86.1111 60.7087C85.9415 60.7665 85.8044 60.8422 85.6998 60.936L84.9341 60.8224L85.2453 58.0302H88.2918V58.7472H85.9406L85.7647 60.2975H85.7972C85.9054 60.1929 86.0488 60.1054 86.2274 60.035C86.4078 59.9647 86.6008 59.9295 86.8064 59.9295C87.1437 59.9295 87.444 60.0098 87.7074 60.1703C87.9725 60.3308 88.1809 60.55 88.3324 60.8278C88.4857 61.1038 88.5615 61.4212 88.5597 61.7802C88.5615 62.1391 88.4803 62.4593 88.3162 62.7407C88.1538 63.022 87.9283 63.2439 87.6397 63.4062C87.3529 63.5668 87.0238 63.647 86.6522 63.647ZM91.4824 63.647C91.2353 63.6434 90.9918 63.5983 90.7519 63.5118C90.5138 63.4252 90.2973 63.2809 90.1025 63.0789C89.9077 62.8768 89.7517 62.6054 89.6345 62.2645C89.519 61.9236 89.4613 61.4979 89.4613 60.9874C89.4613 60.504 89.5091 60.0747 89.6047 59.6995C89.7021 59.3244 89.8419 59.0078 90.0241 58.7499C90.2063 58.4901 90.4263 58.2926 90.6842 58.1573C90.9422 58.022 91.2317 57.9544 91.5528 57.9544C91.8828 57.9544 92.176 58.0193 92.4321 58.1492C92.6882 58.2791 92.8956 58.4586 93.0544 58.6876C93.2149 58.9167 93.3168 59.1773 93.3601 59.4696H92.5349C92.479 59.2387 92.3681 59.0502 92.2021 58.9041C92.0362 58.758 91.8197 58.6849 91.5528 58.6849C91.1469 58.6849 90.8304 58.8617 90.6031 59.2152C90.3776 59.5688 90.264 60.0603 90.2622 60.6898H90.3028C90.3984 60.5329 90.5156 60.3994 90.6545 60.2894C90.7952 60.1775 90.9521 60.0919 91.1253 60.0323C91.3002 59.971 91.4842 59.9403 91.6772 59.9403C91.9983 59.9403 92.2887 60.0188 92.5484 60.1757C92.81 60.3308 93.0183 60.5455 93.1734 60.8197C93.3285 61.0938 93.4061 61.4077 93.4061 61.7612C93.4061 62.1148 93.3258 62.4349 93.1653 62.7217C93.0066 63.0085 92.7829 63.2358 92.4943 63.4035C92.2057 63.5695 91.8684 63.6507 91.4824 63.647ZM91.4797 62.9436C91.6925 62.9436 91.8828 62.8913 92.0506 62.7867C92.2183 62.682 92.3509 62.5413 92.4483 62.3646C92.5457 62.1878 92.5944 61.9903 92.5944 61.772C92.5944 61.5592 92.5466 61.3653 92.451 61.1903C92.3572 61.0154 92.2274 60.8765 92.0614 60.7737C91.8973 60.6709 91.7097 60.6194 91.4986 60.6194C91.3381 60.6194 91.1893 60.6501 91.0522 60.7114C90.9169 60.7728 90.7979 60.8575 90.6951 60.9658C90.5923 61.074 90.5111 61.1985 90.4516 61.3391C90.3938 61.478 90.365 61.625 90.365 61.7802C90.365 61.9876 90.4128 62.1797 90.5084 62.3565C90.6058 62.5332 90.7384 62.6757 90.9061 62.784C91.0757 62.8904 91.2669 62.9436 91.4797 62.9436ZM94.5783 63.5713L96.9972 58.7877V58.7472H94.1995V58.0302H97.863V58.7715L95.4522 63.5713H94.5783ZM100.565 63.647C100.177 63.647 99.834 63.5803 99.5364 63.4468C99.2406 63.3134 99.0088 63.1294 98.841 62.8949C98.6733 62.6604 98.5903 62.3934 98.5921 62.094C98.5903 61.8595 98.6381 61.644 98.7355 61.4474C98.8347 61.249 98.9691 61.0839 99.1387 60.9522C99.3082 60.8188 99.4976 60.734 99.7068 60.6979V60.6654C99.4309 60.5987 99.2099 60.4508 99.044 60.2217C98.878 59.9926 98.7959 59.7293 98.7977 59.4317C98.7959 59.1485 98.8708 58.896 99.0223 58.6741C99.1756 58.4504 99.3858 58.2746 99.6527 58.1465C99.9197 58.0184 100.224 57.9544 100.565 57.9544C100.902 57.9544 101.203 58.0193 101.468 58.1492C101.735 58.2773 101.945 58.4531 102.099 58.6768C102.252 58.8987 102.329 59.1503 102.331 59.4317C102.329 59.7293 102.245 59.9926 102.077 60.2217C101.909 60.4508 101.691 60.5987 101.422 60.6654V60.6979C101.63 60.734 101.816 60.8188 101.982 60.9522C102.15 61.0839 102.283 61.249 102.383 61.4474C102.484 61.644 102.535 61.8595 102.537 62.094C102.535 62.3934 102.45 62.6604 102.283 62.8949C102.115 63.1294 101.882 63.3134 101.585 63.4468C101.289 63.5803 100.949 63.647 100.565 63.647ZM100.565 62.9625C100.794 62.9625 100.992 62.9246 101.16 62.8489C101.328 62.7713 101.457 62.664 101.549 62.5269C101.641 62.388 101.688 62.2257 101.69 62.0399C101.688 61.8469 101.638 61.6764 101.539 61.5285C101.441 61.3806 101.309 61.2643 101.141 61.1795C100.973 61.0947 100.781 61.0523 100.565 61.0523C100.346 61.0523 100.152 61.0947 99.9828 61.1795C99.8133 61.2643 99.6798 61.3806 99.5824 61.5285C99.485 61.6764 99.4372 61.8469 99.439 62.0399C99.4372 62.2257 99.4814 62.388 99.5716 62.5269C99.6636 62.664 99.7943 62.7713 99.9639 62.8489C100.133 62.9246 100.334 62.9625 100.565 62.9625ZM100.565 60.3841C100.749 60.3841 100.912 60.3471 101.054 60.2731C101.197 60.1992 101.309 60.0964 101.39 59.9647C101.473 59.833 101.515 59.6788 101.517 59.502C101.515 59.3289 101.474 59.1773 101.392 59.0475C101.313 58.9176 101.202 58.8175 101.06 58.7472C100.917 58.675 100.752 58.6389 100.565 58.6389C100.373 58.6389 100.206 58.675 100.061 58.7472C99.9188 58.8175 99.8079 58.9176 99.7285 59.0475C99.6491 59.1773 99.6103 59.3289 99.6121 59.502C99.6103 59.6788 99.65 59.833 99.7312 59.9647C99.8124 60.0964 99.9242 60.1992 100.067 60.2731C100.211 60.3471 100.377 60.3841 100.565 60.3841Z" fill="white"/>
<path d="M60.533 80.7144V80.1083L62.408 78.1657C62.6082 77.9546 62.7733 77.7697 62.9031 77.611C63.0348 77.4505 63.1331 77.298 63.1981 77.1537C63.263 77.0094 63.2955 76.8561 63.2955 76.6938C63.2955 76.5098 63.2522 76.3511 63.1656 76.2176C63.079 76.0823 62.9609 75.9786 62.8111 75.9065C62.6614 75.8325 62.4928 75.7955 62.3052 75.7955C62.1068 75.7955 61.9336 75.8361 61.7857 75.9173C61.6378 75.9984 61.5242 76.113 61.4448 76.2609C61.3654 76.4088 61.3258 76.582 61.3258 76.7804H60.5276C60.5276 76.4431 60.6052 76.1482 60.7603 75.8956C60.9154 75.6431 61.1282 75.4474 61.3988 75.3085C61.6694 75.1678 61.9769 75.0975 62.3214 75.0975C62.6696 75.0975 62.9762 75.1669 63.2413 75.3058C63.5083 75.4429 63.7166 75.6305 63.8663 75.8686C64.0161 76.1049 64.0909 76.3718 64.0909 76.6694C64.0909 76.8751 64.0521 77.0762 63.9746 77.2728C63.8988 77.4694 63.7662 77.6886 63.5768 77.9303C63.3874 78.1702 63.1241 78.4615 62.7868 78.8042L61.6856 79.9568V79.9974H64.1802V80.7144H60.533ZM67.1347 80.8063C66.7073 80.8045 66.342 80.6918 66.039 80.4681C65.7359 80.2445 65.5041 79.9189 65.3436 79.4914C65.1831 79.0639 65.1028 78.549 65.1028 77.9465C65.1028 77.3458 65.1831 76.8327 65.3436 76.407C65.506 75.9813 65.7386 75.6566 66.0417 75.433C66.3465 75.2093 66.7109 75.0975 67.1347 75.0975C67.5586 75.0975 67.9221 75.2102 68.2251 75.4357C68.5281 75.6593 68.7599 75.984 68.9205 76.4097C69.0828 76.8336 69.164 77.3458 69.164 77.9465C69.164 78.5508 69.0837 79.0666 68.9232 79.4941C68.7626 79.9198 68.5308 80.2454 68.2278 80.4708C67.9248 80.6945 67.5604 80.8063 67.1347 80.8063ZM67.1347 80.0839C67.5099 80.0839 67.803 79.9009 68.0141 79.5347C68.2269 79.1685 68.3333 78.6391 68.3333 77.9465C68.3333 77.4865 68.2846 77.0978 68.1872 76.7804C68.0916 76.4611 67.9536 76.2194 67.7733 76.0553C67.5947 75.8893 67.3819 75.8063 67.1347 75.8063C66.7614 75.8063 66.4683 75.9903 66.2554 76.3583C66.0426 76.7263 65.9352 77.2557 65.9334 77.9465C65.9334 78.4083 65.9812 78.7988 66.0768 79.118C66.1742 79.4355 66.3122 79.6763 66.4908 79.8404C66.6694 80.0028 66.884 80.0839 67.1347 80.0839ZM72.0529 80.8063C71.6254 80.8045 71.2601 80.6918 70.9571 80.4681C70.6541 80.2445 70.4223 79.9189 70.2618 79.4914C70.1012 79.0639 70.021 78.549 70.021 77.9465C70.021 77.3458 70.1012 76.8327 70.2618 76.407C70.4241 75.9813 70.6568 75.6566 70.9598 75.433C71.2647 75.2093 71.629 75.0975 72.0529 75.0975C72.4768 75.0975 72.8402 75.2102 73.1433 75.4357C73.4463 75.6593 73.6781 75.984 73.8386 76.4097C74.0009 76.8336 74.0821 77.3458 74.0821 77.9465C74.0821 78.5508 74.0018 79.0666 73.8413 79.4941C73.6808 79.9198 73.449 80.2454 73.146 80.4708C72.8429 80.6945 72.4786 80.8063 72.0529 80.8063ZM72.0529 80.0839C72.4281 80.0839 72.7212 79.9009 72.9322 79.5347C73.1451 79.1685 73.2515 78.6391 73.2515 77.9465C73.2515 77.4865 73.2028 77.0978 73.1054 76.7804C73.0098 76.4611 72.8718 76.2194 72.6914 76.0553C72.5129 75.8893 72.3 75.8063 72.0529 75.8063C71.6795 75.8063 71.3864 75.9903 71.1736 76.3583C70.9607 76.7263 70.8534 77.2557 70.8516 77.9465C70.8516 78.4083 70.8994 78.7988 70.995 79.118C71.0924 79.4355 71.2304 79.6763 71.409 79.8404C71.5875 80.0028 71.8022 80.0839 72.0529 80.0839ZM76.8709 80.7901C76.5318 80.7901 76.227 80.7252 75.9564 80.5953C75.6877 80.4636 75.473 80.2833 75.3125 80.0542C75.152 79.8251 75.0663 79.5636 75.0555 79.2696H75.8672C75.887 79.5076 75.9925 79.7034 76.1837 79.8567C76.3749 80.01 76.604 80.0866 76.8709 80.0866C77.0838 80.0866 77.2723 80.0379 77.4364 79.9405C77.6024 79.8413 77.7322 79.7052 77.826 79.532C77.9216 79.3588 77.9694 79.1613 77.9694 78.9395C77.9694 78.714 77.9207 78.5129 77.8233 78.3361C77.7259 78.1593 77.5915 78.0205 77.4202 77.9194C77.2506 77.8184 77.0558 77.767 76.8358 77.7652C76.668 77.7652 76.4994 77.7941 76.3298 77.8518C76.1603 77.9095 76.0232 77.9853 75.9186 78.0791L75.1529 77.9654L75.464 75.1732H78.5106V75.8902H76.1594L75.9835 77.4405H76.016C76.1242 77.3359 76.2676 77.2484 76.4462 77.1781C76.6265 77.1078 76.8195 77.0726 77.0252 77.0726C77.3625 77.0726 77.6628 77.1528 77.9261 77.3134C78.1913 77.4739 78.3996 77.6931 78.5511 77.9708C78.7045 78.2468 78.7802 78.5643 78.7784 78.9232C78.7802 79.2822 78.699 79.6023 78.5349 79.8837C78.3726 80.1651 78.1471 80.387 77.8585 80.5493C77.5717 80.7098 77.2425 80.7901 76.8709 80.7901ZM81.6958 80.8063C81.2683 80.8045 80.903 80.6918 80.6 80.4681C80.2969 80.2445 80.0652 79.9189 79.9046 79.4914C79.7441 79.0639 79.6638 78.549 79.6638 77.9465C79.6638 77.3458 79.7441 76.8327 79.9046 76.407C80.067 75.9813 80.2996 75.6566 80.6027 75.433C80.9075 75.2093 81.2719 75.0975 81.6958 75.0975C82.1196 75.0975 82.4831 75.2102 82.7861 75.4357C83.0891 75.6593 83.3209 75.984 83.4815 76.4097C83.6438 76.8336 83.725 77.3458 83.725 77.9465C83.725 78.5508 83.6447 79.0666 83.4842 79.4941C83.3236 79.9198 83.0919 80.2454 82.7888 80.4708C82.4858 80.6945 82.1214 80.8063 81.6958 80.8063ZM81.6958 80.0839C82.0709 80.0839 82.364 79.9009 82.5751 79.5347C82.7879 79.1685 82.8943 78.6391 82.8943 77.9465C82.8943 77.4865 82.8456 77.0978 82.7482 76.7804C82.6526 76.4611 82.5147 76.2194 82.3343 76.0553C82.1557 75.8893 81.9429 75.8063 81.6958 75.8063C81.3224 75.8063 81.0293 75.9903 80.8164 76.3583C80.6036 76.7263 80.4963 77.2557 80.4945 77.9465C80.4945 78.4083 80.5423 78.7988 80.6378 79.118C80.7353 79.4355 80.8732 79.6763 81.0518 79.8404C81.2304 80.0028 81.445 80.0839 81.6958 80.0839ZM86.5138 80.7901C86.1747 80.7901 85.8699 80.7252 85.5993 80.5953C85.3305 80.4636 85.1159 80.2833 84.9554 80.0542C84.7948 79.8251 84.7091 79.5636 84.6983 79.2696H85.51C85.5298 79.5076 85.6354 79.7034 85.8266 79.8567C86.0178 80.01 86.2468 80.0866 86.5138 80.0866C86.7266 80.0866 86.9151 80.0379 87.0793 79.9405C87.2452 79.8413 87.3751 79.7052 87.4689 79.532C87.5645 79.3588 87.6123 79.1613 87.6123 78.9395C87.6123 78.714 87.5636 78.5129 87.4662 78.3361C87.3688 78.1593 87.2344 78.0205 87.063 77.9194C86.8935 77.8184 86.6987 77.767 86.4786 77.7652C86.3109 77.7652 86.1422 77.7941 85.9727 77.8518C85.8031 77.9095 85.666 77.9853 85.5614 78.0791L84.7957 77.9654L85.1069 75.1732H88.1534V75.8902H85.8022L85.6264 77.4405H85.6588C85.767 77.3359 85.9104 77.2484 86.089 77.1781C86.2694 77.1078 86.4624 77.0726 86.668 77.0726C87.0053 77.0726 87.3056 77.1528 87.569 77.3134C87.8341 77.4739 88.0425 77.6931 88.194 77.9708C88.3473 78.2468 88.4231 78.5643 88.4213 78.9232C88.4231 79.2822 88.3419 79.6023 88.1778 79.8837C88.0154 80.1651 87.79 80.387 87.5013 80.5493C87.2146 80.7098 86.8854 80.7901 86.5138 80.7901ZM91.3386 80.8063C90.9111 80.8045 90.5459 80.6918 90.2428 80.4681C89.9398 80.2445 89.708 79.9189 89.5475 79.4914C89.3869 79.0639 89.3067 78.549 89.3067 77.9465C89.3067 77.3458 89.3869 76.8327 89.5475 76.407C89.7098 75.9813 89.9425 75.6566 90.2455 75.433C90.5504 75.2093 90.9147 75.0975 91.3386 75.0975C91.7625 75.0975 92.1259 75.2102 92.429 75.4357C92.732 75.6593 92.9638 75.984 93.1243 76.4097C93.2867 76.8336 93.3678 77.3458 93.3678 77.9465C93.3678 78.5508 93.2876 79.0666 93.127 79.4941C92.9665 79.9198 92.7347 80.2454 92.4317 80.4708C92.1287 80.6945 91.7643 80.8063 91.3386 80.8063ZM91.3386 80.0839C91.7138 80.0839 92.0069 79.9009 92.2179 79.5347C92.4308 79.1685 92.5372 78.6391 92.5372 77.9465C92.5372 77.4865 92.4885 77.0978 92.3911 76.7804C92.2955 76.4611 92.1575 76.2194 91.9771 76.0553C91.7986 75.8893 91.5857 75.8063 91.3386 75.8063C90.9652 75.8063 90.6721 75.9903 90.4593 76.3583C90.2464 76.7263 90.1391 77.2557 90.1373 77.9465C90.1373 78.4083 90.1851 78.7988 90.2807 79.118C90.3781 79.4355 90.5161 79.6763 90.6947 79.8404C90.8732 80.0028 91.0879 80.0839 91.3386 80.0839ZM96.1567 80.7901C95.8175 80.7901 95.5127 80.7252 95.2422 80.5953C94.9734 80.4636 94.7587 80.2833 94.5982 80.0542C94.4377 79.8251 94.352 79.5636 94.3412 79.2696H95.1529C95.1727 79.5076 95.2782 79.7034 95.4694 79.8567C95.6606 80.01 95.8897 80.0866 96.1567 80.0866C96.3695 80.0866 96.558 80.0379 96.7221 79.9405C96.8881 79.8413 97.0179 79.7052 97.1117 79.532C97.2073 79.3588 97.2551 79.1613 97.2551 78.9395C97.2551 78.714 97.2064 78.5129 97.109 78.3361C97.0116 78.1593 96.8773 78.0205 96.7059 77.9194C96.5363 77.8184 96.3415 77.767 96.1215 77.7652C95.9537 77.7652 95.7851 77.7941 95.6155 77.8518C95.446 77.9095 95.3089 77.9853 95.2043 78.0791L94.4386 77.9654L94.7497 75.1732H97.7963V75.8902H95.4451L95.2692 77.4405H95.3017C95.4099 77.3359 95.5533 77.2484 95.7319 77.1781C95.9122 77.1078 96.1052 77.0726 96.3109 77.0726C96.6482 77.0726 96.9485 77.1528 97.2118 77.3134C97.477 77.4739 97.6853 77.6931 97.8368 77.9708C97.9902 78.2468 98.0659 78.5643 98.0641 78.9232C98.0659 79.2822 97.9848 79.6023 97.8206 79.8837C97.6583 80.1651 97.4328 80.387 97.1442 80.5493C96.8574 80.7098 96.5282 80.7901 96.1567 80.7901Z" fill="white"/>
<path d="M13.6269 41.0609H14.3607V41.4481C14.3607 43.099 12.6079 44.3117 10.7532 44.6276L10.4271 43.955C12.0474 43.7206 13.6269 42.6608 13.6269 41.4481V41.0609ZM13.8409 41.0609H14.5645V41.4481C14.5645 42.6608 16.1542 43.7206 17.7643 43.955L17.4484 44.6276C15.5835 44.3117 13.8409 43.099 13.8409 41.4481V41.0609ZM13.6575 45.8504H14.4931V49.3661H13.6575V45.8504ZM9.93799 45.4021H18.2636V46.095H9.93799V45.4021ZM10.7125 40.7246H17.4586V41.4074H10.7125V40.7246ZM19.3124 47.4707H27.6584V48.1739H19.3124V47.4707ZM23.0218 45.239H23.8574V47.7051H23.0218V45.239ZM23.0014 40.7654H23.7351V41.4787C23.7351 43.4455 21.8499 44.9639 19.9952 45.3511L19.6385 44.648C21.2588 44.3524 23.0014 42.9971 23.0014 41.4787V40.7654ZM23.1542 40.7654H23.888V41.4787C23.888 43.0073 25.6407 44.3524 27.261 44.648L26.8941 45.3511C25.0395 44.9639 23.1542 43.4455 23.1542 41.4787V40.7654Z" fill="white"/>
<path d="M5.39076 59.8345H7.71419V60.5274H5.39076V59.8345ZM7.23524 57.3072H8.08105V64.0533H7.23524V57.3072ZM2.20114 65.6125H8.33581V66.3054H2.20114V65.6125ZM2.20114 63.4623H3.04695V65.9691H2.20114V63.4623ZM2.85333 58.4485H3.54629V59.1925C3.54629 60.8637 2.50686 62.3107 0.968095 62.8814L0.529905 62.2088C1.90562 61.7197 2.85333 60.4968 2.85333 59.1925V58.4485ZM3.01638 58.4485H3.69914V59.1823C3.69914 60.3745 4.5959 61.5363 5.93086 62.005L5.50286 62.6674C4.00486 62.1273 3.01638 60.7414 3.01638 59.1823V58.4485ZM0.794857 58.0511H5.71686V58.7339H0.794857V58.0511ZM12.2685 62.7897H13.1143V64.2877H12.2685V62.7897ZM16.1409 57.297H16.9867V66.5092H16.1409V57.297ZM16.7116 61.2102H18.4134V61.9235H16.7116V61.2102ZM9.89416 64.7565L9.77187 64.0533C11.4227 64.0533 13.6748 64.0329 15.5804 63.7578L15.6518 64.3896C13.6646 64.7463 11.5043 64.7565 9.89416 64.7565ZM9.92473 58.4078H15.4378V59.0905H9.92473V58.4078ZM12.6863 59.6306C13.9703 59.6306 14.8569 60.3032 14.8569 61.3325C14.8569 62.3719 13.9703 63.0343 12.6863 63.0343C11.4023 63.0343 10.526 62.3719 10.526 61.3325C10.526 60.3032 11.4023 59.6306 12.6863 59.6306ZM12.6863 60.2828C11.8609 60.2828 11.3208 60.7006 11.3208 61.3325C11.3208 61.9643 11.8609 62.3821 12.6863 62.3821C13.5118 62.3821 14.0621 61.9643 14.0621 61.3325C14.0621 60.7006 13.5118 60.2828 12.6863 60.2828ZM12.2685 57.3072H13.1143V58.8664H12.2685V57.3072ZM23.5995 59.8956H26.2491V60.5885H23.5995V59.8956ZM25.9841 57.3072H26.8299V64.1246H25.9841V57.3072ZM20.9093 65.6125H27.0541V66.3054H20.9093V65.6125ZM20.9093 63.4623H21.7551V65.9691H20.9093V63.4623ZM19.7068 57.9085H20.5424V59.5389H23.0391V57.9085H23.8645V62.5553H19.7068V57.9085ZM20.5424 60.2013V61.8624H23.0391V60.2013H20.5424ZM29.0405 58.6422H36.5203V59.3351H29.0405V58.6422ZM28.6328 64.7361H36.9788V65.4392H28.6328V64.7361ZM32.3728 63.2788H33.2084V65.0112H32.3728V63.2788ZM32.7804 59.9567C34.6452 59.9567 35.7968 60.5987 35.7968 61.7095C35.7968 62.8203 34.6452 63.4623 32.7804 63.4623C30.9257 63.4623 29.7742 62.8203 29.7742 61.7095C29.7742 60.5987 30.9257 59.9567 32.7804 59.9567ZM32.7804 60.6191C31.4454 60.6191 30.62 61.0267 30.62 61.7095C30.62 62.3923 31.4454 62.7897 32.7804 62.7897C34.1255 62.7897 34.9408 62.3923 34.9408 61.7095C34.9408 61.0267 34.1255 60.6191 32.7804 60.6191ZM32.3728 57.4499H33.2084V59.0702H32.3728V57.4499Z" fill="white"/>
<path d="M2.43552 75.0103H3.1081V76.2433C3.1081 77.619 2.31324 79.0661 0.957905 79.6673L0.499333 79.0049C1.712 78.475 2.43552 77.2827 2.43552 76.2433V75.0103ZM2.568 75.0103H3.24057V76.2433C3.24057 77.2624 3.93352 78.3018 5.11562 78.7604L4.65705 79.4024C3.33229 78.8725 2.568 77.5986 2.568 76.2433V75.0103ZM7.45943 74.4498H8.26448V80.1259H7.45943V74.4498ZM5.992 76.9057H7.73457V77.5986H5.992V76.9057ZM5.48248 74.623H6.28752V79.8304H5.48248V74.623ZM5.2379 80.3297C7.13333 80.3297 8.31543 80.9411 8.31543 81.9907C8.31543 83.0302 7.13333 83.6314 5.2379 83.6314C3.33229 83.6314 2.17057 83.0302 2.17057 81.9907C2.17057 80.9411 3.33229 80.3297 5.2379 80.3297ZM5.2379 80.9921C3.852 80.9921 2.996 81.3589 2.996 81.9907C2.996 82.6124 3.852 82.9792 5.2379 82.9792C6.62381 82.9792 7.46962 82.6124 7.46962 81.9907C7.46962 81.3589 6.62381 80.9921 5.2379 80.9921ZM16.6097 74.4396H17.4555V81.2672H16.6097V74.4396ZM14.0111 75.6421H16.9256V76.3248H14.0111V75.6421ZM11.5654 82.755H17.7001V83.448H11.5654V82.755ZM11.5654 80.6762H12.4112V83.0709H11.5654V80.6762ZM10.4139 75.1122H11.2597V79.4533H10.4139V75.1122ZM10.4139 79.1884H11.1068C12.4214 79.1884 13.6544 79.117 15.0913 78.8623L15.1728 79.5654C13.6952 79.8304 12.4622 79.8915 11.1068 79.8915H10.4139V79.1884ZM14.0111 77.3948H16.9256V78.0878H14.0111V77.3948ZM21.7245 78.2508H22.5703V79.8915H21.7245V78.2508ZM25.9535 74.4396H26.7994V79.8609H25.9535V74.4396ZM19.3297 78.5362L19.2278 77.9044C21.001 77.9044 23.2531 77.8942 25.2198 77.67L25.2708 78.2203C23.2531 78.5158 21.0519 78.5362 19.3297 78.5362ZM20.6239 80.1972H26.7994V82.113H21.4697V83.1525H20.6443V81.5526H25.9637V80.8086H20.6239V80.1972ZM20.6443 82.9385H27.1051V83.5499H20.6443V82.9385ZM24.1193 78.8215H26.2185V79.3718H24.1193V78.8215ZM22.2035 74.6128C23.569 74.6128 24.4657 75.1427 24.4657 75.9987C24.4657 76.8547 23.569 77.3846 22.2035 77.3846C20.8277 77.3846 19.931 76.8547 19.931 75.9987C19.931 75.1427 20.8277 74.6128 22.2035 74.6128ZM22.2035 75.2039C21.2965 75.2039 20.7156 75.5096 20.7156 75.9987C20.7156 76.4879 21.2965 76.7936 22.2035 76.7936C23.09 76.7936 23.6709 76.4879 23.6709 75.9987C23.6709 75.5096 23.09 75.2039 22.2035 75.2039ZM31.211 74.7759C32.5868 74.7759 33.5956 75.6115 33.5956 76.8242C33.5956 78.0266 32.5868 78.8623 31.211 78.8623C29.8455 78.8623 28.8367 78.0266 28.8367 76.8242C28.8367 75.6115 29.8455 74.7759 31.211 74.7759ZM31.211 75.4688C30.3245 75.4688 29.6519 76.0293 29.6519 76.8242C29.6519 77.619 30.3245 78.1693 31.211 78.1693C32.1078 78.1693 32.7702 77.619 32.7702 76.8242C32.7702 76.0293 32.1078 75.4688 31.211 75.4688ZM35.328 74.4396H36.184V79.1578H35.328V74.4396ZM30.2226 79.6062H36.184V81.8481H31.0684V83.234H30.2429V81.2163H35.3484V80.2889H30.2226V79.6062ZM30.2429 82.8569H36.4897V83.5295H30.2429V82.8569Z" fill="white"/>
<path d="M30.5262 95.4438H33.0952V99.0652H30.5262V95.4438ZM32.5938 95.8586H31.0276V98.6505H32.5938V95.8586ZM34.0919 94.8867H34.6119V100.483H34.0919V94.8867ZM34.4881 97.1214H35.5281V97.5548H34.4881V97.1214ZM37.9605 95.549H38.4433C38.4433 96.9976 38.01 98.3781 36.32 99.3252L36.029 98.9538C37.5333 98.1367 37.9605 96.9543 37.9605 95.6295V95.549ZM36.3014 95.549H38.1524V95.97H36.3014V95.549ZM37.8986 96.8429V97.2267L36.1033 97.4124L36.0228 96.9667L37.8986 96.8429ZM38.01 97.0967H39.2976V97.5114H38.01V97.0967ZM40.2633 94.8867H40.7586V100.483H40.2633V94.8867ZM39.1057 95.029H39.5886V100.198H39.1057V95.029ZM42.0209 97.5424H42.4728C43.68 97.5424 44.3424 97.5176 45.1286 97.3876L45.1843 97.7962C44.3733 97.9386 43.6924 97.9571 42.4728 97.9571H42.0209V97.5424ZM42.0209 95.2952H44.6828V95.71H42.5286V97.7529H42.0209V95.2952ZM42.3614 96.4033H44.5281V96.8119H42.3614V96.4033ZM45.7662 94.8929H46.2862V98.3533H45.7662V94.8929ZM44.4352 98.4338C45.599 98.4338 46.3109 98.8052 46.3109 99.449C46.3109 100.099 45.599 100.47 44.4352 100.47C43.2652 100.47 42.5533 100.099 42.5533 99.449C42.5533 98.8052 43.2652 98.4338 44.4352 98.4338ZM44.4352 98.8424C43.5809 98.8424 43.0671 99.0652 43.0671 99.449C43.0671 99.8452 43.5809 100.068 44.4352 100.068C45.2833 100.068 45.7971 99.8452 45.7971 99.449C45.7971 99.0652 45.2833 98.8424 44.4352 98.8424ZM52.0159 96.3352H53.2788V96.7624H52.0159V96.3352ZM53.1178 94.8867H53.6316V98.2233H53.1178V94.8867ZM51.793 98.3905C52.9445 98.3905 53.6564 98.7805 53.6564 99.4367C53.6564 100.099 52.9445 100.477 51.793 100.477C50.6354 100.477 49.9235 100.099 49.9235 99.4367C49.9235 98.7805 50.6354 98.3905 51.793 98.3905ZM51.793 98.7929C50.9511 98.7929 50.4373 99.0281 50.4373 99.4367C50.4373 99.839 50.9511 100.074 51.793 100.074C52.6349 100.074 53.1488 99.839 53.1488 99.4367C53.1488 99.0281 52.6349 98.7929 51.793 98.7929ZM50.4559 95.45H50.8768V95.9019C50.8768 96.9357 50.2454 97.821 49.3168 98.1676L49.0507 97.759C49.8802 97.4557 50.4559 96.7067 50.4559 95.9019V95.45ZM50.5549 95.45H50.9697V95.9019C50.9697 96.6262 51.5145 97.3195 52.3254 97.6043L52.0654 98.0129C51.1554 97.6848 50.5549 96.8429 50.5549 95.9019V95.45ZM49.2054 95.2952H52.1954V95.7162H49.2054V95.2952ZM54.7268 99.3438H59.7968V99.771H54.7268V99.3438ZM56.9926 98.0067H57.5064V99.4676H56.9926V98.0067ZM55.3211 95.2829H55.8287V96.2795H58.6826V95.2829H59.1902V98.1429H55.3211V95.2829ZM55.8287 96.6943V97.7219H58.6826V96.6943H55.8287ZM66.3127 94.8867H66.808V100.483H66.3127V94.8867ZM64.2761 96.8924H65.347V97.3195H64.2761V96.8924ZM65.1923 95.0167H65.6751V100.198H65.1923V95.0167ZM63.1989 95.7533H63.5951V96.4652C63.5951 97.691 63.1247 98.8486 62.3013 99.3686L61.9856 98.9848C62.7656 98.5143 63.1989 97.4929 63.1989 96.4652V95.7533ZM63.3042 95.7533H63.7004V96.4652C63.7004 97.4371 64.1213 98.409 64.8889 98.8548L64.5732 99.2324C63.7561 98.7371 63.3042 97.6352 63.3042 96.4652V95.7533ZM62.1404 95.5367H64.697V95.9638H62.1404V95.5367ZM70.2618 98.4152C71.4504 98.4152 72.2118 98.8052 72.2118 99.449C72.2118 100.087 71.4504 100.47 70.2618 100.47C69.067 100.47 68.3118 100.087 68.3118 99.449C68.3118 98.8052 69.067 98.4152 70.2618 98.4152ZM70.2618 98.8176C69.3827 98.8176 68.8194 99.059 68.8194 99.449C68.8194 99.8329 69.3827 100.074 70.2618 100.074C71.1408 100.074 71.698 99.8329 71.698 99.449C71.698 99.059 71.1408 98.8176 70.2618 98.8176ZM68.3551 95.1652H71.958V95.5862H68.3551V95.1652ZM67.7546 97.4929H72.8061V97.9076H67.7546V97.4929ZM69.8285 96.4157H70.3361V97.6105H69.8285V96.4157ZM71.6608 95.1652H72.1623V95.6419C72.1623 96.0938 72.1623 96.5457 72.0137 97.1276L71.5061 97.0657C71.6608 96.49 71.6608 96.0814 71.6608 95.6419V95.1652ZM75.7151 97.0595H76.7737V97.4867H75.7151V97.0595ZM77.7084 94.8867H78.2037V100.483H77.7084V94.8867ZM76.6003 95.0043H77.0894V100.204H76.6003V95.0043ZM74.7061 95.351C75.4303 95.351 75.9008 96.1 75.9008 97.301C75.9008 98.5019 75.4303 99.251 74.7061 99.251C73.9818 99.251 73.5175 98.5019 73.5175 97.301C73.5175 96.1 73.9818 95.351 74.7061 95.351ZM74.7061 95.8276C74.2665 95.8276 73.988 96.3971 73.988 97.301C73.988 98.2048 74.2665 98.7743 74.7061 98.7743C75.1518 98.7743 75.4303 98.2048 75.4303 97.301C75.4303 96.3971 75.1518 95.8276 74.7061 95.8276ZM80.7825 97.6414H85.8401V98.0624H80.7825V97.6414ZM83.0544 96.7438H83.562V97.8148H83.0544V96.7438ZM81.4201 96.5829H85.252V97.0038H81.4201V96.5829ZM81.4201 95.1405H85.2086V95.5552H81.9277V96.8305H81.4201V95.1405ZM83.302 98.4648C84.4967 98.4648 85.221 98.83 85.221 99.4676C85.221 100.118 84.4967 100.477 83.302 100.477C82.1072 100.477 81.3829 100.118 81.3829 99.4676C81.3829 98.83 82.1072 98.4648 83.302 98.4648ZM83.302 98.861C82.4291 98.861 81.9029 99.0838 81.9029 99.4676C81.9029 99.8576 82.4291 100.074 83.302 100.074C84.181 100.074 84.701 99.8576 84.701 99.4676C84.701 99.0838 84.181 98.861 83.302 98.861ZM88.291 95.289C89.1639 95.289 89.7891 95.8276 89.7891 96.6076C89.7891 97.3938 89.1639 97.9324 88.291 97.9324C87.4182 97.9324 86.7867 97.3938 86.7867 96.6076C86.7867 95.8276 87.4182 95.289 88.291 95.289ZM88.291 95.7348C87.7091 95.7348 87.2882 96.0876 87.2882 96.6076C87.2882 97.1276 87.7091 97.4867 88.291 97.4867C88.8667 97.4867 89.2877 97.1276 89.2877 96.6076C89.2877 96.0876 88.8667 95.7348 88.291 95.7348ZM90.5196 94.8805H91.0334V100.489H90.5196V94.8805ZM86.5763 99.2633L86.502 98.8362C87.5234 98.8362 88.9348 98.83 90.1543 98.6381L90.1977 99.0157C88.941 99.2571 87.5729 99.2633 86.5763 99.2633ZM95.9977 94.8867H96.5115V98.1367H95.9977V94.8867ZM96.2886 96.3105H97.341V96.7438H96.2886V96.3105ZM92.9953 98.3843H93.4967V98.9786H96.0039V98.3843H96.5115V100.409H92.9953V98.3843ZM93.4967 99.3748V99.9938H96.0039V99.3748H93.4967ZM92.1843 95.4562H95.4901V95.8771H92.1843V95.4562ZM93.8372 96.131C94.6358 96.131 95.1743 96.521 95.1743 97.1152C95.1743 97.7095 94.6358 98.0995 93.8372 98.0995C93.0324 98.0995 92.4939 97.7095 92.4939 97.1152C92.4939 96.521 93.0324 96.131 93.8372 96.131ZM93.8372 96.521C93.3234 96.521 92.9829 96.7562 92.9829 97.1152C92.9829 97.4743 93.3234 97.7095 93.8372 97.7095C94.3386 97.7095 94.6853 97.4743 94.6853 97.1152C94.6853 96.7562 94.3386 96.521 93.8372 96.521ZM93.5772 94.831H94.091V95.6852H93.5772V94.831ZM101.934 94.8867H102.448V100.483H101.934V94.8867ZM98.2196 95.4314H98.7272V98.8981H98.2196V95.4314ZM98.2196 98.5948H98.6777C99.5258 98.5948 100.411 98.5329 101.358 98.3348L101.42 98.7743C100.448 98.9724 99.5629 99.0405 98.6777 99.0405H98.2196V98.5948ZM107.344 94.8805H107.864V100.489H107.344V94.8805ZM107.74 97.0905H108.78V97.5238H107.74V97.0905ZM103.797 98.6629H104.236C105.27 98.6629 105.994 98.6257 106.83 98.471L106.886 98.9043C106.025 99.0652 105.289 99.0962 104.236 99.0962H103.797V98.6629ZM103.797 95.4252H106.397V95.8462H104.304V98.8548H103.797V95.4252Z" fill="white"/>
<rect x="45.0001" y="20.9999" width="68.5714" height="13.7143" rx="3.85714" stroke="white" stroke-width="0.857143"/>
<rect x="45.0001" y="71.5716" width="68.5714" height="13.7143" rx="3.85714" stroke="white" stroke-width="0.857143"/>
<rect x="45.0001" y="54.4286" width="68.5714" height="13.7143" rx="3.85714" stroke="white" stroke-width="0.857143"/>
<rect x="45.0001" y="37.2855" width="68.5714" height="13.7143" rx="3.85714" stroke="white" stroke-width="0.857143"/>
<rect x="14.5" y="92.5" width="10" height="10" rx="2.5" stroke="white"/>
<path d="M123 24.5C126.05 24.5 128.975 25.7116 131.132 27.8683C133.288 30.0249 134.5 32.95 134.5 36C134.5 39.05 133.288 41.9751 131.132 44.1317C128.975 46.2884 126.05 47.5 123 47.5" stroke="white"/>
<path d="M123 24.5C126.05 24.5 128.975 25.7116 131.132 27.8683C133.288 30.0249 134.5 32.95 134.5 36C134.5 39.05 133.288 41.9751 131.132 44.1317C128.975 46.2884 126.05 47.5 123 47.5" stroke="white"/>
<path d="M123 57.5C126.05 57.5 128.975 58.7116 131.132 60.8683C133.288 63.0249 134.5 65.95 134.5 69C134.5 72.05 133.288 74.9751 131.132 77.1317C128.975 79.2884 126.05 80.5 123 80.5" stroke="white"/>
<path d="M123.5 90.5C125.357 90.5 127.137 91.2375 128.45 92.5503C129.763 93.863 130.5 95.6435 130.5 97.5C130.5 99.3565 129.763 101.137 128.45 102.45C127.137 103.763 125.357 104.5 123.5 104.5" stroke="white"/>
<path d="M142.422 35.4231H149.49V36.0178H142.422V35.4231ZM145.586 35.6903H146.284V36.8797H145.586V35.6903ZM145.568 37.2417H146.18V37.483C146.18 38.6725 144.801 39.4568 143.172 39.6464L142.939 39.0948C144.344 38.9483 145.568 38.3105 145.568 37.483V37.2417ZM145.689 37.2417H146.301V37.483C146.301 38.3363 147.516 38.9569 148.93 39.0948L148.697 39.6464C147.077 39.4568 145.689 38.6983 145.689 37.483V37.2417ZM145.586 31.9755H146.197V32.3202C146.197 33.6648 144.689 34.6215 143.077 34.8542L142.819 34.3026C144.224 34.1216 145.586 33.3028 145.586 32.3202V31.9755ZM145.698 31.9755H146.31V32.3202C146.31 33.277 147.689 34.1216 149.068 34.3026L148.809 34.8542C147.223 34.6215 145.698 33.6476 145.698 32.3202V31.9755ZM152.282 32.9925H152.851V34.2595C152.851 35.8799 151.86 37.552 150.644 38.1726L150.231 37.6037C151.342 37.0607 152.282 35.5782 152.282 34.2595V32.9925ZM152.411 32.9925H152.98V34.2595C152.98 35.492 153.859 36.8797 154.988 37.4141L154.583 37.983C153.351 37.371 152.411 35.8023 152.411 34.2595V32.9925ZM150.506 32.6736H154.704V33.277H150.506V32.6736ZM155.626 31.8807H156.35V39.6723H155.626V31.8807ZM156.178 35.0266H157.626V35.63H156.178V35.0266Z" fill="#BDBDBD"/>
<path d="M142.422 68.8627H149.481V69.4488H142.422V68.8627ZM145.646 69.2247H146.361V71.0174H145.646V69.2247ZM143.327 65.2427H148.568V67.9835H143.327V65.2427ZM147.861 65.8201H144.025V67.406H147.861V65.8201ZM143.319 71.9138H148.697V72.4999H143.319V71.9138ZM143.319 70.2676H144.025V72.1207H143.319V70.2676ZM152.282 65.9925H152.851V67.2595C152.851 68.8799 151.86 70.552 150.644 71.1726L150.231 70.6037C151.342 70.0607 152.282 68.5782 152.282 67.2595V65.9925ZM152.411 65.9925H152.98V67.2595C152.98 68.492 153.859 69.8797 154.988 70.4141L154.583 70.983C153.351 70.371 152.411 68.8023 152.411 67.2595V65.9925ZM150.506 65.6736H154.704V66.277H150.506V65.6736ZM155.626 64.8807H156.35V72.6723H155.626V64.8807ZM156.178 68.0266H157.626V68.63H156.178V68.0266Z" fill="#BDBDBD"/>
<path d="M138.586 97.6213H139.292V98.8108H138.586V97.6213ZM136.362 94.0013H137.069V94.7253H140.835V94.0013H141.55V96.5698H136.362V94.0013ZM137.069 95.277V96.0182H140.835V95.277H137.069ZM135.422 97.2076H142.464V97.7851H135.422V97.2076ZM136.276 98.5436H141.568V100.276H137V101.241H136.293V99.7589H140.861V99.0866H136.276V98.5436ZM136.293 101.034H141.8V101.586H136.293V101.034ZM149.031 93.872H149.747V101.681H149.031V93.872ZM143.808 99.2072H144.454C145.756 99.2072 146.919 99.1555 148.299 98.9314L148.376 99.5175C146.963 99.7502 145.79 99.802 144.454 99.802H143.808V99.2072ZM143.791 94.6047H147.394V97.3886H144.523V99.4313H143.808V96.8025H146.67V95.1908H143.791V94.6047ZM155.167 96.044H157.305V96.6215H155.167V96.044ZM156.977 93.8893H157.693V99.621H156.977V93.8893ZM152.719 100.914H157.908V101.5H152.719V100.914ZM152.719 99.0435H153.435V101.164H152.719V99.0435ZM153.409 94.3806C154.555 94.3806 155.417 95.1821 155.417 96.3112C155.417 97.4403 154.555 98.2419 153.409 98.2419C152.263 98.2419 151.401 97.4403 151.401 96.3112C151.401 95.1821 152.263 94.3806 153.409 94.3806ZM153.409 95.0098C152.65 95.0098 152.09 95.5441 152.09 96.3112C152.09 97.0783 152.65 97.6127 153.409 97.6127C154.159 97.6127 154.728 97.0783 154.728 96.3112C154.728 95.5441 154.159 95.0098 153.409 95.0098Z" fill="#BDBDBD"/>
</svg>
