<svg width="146" height="53" viewBox="0 0 146 53" fill="none" xmlns="http://www.w3.org/2000/svg">
<rect x="0.5" y="0.5" width="35" height="23" rx="4.5" stroke="white"/>
<path d="M14.42 9.87H16.18V10.95H14.42V9.87ZM15.82 7.63H17.15V13.13H15.82V7.63ZM14.01 13.33C15.97 13.33 17.18 14 17.18 15.12C17.18 16.25 15.97 16.9 14.01 16.9C12.05 16.9 10.84 16.25 10.84 15.12C10.84 14 12.05 13.33 14.01 13.33ZM14.01 14.34C12.81 14.34 12.17 14.59 12.17 15.12C12.17 15.64 12.81 15.89 14.01 15.89C15.22 15.89 15.86 15.64 15.86 15.12C15.86 14.59 15.22 14.34 14.01 14.34ZM11.54 8.56H12.62V9.14C12.62 10.91 11.8 12.53 10.03 13.13L9.35 12.08C10.88 11.56 11.54 10.33 11.54 9.14V8.56ZM11.82 8.56H12.89V9.14C12.89 10.23 13.52 11.36 14.98 11.85L14.33 12.9C12.61 12.33 11.82 10.79 11.82 9.14V8.56ZM9.71 8.19H14.69V9.25H9.71V8.19ZM22.0892 7.9H23.2592V8.33C23.2592 10.11 21.8592 11.62 19.4292 11.98L18.9092 10.91C21.0392 10.63 22.0892 9.42 22.0892 8.33V7.9ZM22.3392 7.9H23.4992V8.33C23.4992 9.41 24.5592 10.63 26.6792 10.91L26.1692 11.98C23.7392 11.62 22.3392 10.11 22.3392 8.33V7.9ZM22.0992 13.5H23.4192V16.89H22.0992V13.5ZM18.6092 12.66H26.9792V13.74H18.6092V12.66Z" fill="#696FFB"/>
<rect x="55.5" y="0.5" width="35" height="23" rx="4.5" stroke="white"/>
<path d="M70.76 7.63H72.1V12.31H70.76V7.63ZM65.92 12.72H72.1V15.23H67.24V16.16H65.94V14.27H70.78V13.73H65.92V12.72ZM65.94 15.8H72.33V16.83H65.94V15.8ZM66.57 7.84H67.67V8.54C67.67 10.25 66.81 11.8 65 12.35L64.36 11.3C65.91 10.83 66.57 9.67 66.57 8.54V7.84ZM66.84 7.84H67.93V8.54C67.93 9.64 68.58 10.72 70.09 11.15L69.45 12.18C67.67 11.66 66.84 10.21 66.84 8.54V7.84ZM77.0892 7.9H78.2592V8.33C78.2592 10.11 76.8592 11.62 74.4292 11.98L73.9092 10.91C76.0392 10.63 77.0892 9.42 77.0892 8.33V7.9ZM77.3392 7.9H78.4992V8.33C78.4992 9.41 79.5592 10.63 81.6792 10.91L81.1692 11.98C78.7392 11.62 77.3392 10.11 77.3392 8.33V7.9ZM77.0992 13.5H78.4192V16.89H77.0992V13.5ZM73.6092 12.66H81.9792V13.74H73.6092V12.66Z" fill="#66EB5A"/>
<rect x="110.5" y="0.5" width="35" height="23" rx="4.5" stroke="white"/>
<path d="M115.4 12.2H123.77V13.27H115.4V12.2ZM118.91 11.02H120.24V12.43H118.91V11.02ZM116.33 13.9H122.76V16.89H121.43V14.95H116.33V13.9ZM116.47 7.86H117.78V8.68H121.39V7.86H122.71V11.44H116.47V7.86ZM117.78 9.67V10.4H121.39V9.67H117.78ZM124.609 14.72H132.989V15.81H124.609V14.72ZM128.089 12.66H129.409V15.01H128.089V12.66ZM128.039 8.14H129.199V8.81C129.199 10.78 127.769 12.52 125.349 12.96L124.799 11.85C126.909 11.51 128.039 10.09 128.039 8.81V8.14ZM128.299 8.14H129.459V8.81C129.459 10.12 130.589 11.51 132.709 11.85L132.159 12.96C129.729 12.51 128.299 10.81 128.299 8.81V8.14ZM137.288 7.9H138.458V8.33C138.458 10.11 137.058 11.62 134.628 11.98L134.108 10.91C136.238 10.63 137.288 9.42 137.288 8.33V7.9ZM137.538 7.9H138.698V8.33C138.698 9.41 139.758 10.63 141.878 10.91L141.368 11.98C138.938 11.62 137.538 10.11 137.538 8.33V7.9ZM137.298 13.5H138.618V16.89H137.298V13.5ZM133.808 12.66H142.178V13.74H133.808V12.66Z" fill="#FC5A5A"/>
<path d="M7.30753 36.1818L8.00852 37.5167L8.72692 36.1818H9.81321L8.70703 38.0909L9.84304 40H8.76172L8.00852 38.68L7.26776 40H6.17401L7.30753 38.0909L6.21378 36.1818H7.30753ZM12.3009 37.0717V36.1868H15.7338V37.0717H12.3009ZM12.3009 38.7223V37.8374H15.7338V38.7223H12.3009ZM18.3532 39.1051V38.2575L20.4785 34.9091H21.2093V36.0824H20.7768L19.437 38.2028V38.2425H22.4572V39.1051H18.3532ZM20.7967 40V38.8466L20.8166 38.4712V34.9091H21.8258V40H20.7967ZM23.1744 40V39.2244L24.9865 37.5465C25.1406 37.3974 25.2699 37.2631 25.3743 37.1438C25.4804 37.0245 25.5607 36.9077 25.6154 36.7933C25.6701 36.6773 25.6974 36.5522 25.6974 36.418C25.6974 36.2688 25.6635 36.1404 25.5955 36.0327C25.5276 35.9233 25.4348 35.8396 25.3171 35.7816C25.1995 35.7219 25.0661 35.6921 24.9169 35.6921C24.7611 35.6921 24.6252 35.7236 24.5092 35.7866C24.3932 35.8496 24.3037 35.9399 24.2408 36.0575C24.1778 36.1752 24.1463 36.3152 24.1463 36.4776H23.1246C23.1246 36.1445 23.2 35.8554 23.3509 35.6101C23.5017 35.3648 23.7129 35.1751 23.9847 35.0408C24.2565 34.9066 24.5697 34.8395 24.9244 34.8395C25.2889 34.8395 25.6063 34.9041 25.8764 35.0334C26.1482 35.161 26.3595 35.3383 26.5103 35.5653C26.6611 35.7924 26.7365 36.0526 26.7365 36.3459C26.7365 36.5381 26.6984 36.7279 26.6222 36.9151C26.5476 37.1024 26.4142 37.3104 26.2219 37.5391C26.0297 37.7661 25.7588 38.0387 25.4091 38.3569L24.6658 39.0852V39.12H26.8036V40H23.1744ZM7.07635 52.4318C6.94212 52.4318 6.81617 52.421 6.69851 52.3995C6.5825 52.3796 6.48639 52.3539 6.41016 52.3224L6.64879 51.532C6.77308 51.5701 6.88494 51.5908 6.98438 51.5941C7.08546 51.5974 7.17247 51.5742 7.24538 51.5245C7.31996 51.4748 7.38045 51.3903 7.42685 51.271L7.48899 51.1094L6.11932 47.1818H7.23295L8.02344 49.9858H8.06321L8.86115 47.1818H9.98224L8.49822 51.4126C8.42697 51.6181 8.33002 51.7971 8.20739 51.9496C8.08641 52.1037 7.93312 52.2222 7.74751 52.305C7.56191 52.3896 7.33819 52.4318 7.07635 52.4318ZM12.3829 48.5788V47.6964H15.8158V48.5788H12.3829ZM12.3829 50.2294V49.3469H15.8158V50.2294H12.3829ZM20.9011 48.0344V48.8746H18.5794V48.0344H20.9011ZM24.0083 45.9091V51H22.932V46.9308H22.9022L21.7363 47.6616V46.707L22.9966 45.9091H24.0083ZM27.2144 51.1119C26.7868 51.1102 26.4189 51.005 26.1107 50.7962C25.8041 50.5874 25.568 50.2849 25.4023 49.8888C25.2382 49.4928 25.157 49.0163 25.1586 48.4595C25.1586 47.9044 25.2407 47.4312 25.4047 47.0401C25.5705 46.649 25.8066 46.3516 26.1132 46.1477C26.4214 45.9422 26.7885 45.8395 27.2144 45.8395C27.6403 45.8395 28.0065 45.9422 28.3131 46.1477C28.6214 46.3532 28.8583 46.6515 29.0241 47.0426C29.1898 47.4321 29.2718 47.9044 29.2702 48.4595C29.2702 49.018 29.1873 49.4953 29.0216 49.8913C28.8575 50.2874 28.6222 50.5898 28.3156 50.7987C28.009 51.0075 27.642 51.1119 27.2144 51.1119ZM27.2144 50.2195C27.5061 50.2195 27.7389 50.0728 27.9129 49.7795C28.0869 49.4862 28.1731 49.0462 28.1714 48.4595C28.1714 48.0734 28.1317 47.7519 28.0521 47.495C27.9742 47.2382 27.8632 47.0451 27.719 46.9158C27.5765 46.7866 27.4083 46.7219 27.2144 46.7219C26.9244 46.7219 26.6924 46.867 26.5184 47.157C26.3444 47.447 26.2565 47.8812 26.2549 48.4595C26.2549 48.8506 26.2938 49.1771 26.3717 49.4389C26.4513 49.6991 26.5631 49.8946 26.7073 50.0256C26.8515 50.1548 27.0205 50.2195 27.2144 50.2195Z" fill="white"/>
<path d="M60.3075 36.1818L61.0085 37.5167L61.7269 36.1818H62.8132L61.707 38.0909L62.843 40H61.7617L61.0085 38.68L60.2678 40H59.174L60.3075 38.0909L59.2138 36.1818H60.3075ZM65.3009 37.0717V36.1868H68.7338V37.0717H65.3009ZM65.3009 38.7223V37.8374H68.7338V38.7223H65.3009ZM73.312 40.0696C72.9408 40.0696 72.6101 40.0058 72.3201 39.8782C72.0318 39.7489 71.8039 39.5716 71.6365 39.3462C71.4708 39.1192 71.3855 38.8574 71.3805 38.5607H72.4643C72.4709 38.685 72.5115 38.7944 72.5861 38.8888C72.6623 38.9817 72.7634 39.0537 72.8894 39.1051C73.0153 39.1565 73.157 39.1822 73.3145 39.1822C73.4785 39.1822 73.6235 39.1532 73.7495 39.0952C73.8754 39.0372 73.974 38.9568 74.0453 38.854C74.1165 38.7513 74.1522 38.6328 74.1522 38.4986C74.1522 38.3627 74.1141 38.2425 74.0378 38.1381C73.9632 38.0321 73.8555 37.9492 73.7147 37.8896C73.5755 37.8299 73.4097 37.8001 73.2175 37.8001H72.7427V37.0096H73.2175C73.3799 37.0096 73.5233 36.9814 73.6475 36.9251C73.7735 36.8687 73.8713 36.7908 73.9409 36.6914C74.0105 36.5903 74.0453 36.4727 74.0453 36.3384C74.0453 36.2108 74.0146 36.099 73.9533 36.0028C73.8936 35.9051 73.8091 35.8288 73.6998 35.7741C73.592 35.7195 73.4661 35.6921 73.3219 35.6921C73.1761 35.6921 73.0427 35.7186 72.9217 35.7717C72.8007 35.823 72.7038 35.8968 72.6309 35.9929C72.5579 36.089 72.519 36.2017 72.514 36.331H71.4824C71.4874 36.0376 71.5711 35.7791 71.7335 35.5554C71.8959 35.3317 72.1146 35.1568 72.3897 35.0309C72.6665 34.9033 72.9789 34.8395 73.3269 34.8395C73.6782 34.8395 73.9856 34.9033 74.2491 35.0309C74.5126 35.1585 74.7173 35.3308 74.8631 35.5479C75.0106 35.7634 75.0835 36.0053 75.0819 36.2738C75.0835 36.5588 74.9949 36.7966 74.8159 36.9872C74.6386 37.1778 74.4074 37.2988 74.1223 37.3501V37.3899C74.4969 37.438 74.7819 37.5681 74.9775 37.7802C75.1747 37.9906 75.2724 38.2541 75.2708 38.5707C75.2724 38.8607 75.1887 39.1184 75.0197 39.3438C74.8523 39.5691 74.6212 39.7464 74.3262 39.8757C74.0312 40.005 73.6931 40.0696 73.312 40.0696ZM76.5298 40.0646C76.3658 40.0646 76.2249 40.0066 76.1072 39.8906C75.9912 39.773 75.9332 39.6321 75.9332 39.468C75.9332 39.3056 75.9912 39.1664 76.1072 39.0504C76.2249 38.9344 76.3658 38.8764 76.5298 38.8764C76.6889 38.8764 76.8281 38.9344 76.9474 39.0504C77.0668 39.1664 77.1264 39.3056 77.1264 39.468C77.1264 39.5774 77.0982 39.6777 77.0419 39.7688C76.9872 39.8583 76.9151 39.9304 76.8256 39.9851C76.7362 40.0381 76.6375 40.0646 76.5298 40.0646ZM79.565 34.9091V40H78.4886V35.9308H78.4588L77.293 36.6616V35.707L78.5533 34.9091H79.565ZM80.6979 39.1051V38.2575L82.8232 34.9091H83.5541V36.0824H83.1215L81.7817 38.2028V38.2425H84.8019V39.1051H80.6979ZM83.1414 40V38.8466L83.1613 38.4712V34.9091H84.1705V40H83.1414ZM60.0763 52.4318C59.9421 52.4318 59.8162 52.421 59.6985 52.3995C59.5825 52.3796 59.4864 52.3539 59.4102 52.3224L59.6488 51.532C59.7731 51.5701 59.8849 51.5908 59.9844 51.5941C60.0855 51.5974 60.1725 51.5742 60.2454 51.5245C60.32 51.4748 60.3804 51.3903 60.4268 51.271L60.489 51.1094L59.1193 47.1818H60.233L61.0234 49.9858H61.0632L61.8612 47.1818H62.9822L61.4982 51.4126C61.427 51.6181 61.33 51.7971 61.2074 51.9496C61.0864 52.1037 60.9331 52.2222 60.7475 52.305C60.5619 52.3896 60.3382 52.4318 60.0763 52.4318ZM65.3829 48.0717V47.1868H68.8158V48.0717H65.3829ZM65.3829 49.7223V48.8374H68.8158V49.7223H65.3829ZM73.7271 45.9091V51H72.6507V46.9308H72.6209L71.4551 47.6616V46.707L72.7154 45.9091H73.7271ZM75.2925 51.0646C75.1285 51.0646 74.9876 51.0066 74.8699 50.8906C74.7539 50.773 74.6959 50.6321 74.6959 50.468C74.6959 50.3056 74.7539 50.1664 74.8699 50.0504C74.9876 49.9344 75.1285 49.8764 75.2925 49.8764C75.4516 49.8764 75.5908 49.9344 75.7101 50.0504C75.8295 50.1664 75.8891 50.3056 75.8891 50.468C75.8891 50.5774 75.8609 50.6777 75.8046 50.7688C75.7499 50.8583 75.6778 50.9304 75.5883 50.9851C75.4988 51.0381 75.4002 51.0646 75.2925 51.0646ZM78.5396 51.1119C78.112 51.1102 77.7441 51.005 77.4359 50.7962C77.1293 50.5874 76.8932 50.2849 76.7275 49.8888C76.5634 49.4928 76.4822 49.0163 76.4838 48.4595C76.4838 47.9044 76.5659 47.4312 76.7299 47.0401C76.8957 46.649 77.1318 46.3516 77.4384 46.1477C77.7466 45.9422 78.1137 45.8395 78.5396 45.8395C78.9655 45.8395 79.3317 45.9422 79.6383 46.1477C79.9466 46.3532 80.1835 46.6515 80.3493 47.0426C80.515 47.4321 80.597 47.9044 80.5953 48.4595C80.5953 49.018 80.5125 49.4953 80.3468 49.8913C80.1827 50.2874 79.9474 50.5898 79.6408 50.7987C79.3342 51.0075 78.9672 51.1119 78.5396 51.1119ZM78.5396 50.2195C78.8313 50.2195 79.0641 50.0728 79.2381 49.7795C79.4121 49.4862 79.4983 49.0462 79.4966 48.4595C79.4966 48.0734 79.4569 47.7519 79.3773 47.495C79.2994 47.2382 79.1884 47.0451 79.0442 46.9158C78.9017 46.7866 78.7335 46.7219 78.5396 46.7219C78.2496 46.7219 78.0176 46.867 77.8436 47.157C77.6696 47.447 77.5817 47.8812 77.5801 48.4595C77.5801 48.8506 77.619 49.1771 77.6969 49.4389C77.7765 49.6991 77.8883 49.8946 78.0325 50.0256C78.1767 50.1548 78.3457 50.2195 78.5396 50.2195Z" fill="white"/>
<path d="M112.403 46V45.3686L114.272 43.0543V43.027H112.467V42.1818H115.547V42.8704L113.792 45.1275V45.1548H115.612V46H112.403ZM118.28 43.0717V42.1868H121.713V43.0717H118.28ZM118.28 44.7223V43.8374H121.713V44.7223H118.28ZM126.291 46.0696C125.92 46.0696 125.59 46.0058 125.3 45.8782C125.011 45.7489 124.783 45.5716 124.616 45.3462C124.45 45.1192 124.365 44.8574 124.36 44.5607H125.444C125.45 44.685 125.491 44.7944 125.566 44.8888C125.642 44.9817 125.743 45.0537 125.869 45.1051C125.995 45.1565 126.137 45.1822 126.294 45.1822C126.458 45.1822 126.603 45.1532 126.729 45.0952C126.855 45.0372 126.954 44.9568 127.025 44.854C127.096 44.7513 127.132 44.6328 127.132 44.4986C127.132 44.3627 127.094 44.2425 127.017 44.1381C126.943 44.0321 126.835 43.9492 126.694 43.8896C126.555 43.8299 126.389 43.8001 126.197 43.8001H125.722V43.0096H126.197C126.359 43.0096 126.503 42.9814 126.627 42.9251C126.753 42.8687 126.851 42.7908 126.92 42.6914C126.99 42.5903 127.025 42.4727 127.025 42.3384C127.025 42.2108 126.994 42.099 126.933 42.0028C126.873 41.9051 126.789 41.8288 126.679 41.7741C126.572 41.7195 126.446 41.6921 126.301 41.6921C126.156 41.6921 126.022 41.7186 125.901 41.7717C125.78 41.823 125.683 41.8968 125.61 41.9929C125.537 42.089 125.498 42.2017 125.494 42.331H124.462C124.467 42.0376 124.551 41.7791 124.713 41.5554C124.875 41.3317 125.094 41.1568 125.369 41.0309C125.646 40.9033 125.958 40.8395 126.306 40.8395C126.658 40.8395 126.965 40.9033 127.229 41.0309C127.492 41.1585 127.697 41.3308 127.843 41.5479C127.99 41.7634 128.063 42.0053 128.061 42.2738C128.063 42.5588 127.974 42.7966 127.795 42.9872C127.618 43.1778 127.387 43.2988 127.102 43.3501V43.3899C127.476 43.438 127.761 43.5681 127.957 43.7802C128.154 43.9906 128.252 44.2541 128.25 44.5707C128.252 44.8607 128.168 45.1184 127.999 45.3438C127.832 45.5691 127.601 45.7464 127.306 45.8757C127.011 46.005 126.673 46.0696 126.291 46.0696ZM132.165 45.2244V41.7045H133.055V45.2244H132.165ZM130.85 43.9094V43.0195H134.37V43.9094H130.85ZM135.325 45.1051V44.2575L137.45 40.9091H138.181V42.0824H137.748L136.409 44.2028V44.2425H139.429V45.1051H135.325ZM137.768 46V44.8466L137.788 44.4712V40.9091H138.797V46H137.768ZM140.156 42.1818H141.215V46.1889C141.215 46.4839 141.157 46.7225 141.041 46.9048C140.925 47.0871 140.758 47.2205 140.541 47.305C140.326 47.3896 140.068 47.4318 139.768 47.4318C139.732 47.4318 139.697 47.431 139.664 47.4293C139.629 47.4293 139.593 47.4285 139.554 47.4268V46.5991C139.583 46.6007 139.607 46.6016 139.629 46.6016C139.649 46.6032 139.67 46.604 139.694 46.604C139.864 46.604 139.984 46.5676 140.052 46.4947C140.121 46.4234 140.156 46.3157 140.156 46.1715V42.1818ZM140.683 41.6896C140.527 41.6896 140.393 41.6374 140.28 41.533C140.168 41.427 140.111 41.3002 140.111 41.1527C140.111 41.0069 140.168 40.8817 140.28 40.7773C140.393 40.6713 140.527 40.6183 140.683 40.6183C140.842 40.6183 140.977 40.6713 141.088 40.7773C141.201 40.8817 141.257 41.0069 141.257 41.1527C141.257 41.3002 141.201 41.427 141.088 41.533C140.977 41.6374 140.842 41.6896 140.683 41.6896Z" fill="white"/>
</svg>
