<svg width="96" height="46" viewBox="0 0 96 46" fill="none" xmlns="http://www.w3.org/2000/svg">
<g clip-path="url(#clip0_799_240)">
<path d="M91.1577 5.84234C84.737 -0.578308 74.2631 -0.578308 67.8066 5.84234C61.3859 12.263 61.3859 22.7369 67.8066 29.1934C71.0348 32.4217 75.2674 34.0358 79.4642 34.0358C83.6968 34.0358 87.9294 32.4217 91.1218 29.1934C97.6142 22.7369 97.6142 12.263 91.1577 5.84234ZM69.8511 27.1489C64.9011 22.163 64.5783 14.2717 68.8827 8.92713L88.0729 28.1173C82.7283 32.4217 74.837 32.1347 69.8511 27.1489ZM90.1174 26.0728L70.9272 6.88256C73.4022 4.87387 76.4511 3.86952 79.5001 3.86952C82.9794 3.86952 86.4946 5.19669 89.149 7.85104C94.099 12.8369 94.4218 20.7282 90.1174 26.0728Z" fill="#FC5A5A"/>
</g>
<g clip-path="url(#clip1_799_240)">
<path d="M32.4974 4.35742L11.2134 25.6387L2.50029 16.9246L0 19.4294L11.2134 30.6424L35 6.85834L32.4974 4.35742Z" fill="#66EB5A"/>
</g>
<path d="M3.23422 39.3675V38.7172H6.65128V39.3675H5.32753V43H4.55796V39.3675H3.23422ZM7.31001 43V38.7172H8.91607C9.24509 38.7172 9.52114 38.7743 9.7442 38.8887C9.96866 39.003 10.138 39.1633 10.2524 39.3696C10.3681 39.5746 10.4259 39.8137 10.4259 40.0869C10.4259 40.3616 10.3674 40.6 10.2503 40.8021C10.1346 41.0029 9.96378 41.1583 9.73793 41.2685C9.51207 41.3772 9.23464 41.4316 8.90562 41.4316H7.76172V40.7875H8.80106C8.99345 40.7875 9.15099 40.761 9.27367 40.708C9.39636 40.6536 9.48698 40.5749 9.54553 40.4717C9.60548 40.3671 9.63546 40.2389 9.63546 40.0869C9.63546 39.935 9.60548 39.8053 9.54553 39.698C9.48558 39.5892 9.39427 39.507 9.27158 39.4512C9.1489 39.394 8.99066 39.3655 8.79687 39.3655H8.08586V43H7.31001ZM9.52253 41.0593L10.5828 43H9.71701L8.67558 41.0593H9.52253ZM13.8399 38.7172H14.6157V41.5152C14.6157 41.8219 14.5432 42.0917 14.3982 42.3245C14.2546 42.5574 14.0525 42.7393 13.7918 42.8703C13.5311 43 13.2264 43.0648 12.8779 43.0648C12.528 43.0648 12.2226 43 11.9619 42.8703C11.7012 42.7393 11.4991 42.5574 11.3555 42.3245C11.2119 42.0917 11.1401 41.8219 11.1401 41.5152V38.7172H11.9159V41.4504C11.9159 41.6289 11.955 41.7878 12.033 41.9272C12.1125 42.0666 12.224 42.1761 12.3676 42.2555C12.5112 42.3336 12.6813 42.3726 12.8779 42.3726C13.0745 42.3726 13.2446 42.3336 13.3882 42.2555C13.5331 42.1761 13.6447 42.0666 13.7228 41.9272C13.8008 41.7878 13.8399 41.6289 13.8399 41.4504V38.7172ZM15.459 43V38.7172H18.2445V39.3675H16.2348V40.5303H18.1002V41.1806H16.2348V42.3496H18.2612V43H15.459Z" fill="#66EB5A"/>
<path d="M70.4224 43V38.7172H73.1661V39.3675H71.1983V40.5303H72.9779V41.1806H71.1983V43H70.4224ZM73.8881 43H73.06L74.5678 38.7172H75.5255L77.0354 43H76.2073L75.0634 39.5955H75.0299L73.8881 43ZM73.9153 41.3207H76.1738V41.9439H73.9153V41.3207ZM77.5995 43V38.7172H78.3754V42.3496H80.2616V43H77.5995ZM83.2625 39.8945C83.243 39.7119 83.1608 39.5697 83.0158 39.4679C82.8722 39.3661 82.6854 39.3153 82.4553 39.3153C82.2936 39.3153 82.1549 39.3397 82.0392 39.3885C81.9235 39.4373 81.8349 39.5035 81.7736 39.5871C81.7123 39.6708 81.6809 39.7663 81.6795 39.8736C81.6795 39.9628 81.6997 40.0402 81.7401 40.1057C81.782 40.1713 81.8384 40.227 81.9095 40.273C81.9806 40.3177 82.0594 40.3553 82.1458 40.386C82.2323 40.4166 82.3194 40.4424 82.4072 40.4633L82.8088 40.5637C82.9705 40.6014 83.1259 40.6523 83.2751 40.7164C83.4257 40.7805 83.5602 40.8614 83.6787 40.959C83.7986 41.0566 83.8934 41.1744 83.9631 41.3124C84.0328 41.4504 84.0677 41.6121 84.0677 41.7975C84.0677 42.0485 84.0035 42.2695 83.8753 42.4605C83.747 42.6501 83.5616 42.7985 83.319 42.9059C83.0778 43.0119 82.7857 43.0648 82.4428 43.0648C82.1096 43.0648 81.8203 43.0132 81.5749 42.9101C81.331 42.8069 81.14 42.6563 81.0019 42.4584C80.8653 42.2604 80.7914 42.0192 80.7803 41.7348H81.5436C81.5547 41.884 81.6007 42.0081 81.6816 42.107C81.7624 42.206 81.8677 42.2799 81.9974 42.3287C82.1284 42.3775 82.2748 42.4019 82.4365 42.4019C82.6052 42.4019 82.753 42.3768 82.8799 42.3266C83.0081 42.275 83.1085 42.2039 83.181 42.1133C83.2535 42.0213 83.2904 41.914 83.2918 41.7913C83.2904 41.6797 83.2577 41.5877 83.1935 41.5152C83.1294 41.4413 83.0395 41.38 82.9238 41.3312C82.8094 41.281 82.6756 41.2364 82.5223 41.1974L82.035 41.0719C81.6823 40.9813 81.4034 40.8439 81.1985 40.6599C80.995 40.4745 80.8932 40.2284 80.8932 39.9217C80.8932 39.6694 80.9615 39.4484 81.0981 39.2588C81.2362 39.0692 81.4237 38.9221 81.6607 38.8176C81.8977 38.7116 82.166 38.6586 82.4658 38.6586C82.7697 38.6586 83.036 38.7116 83.2646 38.8176C83.4947 38.9221 83.6752 39.0678 83.8063 39.2546C83.9373 39.44 84.0049 39.6533 84.0091 39.8945H83.2625ZM84.7593 43V38.7172H87.5449V39.3675H85.5352V40.5303H87.4006V41.1806H85.5352V42.3496H87.5616V43H84.7593Z" fill="#FC5A5A"/>
<defs>
<clipPath id="clip0_799_240">
<rect width="33" height="33" fill="white" transform="translate(63 1)"/>
</clipPath>
<clipPath id="clip1_799_240">
<rect width="35" height="35" fill="white"/>
</clipPath>
</defs>
</svg>
