<svg width="640" height="480" viewBox="0 0 640 480" fill="none" xmlns="http://www.w3.org/2000/svg">
<mask id="mask0_2_57" style="mask-type:alpha" maskUnits="userSpaceOnUse" x="0" y="0" width="640" height="480">
<path d="M640 0C640 160 640 320 640 480H0C0 320 0 160 0 0H640Z" fill="#2DCC9F"/>
</mask>
<g mask="url(#mask0_2_57)">
<path d="M640 3C640 163 640 323 640 483H0C0 323 0 163 0 3H640Z" fill="#2DCC9F"/>
<path d="M640 3C640 163 640 323 640 483H0C0 323 0 163 0 3H640Z" fill="#2DCC9F"/>
<path d="M372.325 53.1853C359.432 50.4646 345.991 52.463 334.447 58.8169C322.904 65.1709 314.025 75.458 309.427 87.8064C304.828 100.155 304.816 113.744 309.392 126.1C313.968 138.457 322.828 148.76 334.36 155.135C345.892 161.51 359.33 163.533 372.227 160.835C385.125 158.138 396.626 150.9 404.637 140.438C412.648 129.976 416.637 116.986 415.877 103.831C415.118 90.6762 409.661 78.231 400.5 68.7602C392.861 60.8893 383.053 55.4678 372.325 53.1853Z" fill="white"/>
<path d="M219.3 342.16C173.9 279.027 128.483 215.902 83.05 152.785C15.6834 246.485 -51.6667 340.16 -119 433.81C-28.1833 433.81 62.65 433.81 153.5 433.81C175.433 403.277 197.383 372.752 219.35 342.235" fill="white"/>
<path d="M317.95 239.66C271.4 304.36 224.867 369.069 178.35 433.785C271.417 433.785 364.492 433.785 457.575 433.785C411.058 369.069 364.517 304.36 317.95 239.66Z" fill="white"/>
</g>
</svg>
