<svg width="640" height="480" viewBox="0 0 640 480" fill="none" xmlns="http://www.w3.org/2000/svg">
<mask id="mask0_2_48" style="mask-type:alpha" maskUnits="userSpaceOnUse" x="0" y="0" width="640" height="480">
<rect width="640" height="480" fill="#D9D9D9"/>
</mask>
<g mask="url(#mask0_2_48)">
<path d="M640 0C640 160 640 320 640 480H0C0 320 0 160 0 0H640Z" fill="#2DCC9F"/>
<path d="M651.8 53.525C638.907 50.8043 625.466 52.8027 613.922 59.1567C602.379 65.5106 593.5 75.7977 588.902 88.1461C584.303 100.494 584.291 114.083 588.867 126.44C593.443 138.797 602.303 149.1 613.835 155.475C625.367 161.85 638.805 163.872 651.702 161.175C664.6 158.478 676.101 151.24 684.112 140.778C692.123 130.316 696.112 117.326 695.352 104.171C694.593 91.0159 689.136 78.5708 679.975 69.1C672.336 61.229 662.529 55.8075 651.8 53.525Z" fill="white"/>
<path d="M498.775 342.5C453.375 279.367 407.958 216.242 362.525 153.125C295.158 246.825 227.808 340.5 160.475 434.15C251.292 434.15 342.125 434.15 432.975 434.15C454.908 403.617 476.858 373.092 498.825 342.575" fill="white"/>
<path d="M597.425 240C550.875 304.7 504.342 369.408 457.825 434.125C550.892 434.125 643.967 434.125 737.05 434.125C690.533 369.408 643.992 304.7 597.425 240Z" fill="white"/>
</g>
</svg>
