<svg width="700" height="508" viewBox="0 0 700 508" fill="none" xmlns="http://www.w3.org/2000/svg">
<path d="M700 0.274994C700 169.425 700 338.575 700 507.725H0C0 338.575 0 169.425 0 0.274994H700Z" fill="#2DCC9F"/>
<path d="M555.8 67.525C542.907 64.8043 529.466 66.8028 517.922 73.1567C506.379 79.5106 497.5 89.7977 492.902 102.146C488.303 114.494 488.291 128.083 492.867 140.44C497.443 152.797 506.303 163.1 517.835 169.475C529.367 175.85 542.805 177.872 555.702 175.175C568.6 172.478 580.101 165.24 588.112 154.778C596.123 144.316 600.112 131.326 599.352 118.171C598.593 105.016 593.136 92.5708 583.975 83.1C576.336 75.229 566.529 69.8076 555.8 67.525Z" fill="white"/>
<path d="M402.775 356.5C357.375 293.367 311.958 230.242 266.525 167.125C199.158 260.825 131.808 354.5 64.475 448.15C155.292 448.15 246.125 448.15 336.975 448.15C358.908 417.617 380.858 387.092 402.825 356.575" fill="white"/>
<path d="M501.425 254C454.875 318.7 408.342 383.408 361.825 448.125C454.892 448.125 547.967 448.125 641.05 448.125C594.533 383.408 547.992 318.7 501.425 254Z" fill="white"/>
</svg>
