<svg width="640" height="480" viewBox="0 0 640 480" fill="none" xmlns="http://www.w3.org/2000/svg">
<path d="M640 0C640 160 640 320 640 480H0C0 320 0 160 0 0H640Z" fill="#2DCC9F"/>
<path d="M640 0C640 160 640 320 640 480H0C0 320 0 160 0 0H640Z" fill="#252525"/>
<path d="M524.8 49.525C511.907 46.8043 498.466 48.8027 486.922 55.1567C475.379 61.5106 466.5 71.7977 461.902 84.1461C457.303 96.4944 457.291 110.083 461.867 122.44C466.443 134.797 475.303 145.1 486.835 151.475C498.367 157.85 511.805 159.872 524.702 157.175C537.6 154.478 549.101 147.24 557.112 136.778C565.123 126.316 569.112 113.326 568.352 100.171C567.593 87.0159 562.136 74.5708 552.975 65.1C545.336 57.229 535.529 51.8075 524.8 49.525Z" fill="#474747"/>
<path d="M371.775 338.5C326.375 275.367 280.958 212.242 235.525 149.125C168.158 242.825 100.808 336.5 33.475 430.15C124.292 430.15 215.125 430.15 305.975 430.15C327.908 399.617 349.858 369.092 371.825 338.575" fill="#A4A4A4"/>
<path d="M470.425 236C423.875 300.7 377.342 365.408 330.825 430.125C423.892 430.125 516.967 430.125 610.05 430.125C563.533 365.408 516.992 300.7 470.425 236Z" fill="#CECECE"/>
</svg>
