<svg width="421" height="348" viewBox="0 0 421 348" fill="none" xmlns="http://www.w3.org/2000/svg">
<path d="M375.239 9.1521C395.374 9.1521 411.848 25.626 411.848 45.7608V302.022C411.848 322.156 395.374 338.63 375.239 338.63H45.7608C25.626 338.63 9.1521 322.156 9.1521 302.022V45.7608C9.1521 25.626 25.626 9.1521 45.7608 9.1521H375.239Z" fill="#9CE0FF"/>
<path d="M407.272 197.687L352.816 143.231C349.155 139.571 343.664 139.571 340.003 143.231L229.262 252.142L160.621 187.62L24.2532 332.681H408.644L407.272 197.687Z" fill="#80D440"/>
<path d="M227.889 248.024L167.942 190.365C164.282 186.704 158.79 186.704 155.129 190.365L13.7283 329.478H151.011L227.889 248.024Z" fill="#62C418"/>
<path d="M176.18 311.174C173.891 311.174 171.603 310.259 169.773 308.428C166.112 304.768 166.112 299.276 169.773 295.615L178.925 286.463C182.586 282.802 188.077 282.802 191.738 286.463C195.399 290.124 195.399 295.615 191.738 299.276L182.586 308.428C180.756 310.259 178.468 311.174 176.18 311.174Z" fill="#5F961D"/>
<path d="M23.7957 328.563C21.5077 328.563 19.2196 327.648 17.3892 325.817C13.7283 322.157 13.7283 316.208 17.3892 313.004L149.638 183.044C153.299 179.383 157.875 177.552 162.451 177.552C167.027 177.552 172.061 179.383 175.264 183.044L228.347 236.126C232.008 239.787 232.008 245.278 228.347 248.939C224.686 252.6 219.195 252.6 215.534 248.939L162.451 195.857L30.2023 325.817C28.3718 327.648 26.0838 328.563 23.7957 328.563Z" fill="#5F961D"/>
<path d="M204.551 282.345C202.263 282.345 199.975 281.429 198.145 279.599C194.484 275.938 194.484 270.447 198.145 266.786L333.597 132.249C340.919 124.927 351.901 124.927 359.223 132.249L413.678 186.704C417.339 190.365 417.339 195.856 413.678 199.517C410.017 203.178 404.526 203.178 400.865 199.517L346.41 145.062L210.958 279.599C209.127 281.429 206.839 282.345 204.551 282.345Z" fill="#5F971D"/>
<path d="M375.239 347.783H45.7609C20.5924 347.783 0 327.19 0 302.022V45.7609C0 20.5924 20.5924 0 45.7609 0H375.239C400.408 0 421 20.5924 421 45.7609V302.022C421 327.19 400.408 347.783 375.239 347.783ZM45.7609 18.3043C30.6598 18.3043 18.3043 30.6598 18.3043 45.7609V302.022C18.3043 317.123 30.6598 329.478 45.7609 329.478H375.239C390.34 329.478 402.696 317.123 402.696 302.022V45.7609C402.696 30.6598 390.34 18.3043 375.239 18.3043H45.7609Z" fill="#62A2DD"/>
<path d="M100.674 128.13C115.838 128.13 128.13 115.838 128.13 100.674C128.13 85.51 115.838 73.2173 100.674 73.2173C85.51 73.2173 73.2173 85.51 73.2173 100.674C73.2173 115.838 85.51 128.13 100.674 128.13Z" fill="#FFE53C"/>
<path d="M100.674 128.13C115.775 128.13 128.13 115.775 128.13 100.674C128.13 85.5727 115.775 73.2173 100.674 73.2173C100.674 100.674 100.674 107.08 100.674 128.13Z" fill="#F3D933"/>
<path d="M100.674 137.283C80.5391 137.283 64.0652 120.809 64.0652 100.674C64.0652 80.5391 80.5391 64.0652 100.674 64.0652C120.809 64.0652 137.283 80.5391 137.283 100.674C137.283 120.809 120.809 137.283 100.674 137.283ZM100.674 82.3695C90.6065 82.3695 82.3695 90.6065 82.3695 100.674C82.3695 110.741 90.6065 118.978 100.674 118.978C110.741 118.978 118.978 110.741 118.978 100.674C118.978 90.6065 110.741 82.3695 100.674 82.3695Z" fill="#C39215"/>
</svg>
