<?xml version="1.0" encoding="UTF-8"?>
<svg id="Layer_2" data-name="Layer 2" xmlns="http://www.w3.org/2000/svg" viewBox="0 0 568 182.39">
  <defs>
    <style>
      .cls-1 {
        fill: #fff;
        stroke-width: 0px;
      }
    </style>
  </defs>
  <g id="Layer_1-2" data-name="Layer 1">
    <g>
      <path class="cls-1" d="M13.03,138.42V57h24.43v81.42c0,12.7-3.04,21.88-9.12,27.52-6.08,5.64-15.53,8.09-28.34,7.33v-23.45c4.56.22,7.87-.57,9.93-2.36,2.06-1.79,3.09-4.8,3.09-9.04ZM35.58,45.51c-2.88,2.88-6.33,4.32-10.34,4.32s-7.46-1.44-10.34-4.32c-2.88-2.88-4.32-6.32-4.32-10.34s1.44-7.46,4.32-10.34,6.32-4.32,10.34-4.32,7.46,1.44,10.34,4.32c2.88,2.88,4.32,6.33,4.32,10.34s-1.44,7.47-4.32,10.34Z"/>
      <path class="cls-1" d="M114.48,57h24.43v81.42h-24.43v-7.65c-5.76,6.62-13.84,9.93-24.26,9.93s-19.92-4.15-27.52-12.46c-7.6-8.31-11.4-18.48-11.4-30.53s3.8-22.23,11.4-30.53c7.6-8.31,16.77-12.46,27.52-12.46s18.51,3.31,24.26,9.93v-7.65ZM81.1,112.2c3.58,3.58,8.25,5.37,14,5.37s10.42-1.79,14-5.37,5.37-8.41,5.37-14.49-1.79-10.91-5.37-14.49c-3.58-3.58-8.25-5.37-14-5.37s-10.42,1.79-14,5.37c-3.58,3.58-5.37,8.42-5.37,14.49s1.79,10.91,5.37,14.49Z"/>
      <path class="cls-1" d="M157.63,138.42V57h24.43v81.42c0,12.7-3.04,21.88-9.12,27.52-6.08,5.64-15.53,8.09-28.34,7.33v-23.45c4.56.22,7.87-.57,9.93-2.36,2.06-1.79,3.09-4.8,3.09-9.04ZM180.19,45.51c-2.88,2.88-6.33,4.32-10.34,4.32s-7.46-1.44-10.34-4.32c-2.88-2.88-4.32-6.32-4.32-10.34s1.44-7.46,4.32-10.34,6.32-4.32,10.34-4.32,7.46,1.44,10.34,4.32c2.88,2.88,4.32,6.33,4.32,10.34s-1.44,7.47-4.32,10.34Z"/>
      <path class="cls-1" d="M252.57,57h24.43v81.42h-24.43v-7.65c-4.88,6.62-12.65,9.93-23.29,9.93-8.69,0-15.93-2.99-21.74-8.96-5.81-5.97-8.71-14.22-8.71-24.75v-49.99h24.43v46.41c0,4.78,1.33,8.44,3.99,10.99,2.66,2.55,6.05,3.83,10.18,3.83,4.67,0,8.36-1.41,11.07-4.23,2.71-2.82,4.07-7,4.07-12.54v-44.46Z"/>
      <path class="cls-1" d="M333.99,140.7c-12.38,0-22.66-4.12-30.86-12.38-8.2-8.25-12.29-18.46-12.29-30.62s4.1-22.36,12.29-30.62c8.2-8.25,18.48-12.38,30.86-12.38,7.82,0,15.01,1.9,21.58,5.7,6.57,3.8,11.64,8.85,15.23,15.15l-21.33,12.38c-2.93-6.08-8.2-9.12-15.8-9.12-5.32,0-9.72,1.77-13.19,5.29-3.48,3.53-5.21,8.06-5.21,13.6s1.74,10.07,5.21,13.6c3.47,3.53,7.87,5.29,13.19,5.29,7.71,0,12.97-3.04,15.8-9.12l21.33,12.21c-3.58,6.41-8.63,11.51-15.14,15.31s-13.74,5.7-21.66,5.7Z"/>
      <path class="cls-1" d="M428.28,54.71c8.68,0,15.93,2.99,21.74,8.96,5.81,5.97,8.71,14.22,8.71,24.75v49.99h-24.43v-46.41c0-4.78-1.33-8.44-3.99-10.99-2.66-2.55-6.05-3.83-10.18-3.83-4.67,0-8.36,1.41-11.07,4.23-2.71,2.82-4.07,7-4.07,12.54v44.46h-24.43V24.43h24.43v40.22c4.88-6.62,12.65-9.93,23.29-9.93Z"/>
      <path class="cls-1" d="M534.62,57h24.43v81.42h-24.43v-7.65c-5.76,6.62-13.84,9.93-24.26,9.93s-19.92-4.15-27.52-12.46c-7.6-8.31-11.4-18.48-11.4-30.53s3.8-22.23,11.4-30.53c7.6-8.31,16.77-12.46,27.52-12.46s18.51,3.31,24.26,9.93v-7.65ZM501.24,112.2c3.58,3.58,8.25,5.37,14,5.37s10.42-1.79,14-5.37,5.37-8.41,5.37-14.49-1.79-10.91-5.37-14.49c-3.58-3.58-8.25-5.37-14-5.37s-10.42,1.79-14,5.37c-3.58,3.58-5.37,8.42-5.37,14.49s1.79,10.91,5.37,14.49Z"/>
    </g>
  </g>
</svg>