<?xml version="1.0" encoding="utf-8"?><!-- Uploaded to: SVG Repo, www.svgrepo.com, Generator: SVG Repo Mixer Tools -->
<svg fill="#000000" width="800px" height="800px" viewBox="0 0 24 24" id="qr-code-scan-2" data-name="Flat Line" xmlns="http://www.w3.org/2000/svg" class="icon flat-line"><path id="secondary" d="M11,11H7V7h4Zm2,6h4V13H13Z" style="fill: rgb(44, 169, 188); stroke-width: 2;"></path><path id="primary" d="M11,11H7V7h4Zm6-4H15V9h2ZM13,17h4V13H13ZM7,17H9V15H7Z" style="fill: none; stroke: rgb(0, 0, 0); stroke-linecap: round; stroke-linejoin: round; stroke-width: 2;"></path><path id="primary-2" data-name="primary" d="M8,3H4A1,1,0,0,0,3,4V8" style="fill: none; stroke: rgb(0, 0, 0); stroke-linecap: round; stroke-linejoin: round; stroke-width: 2;"></path><path id="primary-3" data-name="primary" d="M21,8V4a1,1,0,0,0-1-1H16" style="fill: none; stroke: rgb(0, 0, 0); stroke-linecap: round; stroke-linejoin: round; stroke-width: 2;"></path><path id="primary-4" data-name="primary" d="M3,16v4a1,1,0,0,0,1,1H8" style="fill: none; stroke: rgb(0, 0, 0); stroke-linecap: round; stroke-linejoin: round; stroke-width: 2;"></path><path id="primary-5" data-name="primary" d="M16,21h4a1,1,0,0,0,1-1V16" style="fill: none; stroke: rgb(0, 0, 0); stroke-linecap: round; stroke-linejoin: round; stroke-width: 2;"></path></svg>