<?xml version="1.0" encoding="utf-8"?>
<!-- Uploaded to: SVG Repo, www.svgrepo.com, Generator: SVG Repo Mixer Tools -->
<svg width="800px" height="800px" viewBox="0 0 1024 1024" class="icon"  version="1.1" xmlns="http://www.w3.org/2000/svg"><path d="M912.76 893.432c0 45-172.736 78.504-383.336 78.504-210.608 0-379.344-33.504-379.344-78.504 0-45.008 170.728-81.504 381.336-81.504 210.6 0 381.344 36.496 381.344 81.504z" fill="#B8CBCD" /><path d="M820.96 731.168c-125.952 7.344-160.664-176.648-286.616-169.32L698.8 217.016c125.96-7.336 160.656 176.656 286.616 169.328L820.96 731.168z" fill="#B2EDA6" /><path d="M813.664 755.384c-69.448 0-114.256-49.256-153.784-92.728-37.472-41.2-72.472-79.888-124.144-76.84a23.984 23.984 0 0 1-23.056-34.288l164.456-344.832a24 24 0 0 1 20.272-13.632c74.248-4.4 121.312 47.232 162.472 92.48 37.472 41.2 72.432 79.832 124.152 76.848a24.208 24.208 0 0 1 21.312 10.568c4.736 7.04 5.4 16.064 1.744 23.72l-164.464 344.832a24 24 0 0 1-20.264 13.632c-2.936 0.16-5.84 0.24-8.696 0.24zM571.016 540.72c53.248 11.432 90.728 52.64 124.376 89.64 34.056 37.448 66.32 72.92 110.48 76.696l142.88-299.576c-53.248-11.44-90.728-52.64-124.384-89.648-34.048-37.44-66.32-72.92-110.48-76.696L571.016 540.72z" fill="#3C663E" /><path d="M749.288 328.856c-21.408-16.496-44.968-28.512-73.024-31.064l29.352-61.552c28.064 2.552 51.624 14.56 73.032 31.064l-29.36 61.552zM780.088 448.48c-19.48-20.552-38.744-41.56-60.152-58.072l29.344-61.544c21.416 16.504 40.68 37.504 60.168 58.064l-29.36 61.552zM870.888 442.288c-22.272-14.704-41.968-34.816-61.44-55.368l29.352-61.544c19.48 20.552 39.168 40.656 61.44 55.368l-29.352 61.544zM918.432 526.808c-29.784 1.048-54.624-8.264-76.888-22.968l29.352-61.544c22.264 14.696 47.12 24.016 76.896 22.968l-29.36 61.544z" fill="#3C663E" /><path d="M690.576 451.952c-21.408-16.496-44.968-28.504-73.032-31.064l29.36-61.536c28.064 2.544 51.624 14.56 73.032 31.056l-29.36 61.544zM721.376 571.576c-19.48-20.568-38.744-41.568-60.16-58.064l29.352-61.56c21.416 16.504 40.68 37.504 60.16 58.072-9.776 20.52-19.568 41.04-29.352 61.552zM812.184 565.392c-22.272-14.704-41.968-34.808-61.448-55.368l29.352-61.544c19.48 20.552 39.176 40.664 61.448 55.36a107330.32 107330.32 0 0 0-29.352 61.552zM859.72 649.896c-29.792 1.064-54.632-8.264-76.904-22.952l29.36-61.552c22.264 14.704 47.112 24.016 76.888 22.96l-29.344 61.544zM631.864 575.056c-21.416-16.504-44.968-28.504-73.032-31.064l29.352-61.544c28.064 2.544 51.624 14.56 73.032 31.072l-29.352 61.536z" fill="#3C663E" /><path d="M753.472 688.488c-22.264-14.712-41.96-34.816-61.44-55.368l29.352-61.544c19.48 20.552 39.176 40.648 61.44 55.368l-29.352 61.544zM388.352 891.936a24.024 24.024 0 0 1-21.656-34.336L552.88 467.216a24 24 0 1 1 43.328 20.656l-186.184 390.384a24 24 0 0 1-21.672 13.68z" fill="#3C663E" /><path d="M211.768 731.168c125.952 7.344 160.664-176.648 286.616-169.32L333.928 217.016C207.968 209.68 173.264 393.672 47.304 386.344l164.464 344.824z" fill="#B2EDA6" /><path d="M219.08 755.384h-0.016c-2.848 0-5.752-0.08-8.688-0.248a24 24 0 0 1-20.264-13.632L25.64 396.672a24.024 24.024 0 0 1 1.744-23.72 24.12 24.12 0 0 1 21.312-10.568c1.992 0.12 3.928 0.168 5.856 0.168h0.016c48.216-0.008 82.24-37.416 118.264-77.024 41.152-45.256 88.12-96.848 162.472-92.48a24 24 0 0 1 20.272 13.632l163.336 342.496a24 24 0 0 1-20.384 36.672h-0.16a27.52 27.52 0 0 1-1.4-0.04c-51.688-3.032-86.664 35.64-124.144 76.84-39.504 43.48-84.312 92.736-153.744 92.736zM83.968 407.472l142.888 299.584c44.16-3.768 76.424-39.24 110.48-76.688 33.648-37.008 71.128-78.208 124.376-89.648L318.84 241.136c-44.16 3.776-76.432 39.256-110.48 76.696-33.656 36.992-71.136 78.208-124.392 89.64z" fill="#3C663E" /><path d="M283.448 328.856c21.408-16.496 44.968-28.512 73.024-31.064L327.12 236.24c-28.064 2.552-51.624 14.56-73.032 31.064l29.36 61.552zM252.64 448.48c19.48-20.552 38.744-41.56 60.152-58.072l-29.344-61.544c-21.416 16.504-40.68 37.504-60.168 58.064l29.36 61.552zM161.84 442.288c22.272-14.704 41.968-34.816 61.44-55.368l-29.352-61.544c-19.48 20.552-39.168 40.656-61.44 55.368l29.352 61.544zM114.304 526.808c29.784 1.048 54.624-8.264 76.888-22.968l-29.352-61.544c-22.264 14.696-47.12 24.016-76.896 22.968l29.36 61.544zM342.152 451.952c21.408-16.496 44.968-28.504 73.032-31.064l-29.352-61.536c-28.064 2.544-51.624 14.56-73.032 31.056 9.776 20.504 19.56 41.032 29.352 61.544zM311.352 571.576c19.48-20.568 38.744-41.568 60.152-58.064l-29.352-61.56c-21.416 16.504-40.68 37.504-60.16 58.072l29.36 61.552z" fill="#3C663E" /><path d="M220.544 565.392c22.272-14.704 41.968-34.808 61.448-55.368L252.64 448.48c-19.472 20.552-39.168 40.664-61.448 55.36 9.792 20.52 19.576 41.032 29.352 61.552zM173.008 649.896c29.792 1.064 54.632-8.264 76.904-22.952a145358.08 145358.08 0 0 1-29.36-61.552c-22.264 14.704-47.112 24.016-76.888 22.96l29.344 61.544zM400.864 575.056c21.416-16.504 44.968-28.504 73.032-31.064l-29.352-61.544c-28.064 2.544-51.624 14.56-73.032 31.072l29.352 61.536zM279.264 688.488c22.264-14.712 41.96-34.816 61.44-55.368l-29.352-61.544c-19.48 20.552-39.176 40.648-61.44 55.368 9.776 20.52 19.56 41.032 29.352 61.544z" fill="#3C663E" /><path d="M644.376 891.936a24.016 24.016 0 0 1-21.68-13.68L436.512 487.872a24 24 0 1 1 43.336-20.656L666.024 857.6a24 24 0 0 1-21.648 34.336z" fill="#3C663E" /></svg>