<svg width="169" height="145" viewBox="0 0 169 145" fill="none" xmlns="http://www.w3.org/2000/svg">
<path fill-rule="evenodd" clip-rule="evenodd" d="M109.407 3.92143C116.657 0.380674 124.723 -1.60294 131.445 1.64697C135.027 3.37939 137.506 6.28115 139.006 9.73532C140.368 12.8733 140.923 16.443 140.955 20.1349C140.983 23.2387 140.641 26.5913 139.986 30.1181C138.997 35.4492 137.281 41.2445 134.974 47.2872C134.732 47.9197 134.393 48.4861 133.979 48.9755C135.422 49.4624 136.829 49.9633 138.2 50.4772L138.213 50.482C138.576 50.6185 138.975 50.7702 139.333 50.908C140.371 51.3089 141.388 51.7174 142.381 52.1332C144.919 53.1958 147.306 54.3054 149.522 55.4571C151.8 56.6407 153.927 57.8819 155.873 59.1792C162.587 63.6527 168.369 69.6174 168.953 77.0601C169.264 81.0275 168.009 84.6312 165.783 87.6689C163.761 90.4278 160.959 92.7085 157.787 94.5984C155.121 96.1869 152.053 97.5831 148.678 98.7971C143.576 100.632 137.707 102.074 131.325 103.13C128.143 103.656 125.136 101.504 124.61 98.3213C124.083 95.1388 126.236 92.1323 129.418 91.6059C133.793 90.8817 137.717 89.9901 141.152 88.9724L141.191 88.9599C145.599 87.6518 149.147 86.1505 151.809 84.5643C154.1 83.1992 155.54 81.8864 156.362 80.7643C157.182 79.6453 157.371 78.7631 157.309 77.9743C157.164 76.1366 155.385 72.8895 149.396 68.8995C147.85 67.8685 146.095 66.8391 144.137 65.8221L134.043 61.3922C120.393 56.2832 102.111 52.3746 81.9841 50.9704C79.4861 50.7961 77.0239 50.6648 74.6014 50.5749C71.3589 54.6729 68.1578 59.0203 65.0477 63.5811C59.2568 72.0757 54.3914 80.424 50.5218 88.2591C52.9723 89.6545 54.1151 92.6626 53.0906 95.3864C51.9789 98.3423 48.7271 99.8677 45.7579 98.8648C43.9966 103.246 42.6082 107.38 41.6084 111.184C41.5031 111.585 41.4026 111.98 41.3067 112.37L41.2895 112.443C39.7667 118.664 39.4318 123.538 39.9664 126.939C40.1738 128.26 40.4848 129.237 40.8434 129.965C41.3911 131.075 42.0497 131.607 42.6146 131.886L42.6451 131.901C42.9819 132.064 43.3974 132.202 43.9192 132.287C44.8737 132.443 46.1826 132.425 47.9055 132.053C51.0184 131.383 54.9663 129.676 59.5931 126.776C60.6619 126.106 61.7572 125.379 62.8764 124.596C64.7424 123.288 66.6689 121.829 68.6421 120.222L77.7948 112.785C80.2982 110.751 83.976 111.131 86.0099 113.634C88.0438 116.138 87.6638 119.816 85.1603 121.85L76.0163 129.28C73.8461 131.047 71.6946 132.679 69.5765 134.163C68.3057 135.053 67.0443 135.891 65.7952 136.674C60.5193 139.98 55.2799 142.413 50.3655 143.472C47.5906 144.069 44.7657 144.262 42.0289 143.814C40.4948 143.562 38.9916 143.109 37.5605 142.417L37.4333 142.354C31.7529 139.542 29.1365 133.998 28.3429 128.177C27.5565 122.408 28.3875 115.537 30.3117 108.215C31.4059 104.052 32.8884 99.6131 34.7345 94.9737L30.7884 93.5807C28.168 92.598 25.6733 91.5639 23.3243 90.4838C21.9143 89.8352 20.5542 89.1686 19.2483 88.4849C13.7326 85.5968 8.98903 82.2999 5.59591 78.591C3.67996 76.4963 2.08849 74.1548 1.09551 71.5649C0.538984 70.1135 0.172068 68.5865 0.0477121 67.0018L0.0372775 66.8609C-0.400343 60.538 3.06729 55.482 7.69384 51.8601C12.2787 48.2709 18.6299 45.5232 25.9225 43.4914C37.5058 40.2643 52.4748 38.569 69.1529 38.7594C77.0441 29.2998 85.1845 21.1385 92.9791 14.7919L92.9892 14.7833C93.2906 14.5384 93.6231 14.2701 93.9221 14.0314C94.7919 13.3367 95.6578 12.6652 96.5174 12.0174C98.7149 10.3617 100.877 8.86132 102.989 7.52837C105.161 6.15804 107.305 4.94789 109.407 3.92143ZM84.0811 39.4114C98.2991 40.479 111.834 42.7519 123.718 45.901C123.608 44.9895 123.711 44.0386 124.062 43.1212C125.643 38.9785 126.853 35.1407 127.706 31.661L127.716 31.6208C128.809 27.1553 129.302 23.3341 129.276 20.2362C129.253 17.5686 128.845 15.6631 128.292 14.387C127.74 13.115 127.072 12.507 126.36 12.1625C124.7 11.3599 120.999 11.2586 114.533 14.4168C112.863 15.2324 111.088 16.2288 109.223 17.406L100.307 23.8875C95.0917 28.1382 89.6004 33.3702 84.0811 39.4114ZM59.9617 50.5352C47.9052 50.9392 37.3359 52.4368 29.0573 54.743C28.6583 54.8544 28.2662 54.9673 27.8808 55.081L27.81 55.1028C21.67 56.9257 17.2926 59.0951 14.6251 61.2723C13.5896 62.1179 12.9024 62.8795 12.4546 63.5562C11.7728 64.5887 11.6461 65.4258 11.6897 66.0542L11.6922 66.0884C11.7214 66.4614 11.8122 66.8897 12.0015 67.3834C12.3478 68.2859 13.0247 69.4064 14.2143 70.7068C16.3636 73.0569 19.8288 75.6047 24.6662 78.137C25.7834 78.7218 26.9639 79.3011 28.2053 79.8719C30.275 80.8243 32.5072 81.7509 34.8898 82.644L39.4738 84.2621C43.7243 75.4981 49.0794 66.2691 55.397 57.002C56.8953 54.8038 58.4185 52.6468 59.9617 50.5352Z" fill="white"/>
<path d="M78.7774 85.8989C78.67 78.8098 78.617 75.2652 80.8518 73.9749C83.0867 72.6847 86.1298 74.5029 92.216 78.1401L93.7904 79.0815C95.5199 80.1149 96.3842 80.6311 97.3366 80.7518C98.2897 80.8725 99.2218 80.5828 101.087 80.0035L102.786 79.4763C109.349 77.4377 112.631 76.4184 114.604 78.2406C116.577 80.0627 115.934 83.5193 114.648 90.4324L114.316 92.2211C113.951 94.1857 113.768 95.1676 113.984 96.1277C114.201 97.087 114.792 97.9156 115.976 99.5718L117.053 101.08C121.216 106.909 123.298 109.824 122.282 112.24C121.267 114.657 117.826 114.975 110.946 115.61L109.166 115.775C107.21 115.955 106.233 116.046 105.414 116.518C104.595 116.991 104.029 117.792 102.895 119.396L101.862 120.855C97.8715 126.496 95.8758 129.317 93.2757 128.987C90.6749 128.659 89.1915 125.399 86.2248 118.879L85.4577 117.192C84.6144 115.339 84.1932 114.412 83.4706 113.745C82.7472 113.077 81.8057 112.744 79.9213 112.078L78.2066 111.472C71.5762 109.129 68.2613 107.957 67.6703 105.338C67.0785 102.718 69.6022 100.386 74.6488 95.7205L75.9547 94.5135C77.389 93.1882 78.1062 92.5247 78.4784 91.6402C78.8498 90.7548 78.835 89.7472 78.8047 87.7327L78.7774 85.8989Z" fill="white"/>
</svg>
