<svg xmlns="http://www.w3.org/2000/svg" viewBox="0 0 1710 877" preserveAspectRatio="xMidYMid" width="1710" height="877" xmlns:xlink="http://www.w3.org/1999/xlink" style="shape-rendering:auto;display:block;background-position-x:0%;background-position-y:0%;background-size:auto;background-origin:padding-box;background-clip:border-box;background:scroll rgb(255, 255, 255) none  repeat;width:1710px;height:877px;;animation:none"><g><linearGradient y2="0" y1="0" x2="1" x1="0" id="lg-o578w6yh81n"><stop offset="0" stop-color="#ff00ff"></stop>

  
<stop offset="1" stop-color="#00ffff"></stop></linearGradient>
<path opacity="0.4" fill="url(#lg-o578w6yh81n)" d="M 0 0 L 0 593.45 Q 171 566.56 342 546.55 T 684 418.15 T 1026 378.16 T 1368 438.29 T 1710 347.53 L 1710 0 Z" style="fill:url('#lg-o578w6yh81n');opacity:0.4;;animation:none"></path>
<path opacity="0.4" fill="url(#lg-o578w6yh81n)" d="M 0 0 L 0 548.296 Q 171 526.969 342 502.145 T 684 438.491 T 1026 358.358 T 1368 286.454 T 1710 286.929 L 1710 0 Z" style="fill:url('#lg-o578w6yh81n');opacity:0.4;;animation:none"></path>
<path opacity="0.4" fill="url(#lg-o578w6yh81n)" d="M 0 0 L 0 562.197 Q 171 612.616 342 588.397 T 684 392.725 T 1026 428.202 T 1368 332.037 T 1710 270.744 L 1710 0 Z" style="fill:url('#lg-o578w6yh81n');opacity:0.4;;animation:none"></path>
<path opacity="0.4" fill="url(#lg-o578w6yh81n)" d="M 0 0 L 0 599.925 Q 171 514.999 342 490.278 T 684 512.222 T 1026 399.203 T 1368 434.81 T 1710 342.404 L 1710 0 Z" style="fill:url('#lg-o578w6yh81n');opacity:0.4;;animation:none"></path>
<path opacity="0.4" fill="url(#lg-o578w6yh81n)" d="M 0 0 L 0 627.875 Q 171 534.161 342 512.816 T 684 431.926 T 1026 443.782 T 1368 279.588 T 1710 219.761 L 1710 0 Z" style="fill:url('#lg-o578w6yh81n');opacity:0.4;;animation:none"></path>
<g></g></g><!-- [ldio] generated by https://loading.io --></svg>